<svg xmlns="http://www.w3.org/2000/svg" width="160.534" height="110.865" viewBox="0 0 160.534 110.865">
  <g id="Group_564" data-name="Group 564" transform="translate(2061.414 -231.576)">
    <g id="Group_559" data-name="Group 559" transform="translate(-2061.414 279.131)">
      <g id="Group_551" data-name="Group 551" transform="translate(0)">
        <path id="Path_1668" data-name="Path 1668" d="M-2045.677,495.585l-.878-5.429a.713.713,0,0,0-.7-.6h-4.454a.713.713,0,0,0-.7.6l-.878,5.429a.712.712,0,0,1-.7.6h-6.7a.713.713,0,0,1-.7-.855l5.175-25.359a.713.713,0,0,1,.7-.57h12.1a.713.713,0,0,1,.7.57l5.156,25.359a.712.712,0,0,1-.7.854h-6.705A.713.713,0,0,1-2045.677,495.585Zm-4.51-19.013-.977,6.006a.712.712,0,0,0,.7.827h1.972a.712.712,0,0,0,.7-.829l-1-6.006a.712.712,0,0,0-.7-.6h0A.712.712,0,0,0-2050.188,476.573Z" transform="translate(2061.414 -469.4)" fill="#fff"/>
      </g>
      <g id="Group_552" data-name="Group 552" transform="translate(26.875)">
        <path id="Path_1669" data-name="Path 1669" d="M-1927.011,495.472V470.112a.712.712,0,0,1,.713-.712h6.784a.712.712,0,0,1,.713.712v19.225a.713.713,0,0,0,.712.713h9.607a.712.712,0,0,1,.712.712v4.709a.712.712,0,0,1-.712.712H-1926.3A.712.712,0,0,1-1927.011,495.472Z" transform="translate(1927.011 -469.4)" fill="#fff"/>
      </g>
      <g id="Group_553" data-name="Group 553" transform="translate(48.428)">
        <path id="Path_1670" data-name="Path 1670" d="M-1819.227,495.472V470.112a.712.712,0,0,1,.713-.712h6.784a.712.712,0,0,1,.713.712v19.225a.713.713,0,0,0,.713.713h9.607a.712.712,0,0,1,.712.712v4.709a.712.712,0,0,1-.712.712h-17.816A.712.712,0,0,1-1819.227,495.472Z" transform="translate(1819.227 -469.4)" fill="#fff"/>
      </g>
      <g id="Group_554" data-name="Group 554" transform="translate(69.98)">
        <path id="Path_1671" data-name="Path 1671" d="M-1711.443,495.472V470.112a.712.712,0,0,1,.712-.712h17.8a.712.712,0,0,1,.712.712v4.709a.712.712,0,0,1-.712.712h-9.586a.712.712,0,0,0-.712.713v2.022a.712.712,0,0,0,.712.713h9.586a.712.712,0,0,1,.712.712V484.4a.712.712,0,0,1-.712.712h-9.586a.712.712,0,0,0-.712.712v3.509a.712.712,0,0,0,.712.713h9.586a.712.712,0,0,1,.712.712v4.709a.712.712,0,0,1-.712.712h-17.8A.712.712,0,0,1-1711.443,495.472Z" transform="translate(1711.443 -469.4)" fill="#fff"/>
      </g>
      <g id="Group_555" data-name="Group 555" transform="translate(92.975)">
        <path id="Path_1672" data-name="Path 1672" d="M-1592.3,495.992l-3.926-3.673a.713.713,0,0,1-.226-.52V473.786a.712.712,0,0,1,.226-.52l3.926-3.673a.713.713,0,0,1,.487-.192h15.466a.713.713,0,0,1,.713.712v4.709a.713.713,0,0,1-.713.712h-10.045a.714.714,0,0,0-.487.192l-1.138,1.063a.713.713,0,0,0-.226.521v10.964a.713.713,0,0,0,.226.52l1.138,1.064a.712.712,0,0,0,.487.192h1.816a.713.713,0,0,0,.713-.713v-3.509a.712.712,0,0,0-.713-.712h-.151a.712.712,0,0,1-.712-.712v-4.709a.712.712,0,0,1,.712-.712h8.381a.713.713,0,0,1,.713.712v15.777a.713.713,0,0,1-.713.712h-15.466A.713.713,0,0,1-1592.3,495.992Z" transform="translate(1596.447 -469.4)" fill="#fff"/>
      </g>
      <g id="Group_556" data-name="Group 556" transform="translate(142.169)">
        <path id="Path_1673" data-name="Path 1673" d="M-1346.274,495.992l-3.926-3.673a.713.713,0,0,1-.226-.52V473.785a.713.713,0,0,1,.226-.52l3.926-3.673a.713.713,0,0,1,.487-.192h2.879a.713.713,0,0,1,.713.712v25.359a.713.713,0,0,1-.713.712h-2.879A.713.713,0,0,1-1346.274,495.992Z" transform="translate(1350.426 -469.4)" fill="#fff"/>
      </g>
      <g id="Group_557" data-name="Group 557" transform="translate(152.325)">
        <path id="Path_1674" data-name="Path 1674" d="M-1299.638,495.472V470.112a.712.712,0,0,1,.713-.712h2.858a.714.714,0,0,1,.487.192l3.926,3.673a.712.712,0,0,1,.226.52V491.8a.712.712,0,0,1-.226.52l-3.926,3.673a.714.714,0,0,1-.487.192h-2.858A.712.712,0,0,1-1299.638,495.472Z" transform="translate(1299.638 -469.4)" fill="#fff"/>
      </g>
      <g id="Group_558" data-name="Group 558" transform="translate(117.796)">
        <path id="Path_1675" data-name="Path 1675" d="M-1459.731,495.472v-7.845a.712.712,0,0,0-.226-.52l-1.116-1.045a.713.713,0,0,0-.487-.192h-1.837a.712.712,0,0,0-.712.712v8.891a.713.713,0,0,1-.713.712h-6.784a.712.712,0,0,1-.712-.712V470.112a.712.712,0,0,1,.712-.712h15.466a.712.712,0,0,1,.487.192l3.926,3.673a.712.712,0,0,1,.226.52v4.279a.712.712,0,0,1-.159.448l-3.1,3.831a.713.713,0,0,0,0,.9l3.1,3.831a.714.714,0,0,1,.159.448v7.952a.712.712,0,0,1-.712.712h-6.8A.712.712,0,0,1-1459.731,495.472Zm-3.666-15.756h1.837a.712.712,0,0,0,.487-.192l1.116-1.045a.712.712,0,0,0,.226-.52v-.649a.713.713,0,0,0-.222-.516l-1.117-1.063a.713.713,0,0,0-.491-.2h-1.836a.712.712,0,0,0-.712.713V479A.712.712,0,0,0-1463.4,479.716Z" transform="translate(1472.318 -469.4)" fill="#fff"/>
      </g>
    </g>
    <g id="Group_563" data-name="Group 563" transform="translate(-2046.999 231.576)">
      <g id="Group_560" data-name="Group 560" transform="translate(65.851 30.536)">
        <path id="Path_1676" data-name="Path 1676" d="M-1660,384.287" transform="translate(1660 -384.287)" fill="#fff"/>
      </g>
      <path id="Path_1677" data-name="Path 1677" d="M-1660,398.853" transform="translate(1725.851 -365.404)" fill="#fff"/>
      <g id="Group_561" data-name="Group 561" transform="translate(0 84.201)">
        <path id="Path_1678" data-name="Path 1678" d="M-1748.48,656.667a6.173,6.173,0,0,0-3.511,1.092q.617-1.893,1.126-3.9a.956.956,0,0,0-.173-.822.957.957,0,0,0-.755-.369h-43.258c-.014,0-.028,0-.043,0a.982.982,0,0,0-.126.014c-.026,0-.052.009-.077.016a.917.917,0,0,0-.123.044c-.022.009-.044.016-.064.027a.94.94,0,0,0-.161.1l-.008.005a.955.955,0,0,0-.143.146l-.009.009c-.011.015-.018.032-.029.047a.953.953,0,0,0-.062.092c0,.009-.007.018-.011.027-.012.024-.02.049-.03.074a.939.939,0,0,0-.04.121c-.006.025-.01.05-.014.075a.911.911,0,0,0-.012.128c0,.025,0,.05,0,.075a.941.941,0,0,0,.018.134c0,.016,0,.032.007.048,1.869,7.409,4.9,13.713,8.776,18.231a22.686,22.686,0,0,0,6.429,5.329h-15.371a.956.956,0,0,0-.956.956.956.956,0,0,0,.956.956h45.447a.956.956,0,0,0,.956-.956.956.956,0,0,0-.956-.956h-15.371a22.69,22.69,0,0,0,6.429-5.329,36.862,36.862,0,0,0,5.086-7.926,6.219,6.219,0,0,0,6.074,4.923,6.216,6.216,0,0,0,6.209-6.209A6.216,6.216,0,0,0-1748.48,656.667Zm-8.141-2.087-14.411,10.718-20.179-10.718Zm-36.923.927,20.813,11.055-9.876,7.345C-1787.23,670.215-1791.125,663.791-1793.544,655.506Zm12.572,19.568,10.111-7.52,8.6,4.566c-3.345,3.4-7.173,5.3-11.156,5.3A13.979,13.979,0,0,1-1780.973,675.075Zm20.036-4.414-8.226-4.369,15.746-11.711h.384A42.365,42.365,0,0,1-1760.937,670.66Zm12.457-3.488a4.3,4.3,0,0,1-4.3-4.3,4.3,4.3,0,0,1,4.3-4.3,4.3,4.3,0,0,1,4.3,4.3A4.3,4.3,0,0,1-1748.48,667.173Z" transform="translate(1835.537 -652.667)" fill="#fff"/>
        <path id="Path_1679" data-name="Path 1679" d="M-1455.285,673.73h-28.992a.956.956,0,0,0-.956.956.956.956,0,0,0,.956.956h28.992a.956.956,0,0,0,.956-.956A.956.956,0,0,0-1455.285,673.73Z" transform="translate(1586.031 -669.518)" fill="#fff"/>
        <path id="Path_1680" data-name="Path 1680" d="M-1959.373,673.73h-28.992a.956.956,0,0,0-.956.956.956.956,0,0,0,.956.956h28.992a.956.956,0,0,0,.956-.956A.957.957,0,0,0-1959.373,673.73Z" transform="translate(1989.322 -669.518)" fill="#fff"/>
      </g>
      <g id="Group_562" data-name="Group 562" transform="translate(0)">
        <path id="Path_1681" data-name="Path 1681" d="M-1817.189,325.129a1.009,1.009,0,0,1,.662-.378,1.008,1.008,0,0,1,.677.349l.476.456a.3.3,0,0,0,.488,0l.933-.974a.312.312,0,0,0-.01-.5l-.545-.522a2.583,2.583,0,0,0-1.88-.834,2.674,2.674,0,0,0-1.843.936l-1.211,1.264a2.685,2.685,0,0,0-.869,1.881,2.6,2.6,0,0,0,.925,1.843l3.675,3.522a2.593,2.593,0,0,0,1.881.846,2.687,2.687,0,0,0,1.842-.948l1.211-1.264a2.672,2.672,0,0,0,.857-1.881,2.581,2.581,0,0,0-.914-1.843l-.545-.522a.312.312,0,0,0-.5.011l-.933.974a.305.305,0,0,0,.022.488l.475.456a1.01,1.01,0,0,1,.377.662,1.01,1.01,0,0,1-.349.677l-.755.788a.984.984,0,0,1-.651.366,1.01,1.01,0,0,1-.677-.349l-3.536-3.388a1.011,1.011,0,0,1-.378-.662.983.983,0,0,1,.338-.666Z" transform="translate(1854.106 -304.5)" fill="#fff"/>
        <path id="Path_1682" data-name="Path 1682" d="M-1742.68,278.957a.432.432,0,0,0-.572-.136l-1.985.788a.461.461,0,0,0-.323.491l1.2,9.905q.035.349.3.242l1.432-.568a.32.32,0,0,0,.19-.153.494.494,0,0,0,0-.285l-.234-1.807,2.91-1.155,1.069,1.476a.545.545,0,0,0,.187.211.315.315,0,0,0,.25-.022l1.432-.569q.269-.106.055-.385Zm-.233,6.812-.637-4.739.06-.024,2.786,3.887Z" transform="translate(1794.304 -269.333)" fill="#fff"/>
        <path id="Path_1683" data-name="Path 1683" d="M-1663.733,265.9l-5.12-.1a.3.3,0,0,0-.344.33l-.2,9.648a.3.3,0,0,0,.33.344l1.364.028a.3.3,0,0,0,.344-.33l.07-3.419q0-.176.2-.173l2.745.056q.337.007.344-.346l.022-1.076a.3.3,0,0,0-.33-.344l-2.745-.056a.17.17,0,0,1-.188-.2l.051-2.488c0-.118.068-.175.2-.173l3.226.066q.322.007.328-.331l.022-1.092Q-1663.412,265.9-1663.733,265.9Z" transform="translate(1733.368 -258.95)" fill="#fff"/>
        <path id="Path_1684" data-name="Path 1684" d="M-1601.775,284.539a.3.3,0,0,0-.181-.441l-2.532-1.061a.17.17,0,0,1-.1-.252l.961-2.3a.164.164,0,0,1,.246-.089l2.977,1.247a.291.291,0,0,0,.427-.187l.422-1.007a.291.291,0,0,0-.166-.435l-4.724-1.979a.3.3,0,0,0-.441.181l-3.728,8.9a.3.3,0,0,0,.181.441l1.259.527a.3.3,0,0,0,.441-.181l1.321-3.155a.164.164,0,0,1,.246-.088l2.532,1.061a.305.305,0,0,0,.448-.2Z" transform="translate(1684.775 -268.718)" fill="#fff"/>
        <path id="Path_1685" data-name="Path 1685" d="M-1548.258,321.3a.164.164,0,0,1,.261.012l2.37,2.376a.291.291,0,0,0,.466-.011l.773-.771a.291.291,0,0,0,.012-.466l-3.708-3.717a.3.3,0,0,0-.477,0l-6.833,6.814a.3.3,0,0,0,0,.477l3.708,3.718a.291.291,0,0,0,.465-.011l.773-.771a.291.291,0,0,0,.012-.466l-2.37-2.376a.164.164,0,0,1-.011-.261l1.581-1.576a.164.164,0,0,1,.261.012l1.939,1.944a.3.3,0,0,0,.477,0l.773-.771a.3.3,0,0,0,0-.477l-1.939-1.944a.163.163,0,0,1-.011-.261Z" transform="translate(1642.258 -301.2)" fill="#fff"/>
        <path id="Path_1686" data-name="Path 1686" d="M-1858.576,264.068h-18.52c-8.286-19.76-26.421-32.492-46.375-32.492s-38.089,12.732-46.375,32.492h-18.52a.956.956,0,0,0-.956.956.956.956,0,0,0,.956.956h43.49a.956.956,0,0,0,.956-.956.956.956,0,0,0-.956-.956h-22.892c8.124-18.625,25.367-30.58,44.3-30.58s36.172,11.955,44.3,30.58h-26.632a.956.956,0,0,0-.957.956.956.956,0,0,0,.957.956h47.23a.956.956,0,0,0,.957-.956A.956.956,0,0,0-1858.576,264.068Z" transform="translate(1989.322 -231.576)" fill="#fff"/>
      </g>
      <path id="Path_1687" data-name="Path 1687" d="M-1708.471,340.17a1.088,1.088,0,0,0-.7-.253,1.1,1.1,0,0,0-.193.017l-13.36,2.415a1.086,1.086,0,0,0-.894,1.07v10.342a4.091,4.091,0,0,0-1.931-.484,4.11,4.11,0,0,0-4.105,4.105,4.11,4.11,0,0,0,4.105,4.105,4.11,4.11,0,0,0,4.105-4.105v-8.629l11.186-2.022v5.218a4.093,4.093,0,0,0-1.931-.483,4.11,4.11,0,0,0-4.105,4.1,4.11,4.11,0,0,0,4.105,4.105,4.11,4.11,0,0,0,4.105-4.105V341A1.084,1.084,0,0,0-1708.471,340.17Zm-12.97,6.374v-2.217l11.186-2.021v2.217Zm9.255,7.1a1.933,1.933,0,0,1,1.931,1.931,1.933,1.933,0,0,1-1.931,1.931,1.933,1.933,0,0,1-1.931-1.931A1.933,1.933,0,0,1-1712.187,353.641Zm-13.36,1.811a1.933,1.933,0,0,1,1.931,1.931,1.933,1.933,0,0,1-1.931,1.931,1.933,1.933,0,0,1-1.931-1.931A1.933,1.933,0,0,1-1725.547,355.451Z" transform="translate(1781.576 -318.253)" fill="#fff"/>
    </g>
  </g>
</svg>
