<svg xmlns="http://www.w3.org/2000/svg" width="165.063" height="112.729" viewBox="0 0 165.063 112.729">
  <g id="Group_579" data-name="Group 579" transform="translate(-169.32 -340.322)">
    <path id="Path_3181" data-name="Path 3181" d="M447.575,453.792" transform="translate(-235.675 -96.106)" fill="#fff"/>
    <path id="Path_3182" data-name="Path 3182" d="M254.5,400.422a14.69,14.69,0,0,1-1.9-.136,11.829,11.829,0,0,1-3.864-1.242,11.978,11.978,0,0,1-1.77-1.14,12.863,12.863,0,0,1-1.553-1.445,13.9,13.9,0,0,1-2.332-3.534c-.149-.323-.288-.656-.415-1q-.1-.259-.184-.55c-.032-.108-.062-.213-.093-.342l-.049-.229-.032-.244a1.283,1.283,0,0,1-.009-.232h0a12.1,12.1,0,0,1,.193-2.294,9.747,9.747,0,0,1,1.938-4.321,10.207,10.207,0,0,1,3.7-2.864,13.434,13.434,0,0,1,4.179-1.155,16.418,16.418,0,0,1,1.915-.112,16.6,16.6,0,0,1,2.189.146,15.98,15.98,0,0,1,3.89,1,12.515,12.515,0,0,1,1.83.912,8.976,8.976,0,0,1,1.7,1.315,6.6,6.6,0,0,1,1.369,1.933,5.269,5.269,0,0,1,.388,1.223,5.177,5.177,0,0,1,.081.674l0,.107-.805.05.807.043,0,.321a8.432,8.432,0,0,1-.927,3.8,5.992,5.992,0,0,1-1.292,1.629,5.772,5.772,0,0,1-1.687,1.035,7.157,7.157,0,0,1-2.668.486c-.212,0-.419-.008-.622-.022a10.637,10.637,0,0,1-2.687-.566,10.34,10.34,0,0,1-3.743-2.221,5.221,5.221,0,0,1-1.071-1.418,2.923,2.923,0,0,1-.326-1.5,2.215,2.215,0,0,1,.309-.983,2.289,2.289,0,0,1,.156-.232l2.406-3.07q-.315.027-.625.069a9.5,9.5,0,0,0-2.751.8,5.71,5.71,0,0,0-2.011,1.556,5.076,5.076,0,0,0-1.018,2.256,7.92,7.92,0,0,0-.141,1.2c.027.095.051.173.078.251.076.223.162.445.257.663a10.012,10.012,0,0,0,1.5,2.446,7.886,7.886,0,0,0,4.519,2.707,10.946,10.946,0,0,0,1.33.184c.288.014.6.027.914.027.143,0,.287,0,.429-.01a16.065,16.065,0,0,0,2.7-.352,23.147,23.147,0,0,0,2.542-.7,38.11,38.11,0,0,0,4.415-1.806c1.269-.607,2.353-1.193,3.335-1.736.46-.254.869-.486,1.223-.69s.654-.375.892-.519l.766-.45.947,1.295-.653.587q-.331.295-.82.706l-.506.43-.612.489c-.711.563-1.813,1.414-3.2,2.324a34.019,34.019,0,0,1-4.55,2.53,23.8,23.8,0,0,1-2.852,1.092,18.312,18.312,0,0,1-3.3.716,14.768,14.768,0,0,1-1.81.113H254.5Zm-2-12.3-.041.1a.606.606,0,0,0-.027.269,1.036,1.036,0,0,0,.23.49,3.557,3.557,0,0,0,.8.729,8.564,8.564,0,0,0,3.07,1.227,8.356,8.356,0,0,0,1.613.168c.119,0,.239,0,.359-.009a4.328,4.328,0,0,0,1.818-.449,2.3,2.3,0,0,0,1.076-1.174,4.75,4.75,0,0,0,.3-2l-.019-.314h.006s-.029-.142-.038-.179a1.292,1.292,0,0,0-.117-.284,2.517,2.517,0,0,0-.571-.67,6.769,6.769,0,0,0-2.2-1.182,12.8,12.8,0,0,0-4.09-.655l-.2,0Z" transform="translate(-61.811 -33.249)" fill="#fff"/>
    <path id="Path_3183" data-name="Path 3183" d="M992.745,400.422a14.889,14.889,0,0,1-1.819-.114,18.323,18.323,0,0,1-3.294-.715,23.877,23.877,0,0,1-2.859-1.095,33.951,33.951,0,0,1-4.544-2.527c-1.388-.911-2.49-1.761-3.2-2.321l-.6-.475-.53-.449c-.322-.27-.6-.506-.814-.7l-.655-.588.948-1.295.756.443c.249.151.546.324.9.523s.769.439,1.228.693c.985.544,2.072,1.131,3.337,1.737a37.917,37.917,0,0,0,4.415,1.806,23.239,23.239,0,0,0,2.544.7,16.066,16.066,0,0,0,2.688.351c.155.007.3.01.442.01.313,0,.627-.013.94-.029a10.952,10.952,0,0,0,1.314-.184,7.886,7.886,0,0,0,4.512-2.709,10.025,10.025,0,0,0,1.494-2.443c.093-.217.181-.44.255-.659.03-.088.056-.173.079-.253a8.1,8.1,0,0,0-.141-1.207,5.072,5.072,0,0,0-1.015-2.251,5.712,5.712,0,0,0-2.016-1.559,9.469,9.469,0,0,0-2.755-.8c-.214-.029-.431-.053-.65-.072l2.449,3.092a2,2,0,0,1,.138.207,2.242,2.242,0,0,1,.313,1,2.92,2.92,0,0,1-.329,1.5,5.227,5.227,0,0,1-1.067,1.411,10.335,10.335,0,0,1-3.742,2.221,10.642,10.642,0,0,1-2.683.567c-.21.014-.417.022-.629.022a7.143,7.143,0,0,1-2.665-.485,5.767,5.767,0,0,1-1.693-1.038,5.991,5.991,0,0,1-1.289-1.625,8.424,8.424,0,0,1-.928-3.789l0-.34.808-.086h-.806l.006-.135a4.91,4.91,0,0,1,.077-.639,5.311,5.311,0,0,1,.391-1.234,6.574,6.574,0,0,1,1.366-1.926,8.969,8.969,0,0,1,1.707-1.318,12.526,12.526,0,0,1,1.829-.912,16,16,0,0,1,3.889-1,16.618,16.618,0,0,1,2.19-.146,16.428,16.428,0,0,1,1.915.112,13.457,13.457,0,0,1,4.182,1.156,10.229,10.229,0,0,1,3.7,2.867,9.751,9.751,0,0,1,1.935,4.32,11.91,11.91,0,0,1,.192,2.232h0a1.2,1.2,0,0,1-.02.377l-.043.259-.028.124c-.033.134-.062.237-.092.339-.022.075-.046.148-.069.219l-.119.48-.037-.037c-.115.308-.242.606-.377.9a13.877,13.877,0,0,1-2.327,3.527,12.787,12.787,0,0,1-1.555,1.447,11.836,11.836,0,0,1-5.633,2.383,14.729,14.729,0,0,1-1.9.136h-.014Zm-7.18-13.073a4.854,4.854,0,0,0,.287,2.116,2.3,2.3,0,0,0,1.071,1.177,4.331,4.331,0,0,0,1.822.453c.123.006.242.009.361.009h0a8.355,8.355,0,0,0,1.617-.169,8.551,8.551,0,0,0,3.068-1.228,3.531,3.531,0,0,0,.8-.726,1.034,1.034,0,0,0,.23-.486.606.606,0,0,0-.026-.274l-.029-.075-1.819-3.956c-.119,0-.238,0-.356,0a12.789,12.789,0,0,0-4.089.655,6.778,6.778,0,0,0-2.208,1.184,2.531,2.531,0,0,0-.564.659,1.322,1.322,0,0,0-.121.294,1.1,1.1,0,0,0-.024.111l-.008.044,0,.048,0,.056Z" transform="translate(-681.914 -33.249)" fill="#fff"/>
    <g id="Group_566" data-name="Group 566" transform="translate(268.211 394.784)">
      <path id="Path_3184" data-name="Path 3184" d="M822.792,696.867l-3.975-.637-.636,3.133,3.154.5c1.051.168,1.054.573.843,1.887s-1.277,7.982-1.377,8.607-.791,1.154-1.933,1.342-3.3.651-3.3.651l.069,3.144s3.469-.625,4.976-.99,2.9-.851,3.329-3.544,1.235-7.72,1.666-10.414A3.218,3.218,0,0,0,822.792,696.867Z" transform="translate(-815.564 -696.23)" fill="#fff"/>
    </g>
    <path id="Path_3185" data-name="Path 3185" d="M701.086,683.7c-1.13,3.015-.953,4.807.17,5.42a26.934,26.934,0,0,0,7.524,1.959,40.835,40.835,0,0,0,6.059.613,9.619,9.619,0,0,0,1.7-.127c1.258-.232,1.985-1.879,1.851-5.1s1.172-13.4,3.9-20.35l-9.284-1.485-9.285-1.485C704.152,670.607,702.216,680.686,701.086,683.7Zm7.079-16.269a51.96,51.96,0,0,1-1.114,11.941,63.948,63.948,0,0,0,2.883-11.658l9.474,1.516s-3.591,12.841-2.9,18.146a7.178,7.178,0,0,1-.948.043,39.915,39.915,0,0,1-6.1-.608c-5.247-.839-6.868-1.661-6.868-1.661,2.309-4.826,2.9-18.146,2.9-18.146Z" transform="translate(-449.746 -273.427)" fill="#fff"/>
    <g id="Group_567" data-name="Group 567" transform="translate(249.612 384.061)">
      <path id="Path_3186" data-name="Path 3186" d="M716.071,628.409h-.112s-1.315-2.254-3.451-2.254a4.776,4.776,0,0,0-3.433,1.881,3.179,3.179,0,0,0-1.686-.639c-.638,0-1.306.342-1.711,1.525a3.852,3.852,0,0,0-4.008-2.6q-.215,0-.444.015c-3.736.243-3.156,2.576-3.156,2.576a4.083,4.083,0,0,0-1.571-.348,2.245,2.245,0,0,0-2.265,1.771c-.9,2.825,1.343,3.7,1.895,5.382.669,2.039-.976,2.611-1.258,4.918a1.95,1.95,0,0,0,1.729,2.3,1.19,1.19,0,0,0,.3-.037,46.4,46.4,0,0,0,.634-12.044l19.608,3.137S721.352,628.41,716.071,628.409Z" transform="translate(-694.023 -626.156)" fill="#fff"/>
    </g>
    <g id="Group_568" data-name="Group 568" transform="translate(224.594 390.81)">
      <path id="Path_3187" data-name="Path 3187" d="M540.8,687.673c-.12-.01-2.951-.241-4.232-.423a3.872,3.872,0,0,1-3.7-3.251l-2.208-8.456a3.434,3.434,0,0,1,2.6-4.248l3.975-1.038,1.248,4.075s-3.452.9-3.481.913c.028.186.1.48.139.609l1.825,6.989c.019.075.3.306.975.352.964.064,2.74.266,2.815.275l.663.076.315,4.2Z" transform="translate(-530.534 -670.257)" fill="#fff"/>
    </g>
    <path id="Path_3188" data-name="Path 3188" d="M578.949,640.2l-7.539,1.968-7.539,1.968a55.3,55.3,0,0,1,4.848,16.473c.147,2.665.879,3.966,1.935,4.057.145.013.3.018.472.018a26.317,26.317,0,0,0,5.89-1.041,22.405,22.405,0,0,0,6.049-2.217c.877-.6.879-2.089-.294-4.485A55.247,55.247,0,0,1,578.949,640.2Zm-2.837,19.978a25.083,25.083,0,0,1-5.686,1.031c-.053,0-.079,0-.079,0,.143-4.43-3.847-14.735-3.847-14.735l7.693-2.008a52.95,52.95,0,0,0,3.312,9.384,43.011,43.011,0,0,1-1.875-9.76l2.167-.566s1.556,10.94,3.847,14.735A22.7,22.7,0,0,1,576.112,660.177Z" transform="translate(-334.176 -253.989)" fill="#fff"/>
    <g id="Group_569" data-name="Group 569" transform="translate(227.862 381.91)">
      <path id="Path_3189" data-name="Path 3189" d="M570.982,619.429c.32-1.428,2.1-2.334,1.132-4.591a1.859,1.859,0,0,0-1.781-1.291,3.282,3.282,0,0,0-1.5.424s.278-1.876-2.589-1.876c-.071,0-.145,0-.22,0-3.1.1-3.465,2.493-3.465,2.493-.391-.863-.909-1.128-1.4-1.128a2.514,2.514,0,0,0-1.475.669,4.188,4.188,0,0,0-2.736-1.288c-1.925,0-2.913,2.147-2.913,2.147-4.5.372-.524,4.692-.524,4.692l15.923-4.157a38.433,38.433,0,0,0,1.487,9.883.946.946,0,0,0,.149.012,1.6,1.6,0,0,0,1.34-2.038C572,621.5,570.593,621.163,570.982,619.429Z" transform="translate(-551.891 -612.095)" fill="#fff"/>
    </g>
    <g id="Group_570" data-name="Group 570" transform="translate(208.801 374.49)">
      <path id="Path_3190" data-name="Path 3190" d="M439.082,568h-.187a.534.534,0,0,1-.124-.005s.891-2.252.221-3.289a2.332,2.332,0,0,0-2.071-1.1,6.171,6.171,0,0,0-3.517,1.436c-2.124,1.689-4.129,3.447-6.082,5.332l1.268,1.27c.525-.525.791-.784,1.329-1.289l5.423,5.774c-.465.438-.7.661-1.15,1.116l1.269,1.269a49.848,49.848,0,0,1,5.114-4.463c1.565-1.125,3.009-3.219,1.814-5.124C441.834,568.039,439.854,568,439.082,568Zm-7.259.639c1-.86,1.506-1.274,2.538-2.07a3.336,3.336,0,0,1,1.9-.851,1.183,1.183,0,0,1,1.009.539c.554.79.289,1.718-1.037,2.74-.98.755-1.462,1.147-2.407,1.963Zm7.627,4.012c-1,.762-1.495,1.161-2.459,1.992l-1.976-2.3c1.086-.937,1.642-1.385,2.772-2.238a2.925,2.925,0,0,1,1.657-.711,1.166,1.166,0,0,1,1,.546C440.953,570.684,440.739,571.671,439.45,572.651Z" transform="translate(-427.323 -563.605)" fill="#fff"/>
    </g>
    <g id="Group_571" data-name="Group 571" transform="translate(223.59 368.031)">
      <path id="Path_3191" data-name="Path 3191" d="M537.046,528.8a81.276,81.276,0,0,0-8.084-7.406q-2.547,1.052-4.99,2.333l.833,1.59c.727-.381,1.093-.564,1.829-.918a76.384,76.384,0,0,0,.008,8.951c-.414.24-.62.361-1.03.611l.933,1.533a48.933,48.933,0,0,1,4.314-2.343l-.777-1.619c-.58.279-.869.424-1.443.721-.032-.754-.042-1.133-.053-1.892a52.3,52.3,0,0,1,5.008-2.186c.554.523.826.787,1.36,1.322-.66.236-.989.36-1.642.621.266.667.4,1,.663,1.667a49.087,49.087,0,0,1,4.849-1.639c-.2-.691-.292-1.037-.487-1.728C537.818,528.566,537.56,528.643,537.046,528.8Zm-8.452-.365c.033-1.729.077-2.6.219-4.346,1.386,1.08,2.057,1.637,3.35,2.787C530.718,527.448,530,527.759,528.593,528.437Z" transform="translate(-523.971 -521.396)" fill="#fff"/>
    </g>
    <g id="Group_572" data-name="Group 572" transform="translate(236.055 364.098)">
      <path id="Path_3192" data-name="Path 3192" d="M615.406,502.994c.089.807.133,1.211.222,2.019-1.684.184-2.523.31-4.19.634q-.754-3.873-1.508-7.743c1-.194,1.5-.28,2.51-.431-.107-.71-.16-1.064-.267-1.774a60.882,60.882,0,0,0-6.745,1.4l.466,1.733c.67-.179,1.005-.264,1.678-.423q.916,3.854,1.831,7.709c-.583.138-.874.211-1.453.366.186.694.279,1.04.465,1.733a62.7,62.7,0,0,1,9.345-1.561c-.108-1.54-.163-2.309-.271-3.849C616.655,502.865,616.238,502.9,615.406,502.994Z" transform="translate(-605.43 -495.698)" fill="#fff"/>
    </g>
    <g id="Group_573" data-name="Group 573" transform="translate(249.06 363.425)">
      <path id="Path_3193" data-name="Path 3193" d="M698.533,493.331c.694.063,1.04.1,1.733.182a52.366,52.366,0,0,0-5.709,3.726c.041-1.652.061-2.477.1-4.129.7.017,1.044.031,1.74.068.038-.717.058-1.075.1-1.792q-1.642-.088-3.286-.088-1.4,0-2.792.064c.033.717.049,1.076.082,1.793.7-.032,1.055-.044,1.759-.055q.064,3.96.128,7.92c-.609.01-.914.019-1.523.047.033.718.049,1.076.082,1.793q1.13-.052,2.261-.052,1.334,0,2.668.072c.039-.717.058-1.075.1-1.793-.6-.032-.9-.044-1.506-.058.013-.521.019-.781.031-1.3.987-.822,1.5-1.223,2.563-2,1.039,1.444,1.523,2.18,2.417,3.668-.517-.064-.776-.092-1.293-.142-.07.714-.106,1.072-.175,1.786,1.962.231,3.869.531,5.806.914.155-.7.232-1.052.386-1.752-.87-.191-1.307-.277-2.184-.429a53.556,53.556,0,0,0-3.22-5.238q2.117-1.406,4.366-2.6c.823.139,1.233.216,2.051.385.146-.7.219-1.054.365-1.757a61.373,61.373,0,0,0-6.883-1.017C698.63,492.26,698.6,492.617,698.533,493.331Z" transform="translate(-690.416 -491.298)" fill="#fff"/>
    </g>
    <g id="Group_574" data-name="Group 574" transform="translate(262.965 365.956)">
      <path id="Path_3194" data-name="Path 3194" d="M792.743,509.631q-2.537-1.011-5.159-1.791l-.513,1.72c.773.23,1.158.352,1.925.608a74.206,74.206,0,0,0-6.176,6.437c-.453-.115-.679-.169-1.134-.274-.161.7-.242,1.049-.4,1.749a41.054,41.054,0,0,1,4.635,1.306l.572-1.7c-.6-.2-.908-.3-1.517-.482.5-.564.755-.844,1.272-1.4a52.653,52.653,0,0,1,5.093,1.915c.033.761.044,1.141.057,1.9-.643-.293-.967-.433-1.617-.7-.274.662-.413.994-.687,1.657a49.123,49.123,0,0,1,4.666,2.228c.343-.631.513-.946.857-1.577-.481-.262-.724-.389-1.21-.638A84.027,84.027,0,0,0,792.743,509.631Zm-5.158,4.8c1.222-1.219,1.858-1.813,3.175-2.968.237,1.738.328,2.606.454,4.331C789.778,515.193,789.051,514.92,787.585,514.428Z" transform="translate(-781.282 -507.84)" fill="#fff"/>
    </g>
    <path id="Path_3195" data-name="Path 3195" d="M879.447,549.171c.565.458.844.692,1.4,1.169l-4.088,4.746a69.232,69.232,0,0,0-1.646-11.262c-1.208-.775-1.823-1.143-3.065-1.841l-.878,1.566c.617.346.925.525,1.533.891q-2.04,3.4-4.079,6.793c-.528-.318-.793-.471-1.327-.772l-.878,1.566a49.335,49.335,0,0,1,4.26,2.687c.412-.588.619-.881,1.031-1.468-.5-.354-.756-.527-1.266-.864q1.635-2.48,3.271-4.961a59.011,59.011,0,0,1,1.137,10.586c.5.442.751.667,1.241,1.129l6.655-7.079c.531.5.793.755,1.312,1.273l1.269-1.27a61.905,61.905,0,0,0-4.753-4.283C880.125,548.334,879.9,548.613,879.447,549.171Z" transform="translate(-590.425 -170.802)" fill="#fff"/>
    <path id="Path_3196" data-name="Path 3196" d="M579.356,859.994c-1.949-.408-3.859-.868-5.78-1.393-.2.7-.3,1.047-.507,1.745.594.173.893.256,1.49.414q-1.029,3.878-2.057,7.756c-.67-.178-1-.271-1.67-.464-.2.7-.3,1.047-.507,1.745q3.088.9,6.245,1.531c.142-.714.215-1.069.357-1.782-.835-.167-1.251-.257-2.082-.449.144-.621.215-.932.359-1.554.9.209,1.358.307,2.267.485a6.735,6.735,0,0,0,1.4.145c2.17,0,4.361-1.047,4.636-3.463C583.79,862.176,581.68,860.391,579.356,859.994Zm1.987,4.428a2.265,2.265,0,0,1-2.462,1.885,4.259,4.259,0,0,1-.8-.081c-.983-.19-1.475-.3-2.453-.52l1-4.344c.916.212,1.376.308,2.3.487C580.561,862.166,581.533,863.167,581.344,864.422Z" transform="translate(-339.64 -438.97)" fill="#fff"/>
    <g id="Group_575" data-name="Group 575" transform="translate(244.793 421.813)">
      <path id="Path_3197" data-name="Path 3197" d="M674.748,874.845c.611-.048.916-.075,1.526-.137-.074-.723-.11-1.085-.184-1.808q-2.508.255-5.03.313c.017.727.025,1.09.042,1.817.613-.014.919-.024,1.531-.053.086,1.863.129,2.8.215,4.659a3.366,3.366,0,0,1-3.466,3.59h-.013a3.346,3.346,0,0,1-3.419-3.608c.1-1.863.144-2.795.24-4.657.605.031.908.043,1.513.061.021-.727.031-1.09.052-1.817q-2.52-.071-5.029-.341l-.195,1.806c.61.066.916.1,1.526.146-.156,1.859-.234,2.789-.391,4.648-.344,3.443,2.453,5.674,5.7,5.682h.021c3.24,0,6.054-2.2,5.73-5.65C674.967,877.635,674.893,876.7,674.748,874.845Z" transform="translate(-662.529 -872.862)" fill="#fff"/>
    </g>
    <g id="Group_576" data-name="Group 576" transform="translate(259.078 420.555)">
      <path id="Path_3198" data-name="Path 3198" d="M765.721,869.774s1.48-1.836,1.139-3.035a3.116,3.116,0,0,0-3.269-2.1,5.5,5.5,0,0,0-1.383.179,64.086,64.086,0,0,1-6.326,1.038c.082.722.123,1.084.2,1.806.61-.069.915-.107,1.523-.19q.543,3.975,1.088,7.95c-.682.094-1.024.136-1.707.214.082.723.123,1.083.2,1.806,2.6-.331,5.164-.757,7.735-1.284,1.982-.386,4.7-1.9,4-4.342C768.56,870.552,765.735,869.821,765.721,869.774Zm-5.993-2.624c1.092-.186,1.637-.291,2.723-.523a4.577,4.577,0,0,1,.942-.112,1.39,1.39,0,0,1,1.548,1.067c.236.949-.3,1.751-1.842,2.08-1.138.243-1.707.353-2.851.547C760.039,868.986,759.936,868.374,759.728,867.151Zm4.753,7.248c-1.358.3-2.04.429-3.407.661-.206-1.21-.309-1.815-.514-3.026,1.394-.237,2.089-.372,3.473-.68a4.952,4.952,0,0,1,1.056-.132c.84,0,1.361.326,1.531.995C766.846,873.1,766.227,874.017,764.481,874.4Z" transform="translate(-755.882 -864.642)" fill="#fff"/>
    </g>
    <path id="Path_3199" data-name="Path 3199" d="M329.7,356.3c0-8.811-8.278-15.978-18.452-15.978-9.964,0-18.109,6.873-18.442,15.432-1.816-1.068-3.524-2.123-5.2-3.156-7.166-4.423-13.934-8.6-25.285-11.18l-1.808-.411-2.93,7.322,1.337,1c1.14.851,2.238,2.34,2.123,2.707-.006.016-.9,1.689-9.19,1.949-8.283-.26-9.183-1.933-9.189-1.949-.107-.336.843-1.742,2.122-2.707l1.337-1-2.93-7.322-1.808.411c-11.351,2.58-18.119,6.757-25.285,11.18-1.674,1.033-3.382,2.088-5.2,3.156-.335-8.558-8.478-15.432-18.442-15.432-10.175,0-18.452,7.167-18.452,15.978a14.4,14.4,0,0,0,2.724,8.369H169.32v37.474l2.681.905-2.681.906v37.473h12.853a17.459,17.459,0,0,0,8.116,9.867,16.218,16.218,0,0,0,7.565,1.756,29.16,29.16,0,0,0,11.275-2.622c18.951-8.055,39.819-8.339,42.42-8.339l.269,0,.033-2.162.033,2.162h.26c2.564,0,23.457.275,42.43,8.339a29.158,29.158,0,0,0,11.276,2.622,16.214,16.214,0,0,0,7.565-1.757,17.459,17.459,0,0,0,8.116-9.867h12.853V403.954l-2.68-.906,2.68-.905V364.669h-7.412A14.4,14.4,0,0,0,329.7,356.3Zm.345,12.711v30.016l-11.913,4.022,11.913,4.022v30.015H318.154l-.371,1.712c-.054.246-1.362,6.051-6.364,8.642a11.981,11.981,0,0,1-5.585,1.268,24.9,24.9,0,0,1-9.561-2.275c-19.559-8.313-40.387-8.685-43.951-8.685-.23,0-.389,0-.47,0s-.246,0-.485,0c-3.611,0-24.405.385-43.936,8.685a24.9,24.9,0,0,1-9.561,2.275,11.979,11.979,0,0,1-5.586-1.268c-5-2.591-6.311-8.4-6.364-8.642l-.37-1.712H173.662V407.07l11.913-4.022-11.913-4.022V369.011h15.03l-5.48-3.934a10.909,10.909,0,0,1-4.862-8.777c0-6.416,6.33-11.636,14.111-11.636s14.11,5.219,14.11,11.636a9.709,9.709,0,0,1-.425,2.836l-1.552,5.084,4.668-2.543c3.39-1.847,6.3-3.645,9.119-5.383,6.734-4.156,12.6-7.779,22.167-10.209l.352.877c-1.4,1.375-3.2,3.762-2.377,6.377.995,3.157,5.21,4.742,13.265,4.986l.065,0,.066,0c8.055-.245,12.27-1.83,13.264-4.986.825-2.615-.98-5-2.377-6.377l.352-.877c9.563,2.429,15.432,6.052,22.167,10.209,2.817,1.738,5.73,3.536,9.12,5.383l4.667,2.543-1.552-5.084a9.709,9.709,0,0,1-.425-2.836c0-6.416,6.33-11.636,14.111-11.636s14.11,5.219,14.11,11.636a10.906,10.906,0,0,1-4.863,8.777l-5.479,3.934Z" transform="translate(0 0)" fill="#fff"/>
    <g id="Group_577" data-name="Group 577" transform="translate(202.792 395.047)">
      <path id="Path_3200" data-name="Path 3200" d="M395.315,697.948l-1.713,5.236h-5.545l4.486,3.236-1.713,5.236,4.485-3.235,4.485,3.235-1.713-5.236,4.486-3.236h-5.545Z" transform="translate(-388.056 -697.948)" fill="#fff"/>
      <path id="Path_3201" data-name="Path 3201" d="M943.371,703.184l-1.713-5.236-1.712,5.236H934.4l4.486,3.236-1.713,5.236,4.485-3.235,4.486,3.235-1.713-5.236,4.486-3.236Z" transform="translate(-850.797 -697.948)" fill="#fff"/>
    </g>
    <g id="Group_578" data-name="Group 578" transform="translate(296.48 438.908)">
      <path id="Path_3202" data-name="Path 3202" d="M1003.31,988.866h-3.01v-.382l.012-.006,1.395-1.37c.518-.5.728-.839.728-1.2a.672.672,0,0,0-.716-.7.686.686,0,0,0-.74.7h-.678a1.325,1.325,0,0,1,1.444-1.333,1.31,1.31,0,0,1,1.431,1.308,2.208,2.208,0,0,1-.875,1.579l-.765.746h1.776Z" transform="translate(-1000.3 -984.578)" fill="#fff"/>
      <path id="Path_3203" data-name="Path 3203" d="M1027.059,986.769a1.909,1.909,0,1,1-1.888-2.191A1.942,1.942,0,0,1,1027.059,986.769Zm-.753,0c0-.851-.389-1.512-1.129-1.512s-1.136.66-1.136,1.512.389,1.512,1.136,1.512S1026.307,987.62,1026.307,986.769Z" transform="translate(-1019.766 -984.578)" fill="#fff"/>
      <path id="Path_3204" data-name="Path 3204" d="M1054.426,989.379h-2.875v-.654h1.1v-2.752l-1.049.334v-.629l1.364-.494h.426v3.542h1.031Z" transform="translate(-1043.708 -985.09)" fill="#fff"/>
      <path id="Path_3205" data-name="Path 3205" d="M1075.237,989.379h-2.874v-.654h1.1v-2.752l-1.048.334v-.629l1.363-.494h.426v3.542h1.031Z" transform="translate(-1061.336 -985.09)" fill="#fff"/>
    </g>
    <text id="sa_Vama_od" data-name="sa Vama od" transform="translate(294.765 436.219)" fill="#fff" font-size="1" font-family="CourierNewPS-BoldMT, Courier New" font-weight="700"><tspan x="0" y="0">sa</tspan><tspan y="0" letter-spacing="-0.2em"> </tspan><tspan y="0">Vama</tspan><tspan y="0" letter-spacing="-0.2em"> </tspan><tspan y="0">od</tspan></text>
  </g>
</svg>
