<svg xmlns="http://www.w3.org/2000/svg" width="176.325" height="177.589" viewBox="0 0 176.325 177.589">
  <g id="Group_550" data-name="Group 550" transform="translate(-51.432 -154.934)">
    <path id="Path_1653" data-name="Path 1653" d="M139.9,208.61l1.052,1.362a9.071,9.071,0,0,0-.82.4q-.175.1-.3.175c-.084.054-.193.123-.327.212a3.4,3.4,0,0,0-.856.878,1.168,1.168,0,0,0,.025,1.278,6.741,6.741,0,0,0,1.831,1.935l2.4-4.055.848,1.207a1.011,1.011,0,0,0-.77.071l-1.884,3.135a4.322,4.322,0,0,0,.969.415,7.2,7.2,0,0,0,1.234.253,3.952,3.952,0,0,0,1.595-.061,4.507,4.507,0,0,0,.691-.294,4.335,4.335,0,0,0,.676-.491,15.056,15.056,0,0,0,1.488-1.544l.555,1.958a5.654,5.654,0,0,1-2.32,1.273,6.7,6.7,0,0,1-2.653.14,7.374,7.374,0,0,1-2.729-.907,6.255,6.255,0,0,1-1.012-.766,8.22,8.22,0,0,1-1.246-1.351,2.774,2.774,0,0,1-.511-1.416,2.716,2.716,0,0,1,.445-1.619,1.746,1.746,0,0,1,.138-.2,2.374,2.374,0,0,1,.185-.2c.079-.074.144-.134.2-.18a2.39,2.39,0,0,1,.226-.159l.419-.341a1.734,1.734,0,0,0,.295-.365,1.272,1.272,0,0,0,.164-.739m4.628-7.2.93,1.488-.536-.18c-.058-.018-.119-.039-.188-.062a1.807,1.807,0,0,0-.247-.058.51.51,0,0,0-.57.169l-.518.688,8.514,6.416-.861,1.143-8.515-6.416-.513.681c-.186.247,0,.733.548,1.453l-1.66-.519Zm13.883,1.225-1.026,1.026-4-4-2.623,1.762,4.433,4.433-1.031,1.031-7.769-7.769,1.031-1.031,2.864,2.864,2.634-1.752-3.305-3.3,1.026-1.026Zm2-9.126a9.1,9.1,0,0,1,.709.992c.111.178.206.34.285.482s.158.318.244.516a5.206,5.206,0,0,1,.316.963,4.815,4.815,0,0,1,.114,1.022,6.472,6.472,0,0,1-.414,2.245,4.732,4.732,0,0,1-1.779.266,4.082,4.082,0,0,1-1.559-.415,5.569,5.569,0,0,1-.7-.414,7.545,7.545,0,0,1-.671-.52,11.569,11.569,0,0,1-1.25-1.328,5.66,5.66,0,0,1-.593-.911c-.079-.146-.153-.29-.215-.431s-.139-.33-.227-.565a6.1,6.1,0,0,1-.432-2.051,4.987,4.987,0,0,1,.365-2.053,3,3,0,0,1,1.615-.372,4.179,4.179,0,0,1,1.587.422,6.64,6.64,0,0,1,1.433.954A9.4,9.4,0,0,1,160.41,193.512Zm.146,1.617a8.442,8.442,0,0,0-1.267-1.231,6.63,6.63,0,0,0-2.188-1.208,3.245,3.245,0,0,0-2.275.085,4.042,4.042,0,0,0,.168,1.713,4.784,4.784,0,0,0,.835,1.5,10.091,10.091,0,0,0,1.073,1.1,5.451,5.451,0,0,0,2.2,1.316,3.042,3.042,0,0,0,2.348-.226A3.59,3.59,0,0,0,160.556,195.128Zm9.587-13.374.132,1.7a8.118,8.118,0,0,0-1.673-.079,4.089,4.089,0,0,0-1.464.425,1.362,1.362,0,0,0-.4,1.035,5.138,5.138,0,0,0,.148,1.362c.061.235.13.471.213.705a5.788,5.788,0,0,0,.266.65l.175.358a6.335,6.335,0,0,0,2.825,2.429,4.3,4.3,0,0,0,3.677-.263l-.6,1.93a6.066,6.066,0,0,1-3.889-.545,6.566,6.566,0,0,1-2.774-3.076,6.737,6.737,0,0,1-.532-1.587,5.871,5.871,0,0,1-.1-1.7,3.625,3.625,0,0,1,.459-1.506,2.514,2.514,0,0,1,1.1-1.016,1.853,1.853,0,0,1,.558-.1.373.373,0,0,1,.087-.007c.024,0,.067.009.124.016l.241.029a1.422,1.422,0,0,0,.389.022,1.128,1.128,0,0,0,.392-.123A1.584,1.584,0,0,0,170.144,181.754Zm7.767-3.207-.04,1.721a8.828,8.828,0,0,0-.886-.209c-.131-.023-.246-.042-.346-.056s-.227-.025-.387-.04a3.412,3.412,0,0,0-1.217.143,1.17,1.17,0,0,0-.785,1.01,6.752,6.752,0,0,0,.205,2.656l4.418-1.64-.1,1.471a1.011,1.011,0,0,0-.643-.429l-3.437,1.251a4.328,4.328,0,0,0,.491.932,7.175,7.175,0,0,0,.8.972,3.949,3.949,0,0,0,1.278.957,4.5,4.5,0,0,0,.722.206,4.331,4.331,0,0,0,.834.044,15.1,15.1,0,0,0,2.128-.263l-.8,1.871a5.654,5.654,0,0,1-2.6-.471,6.7,6.7,0,0,1-2.15-1.56,7.377,7.377,0,0,1-1.55-2.422,6.257,6.257,0,0,1-.3-1.232,8.2,8.2,0,0,1-.119-1.834,2.776,2.776,0,0,1,.494-1.422,2.719,2.719,0,0,1,1.364-.979,1.8,1.8,0,0,1,.233-.069,2.518,2.518,0,0,1,.269-.037c.109-.008.2-.013.266-.015a2.429,2.429,0,0,1,.276.018l.54,0a1.73,1.73,0,0,0,.459-.1A1.271,1.271,0,0,0,177.911,178.547Zm11.611,8.059-1.452.309-4.492-8.946a6.151,6.151,0,0,0-.569,1.12,5.451,5.451,0,0,0-.367,2.268,7.566,7.566,0,0,0,.161,1.273,14.961,14.961,0,0,0,2.115,4.953l-1.274.271-.735-1.48-.335-.725q-.15-.336-.315-.745l-.239-.7-.181-.7a9.256,9.256,0,0,1-.216-1.778,4.935,4.935,0,0,1,.044-.8,4.791,4.791,0,0,1,.172-.79,6.475,6.475,0,0,1,.279-.75,7.531,7.531,0,0,1,.435-.8,5.787,5.787,0,0,1,.811-1.037l-.388-.785,1.5-.319Zm6.692-6.673a9.176,9.176,0,0,1,.075,1.217c0,.209-.005.4-.013.56s-.034.353-.067.567a5.214,5.214,0,0,1-.242.984,4.8,4.8,0,0,1-.445.927,6.471,6.471,0,0,1-1.54,1.685,4.727,4.727,0,0,1-1.65-.718,4.078,4.078,0,0,1-1.1-1.178,5.521,5.521,0,0,1-.374-.721,7.492,7.492,0,0,1-.293-.8,11.578,11.578,0,0,1-.356-1.788,5.628,5.628,0,0,1-.02-1.087c.01-.165.024-.327.047-.479s.057-.353.106-.6a6.1,6.1,0,0,1,.721-1.968,4.987,4.987,0,0,1,1.4-1.548,3.006,3.006,0,0,1,1.567.541,4.189,4.189,0,0,1,1.122,1.2,6.651,6.651,0,0,1,.71,1.568A9.489,9.489,0,0,1,196.213,179.934Zm-.733,1.448a8.448,8.448,0,0,0-.422-1.716,6.627,6.627,0,0,0-1.215-2.184,3.245,3.245,0,0,0-1.974-1.133,4.04,4.04,0,0,0-.765,1.542,4.777,4.777,0,0,0-.088,1.716,10.045,10.045,0,0,0,.328,1.5,5.451,5.451,0,0,0,1.171,2.284,3.043,3.043,0,0,0,2.111,1.053A3.592,3.592,0,0,0,195.48,181.382Zm14.772-6.238-.738,1.541a8.1,8.1,0,0,0-1.409-.9,4.094,4.094,0,0,0-1.48-.364,1.361,1.361,0,0,0-.866.7,5.125,5.125,0,0,0-.554,1.253c-.065.234-.123.473-.168.718a5.7,5.7,0,0,0-.095.7l-.028.4a6.334,6.334,0,0,0,1.232,3.516,4.3,4.3,0,0,0,3.316,1.611l-1.484,1.372a6.067,6.067,0,0,1-3.1-2.416,6.567,6.567,0,0,1-.864-4.051,6.706,6.706,0,0,1,.332-1.641,5.884,5.884,0,0,1,.759-1.519,3.62,3.62,0,0,1,1.151-1.076,2.511,2.511,0,0,1,1.46-.33,1.84,1.84,0,0,1,.534.188.384.384,0,0,1,.079.038c.02.013.054.04.1.076l.195.145a1.405,1.405,0,0,0,.326.214,1.122,1.122,0,0,0,.4.09A1.584,1.584,0,0,0,210.252,175.144Zm8.775,1.314-.955,1.471-.063-.562c-.008-.06-.015-.124-.024-.2a1.783,1.783,0,0,0-.051-.249.51.51,0,0,0-.394-.445l-.842-.179-2.217,10.429-1.4-.3L215.3,176l-.834-.177c-.3-.064-.666.306-1.085,1.11l-.231-1.723Zm5.555,13.087-1.354-.437.136-2.172-4.463.767.119-1.746.062-.679.09-.757c.046-.274.1-.523.148-.743s.114-.452.19-.685a8.272,8.272,0,0,1,.782-1.754,6.793,6.793,0,0,1,1.226-1.451,5.546,5.546,0,0,1,2.292-1.282l.088-.832,1.36.442Zm-1.175-3.3.374-7.168a5.807,5.807,0,0,0-2.359,2.251,7.1,7.1,0,0,0-.651,1.427l-.175.612a1.731,1.731,0,0,0-.065.257c-.014.084-.033.208-.053.368-.072.455-.122.9-.15,1.354l-.1,1.5ZM231.2,192.6l-1.3-.636,2.482-5.088-2.52-1.906L227.1,190.6l-1.311-.639,4.817-9.876,1.311.639-1.776,3.64,2.514,1.92,2.049-4.2,1.3.636Zm6.633,4.033-1.277-.767,3.954-6.581-4.294.694-2.508,4.176-1.29-.775,5.659-9.418,1.29.775-2.821,4.7,4.255-.63,1.415-2.354,1.276.767Zm8.887,7.651-7.824-7.045,7.352-8.166,1.04.937-6.905,7.669,2.329,2.1,6.905-7.67,1.051.947-6.905,7.669,2.358,2.123,6.905-7.669,1.046.942Zm5.145,6.107-.957-1.141,5.881-4.935-4.286-.742-3.732,3.132-.967-1.153,8.417-7.063.967,1.152-4.2,3.521,4.228.79,2.1-1.765.957,1.141Zm5.187,8.259-.717-1.194,1.008-.605a17.4,17.4,0,0,0,2.375-1.663,3.993,3.993,0,0,0,1.252-1.86,2.641,2.641,0,0,0-.413-2.076l-5.841,3.51-.725-1.206,9.138-5.491-.512-.852c-.1-.169-.311-.245-.632-.231a4.1,4.1,0,0,0-.989.165l1.172-1.315,3.142,5.228-1.693.448a3.489,3.489,0,0,0,.592-.782.71.71,0,0,0,.088-.717l-.444-.738-2.927,1.759a11.749,11.749,0,0,1,.543,1.465c.056.2.1.4.131.589a3.243,3.243,0,0,1,.04.566,2.667,2.667,0,0,1-.263,1.1,6.285,6.285,0,0,1-.856,1.274,8.251,8.251,0,0,1-1.177,1.154l-.671.472-.858.542Zm3.068,7.265-.582-1.371,7.067-3-3.881-1.962-4.484,1.9-.588-1.385,10.115-4.293.588,1.384-5.042,2.141,3.813,1.991,2.528-1.073.582,1.37Z" transform="translate(-53.096 -10.265)" fill="#fff"/>
    <path id="Path_1654" data-name="Path 1654" d="M68.524,401.229,53.922,408a13.886,13.886,0,0,0-1.552,4.91,2.127,2.127,0,0,0,.963,1.4l43.458,4.455A16.206,16.206,0,0,0,98.4,412.92l-12.79-11.472-.465.585,5.946,9.531-29.411-3.045,7.262-6.959-.422-.331" transform="translate(-0.577 -149.531)" fill="#fff" fill-rule="evenodd"/>
    <path id="Path_1655" data-name="Path 1655" d="M115.626,213.233a75.558,75.558,0,0,1,72.954-55.3c41.763,0,75.632,33.638,75.632,75.117,0,41.149-33.36,74.649-74.782,75.108" transform="translate(-39.454)" fill="none" stroke="#fff" stroke-linecap="round" stroke-miterlimit="2.414" stroke-width="6"/>
    <path id="Path_1656" data-name="Path 1656" d="M266.685,252.24l12.886-25.263,12.716,25.432a49.2,49.2,0,0,0-25.6-.17" transform="translate(-132.297 -42.434)" fill="#fff" fill-rule="evenodd"/>
    <path id="Path_1657" data-name="Path 1657" d="M191.015,347.328l10.342-21.617,7.63,2.882,8.647-11.868,12.292,7.291.255,2.8,5.426-5,6.612,4.747,2.543-3.391,23.483-2.628L280.706,341.9l-3.984,2.543-10.936-17.039-7.715,18.4-25.686,1.441,7.968-16.192-9.155.085.509,7.46-11.614-.763-2.119-13.649-5.086,6.612,3.476,2.289,3.475,17.8-14.75-3.221-2.713-11.953-7.036,13.563-4.323-1.949" transform="translate(-85.789 -97.594)" fill="#fff" fill-rule="evenodd"/>
    <path id="Path_1658" data-name="Path 1658" d="M316.054,308.624V295.547a6.1,6.1,0,0,0-5.259,0V308.54s5.259-.043,5.259.085" transform="translate(-159.407 -84.213)" fill="#fff" fill-rule="evenodd"/>
    <path id="Path_1659" data-name="Path 1659" d="M388.64,462.345a8.011,8.011,0,1,1-8.011,8.011,8.012,8.012,0,0,1,8.011-8.011" transform="translate(-202.328 -187.094)" fill="#fff" fill-rule="evenodd"/>
    <path id="Path_1660" data-name="Path 1660" d="M252.656,430.213l.309-.765L195.2,409.4a5.269,5.269,0,0,0-1.722-.3,8.622,8.622,0,0,0-2.072.3l-55.824,13.86.68.348,55.1-8.847a8.531,8.531,0,0,1,2.75-.118,13.334,13.334,0,0,1,1.4.224l57.138,15.344" transform="translate(-51.72 -154.368)" fill="#fff" fill-rule="evenodd"/>
    <path id="Path_1661" data-name="Path 1661" d="M263.378,477.665c-7.932-25.864-50.559-33.2-72.142-19.413l3.561.085c8.721-4.455,18.011-5.323,26.958-4.578-6.849.883-12.592,2.423-16.955,4.663l3.476.085A51.183,51.183,0,0,1,236.5,457.5c10.473,2.708,19.269,9.077,26.877,20.166" transform="translate(-85.925 -180.373)" fill="#fff" fill-rule="evenodd"/>
    <path id="Path_1662" data-name="Path 1662" d="M110.4,360.279a52.106,52.106,0,0,0,2.2,18.311" transform="translate(-36.205 -124.363)" fill="none" stroke="#fff" stroke-linecap="round" stroke-miterlimit="2.414" stroke-width="6"/>
    <path id="Path_1663" data-name="Path 1663" d="M131.383,452.5a71.908,71.908,0,0,0,16.279,19.562" transform="translate(-49.139 -181.042)" fill="none" stroke="#fff" stroke-linecap="round" stroke-miterlimit="2.414" stroke-width="6"/>
    <path id="Path_1664" data-name="Path 1664" d="M71.11,296.154l-16.094-.2a13.892,13.892,0,0,0-3.521,3.759,2.128,2.128,0,0,0,.263,1.68L89.03,324.178a16.2,16.2,0,0,0,3.98-4.575l-6.581-15.87-.672.327L87,315.225,61.792,299.776l9.555-3.141-.237-.481" transform="translate(0 -84.828)" fill="#fff" fill-rule="evenodd"/>
    <path id="Path_1665" data-name="Path 1665" d="M136.895,485.311l-5.678,15.06a13.894,13.894,0,0,0,2.332,4.592,2.129,2.129,0,0,0,1.669.326l34.132-27.267a16.188,16.188,0,0,0-2.943-5.3l-17.163.774.078.743,10.92,2.636L137.122,495.3l.306-10.053-.533.059" transform="translate(-49.037 -193.47)" fill="#fff" fill-rule="evenodd"/>
    <path id="Path_1666" data-name="Path 1666" d="M250.859,522.505l1.579,16.017a13.9,13.9,0,0,0,4.125,3.084,2.127,2.127,0,0,0,1.64-.447L276.731,501.6a16.2,16.2,0,0,0-4.987-3.45L256.7,506.442l.4.632,10.958-2.472-12.568,26.764-4.178-9.149-.452.289" transform="translate(-122.57 -209.098)" fill="#fff" fill-rule="evenodd"/>
    <path id="Path_1667" data-name="Path 1667" d="M205.531,522.2a71.916,71.916,0,0,0,23.94,8.636" transform="translate(-94.711 -223.88)" fill="none" stroke="#fff" stroke-linecap="round" stroke-miterlimit="2.414" stroke-width="6"/>
  </g>
</svg>
