<svg xmlns="http://www.w3.org/2000/svg" width="105.12" height="89.735" viewBox="0 0 105.12 89.735">
  <g id="click-2384" transform="translate(146.499 61.436) rotate(-45)">
    <g id="Group_580" data-name="Group 580" transform="translate(-86.889 -126.036)">
      <path id="Path_3211" data-name="Path 3211" d="M116.943,79.482h-.453a6.666,6.666,0,0,0-2.8.612,6.722,6.722,0,0,0-6.559-5.291h-.454a6.67,6.67,0,0,0-3.168.8,6.719,6.719,0,0,0-6.188-4.117h-.454a6.663,6.663,0,0,0-2.646.544v-9.6a6.717,6.717,0,0,0-6.71-6.709h-.454a6.717,6.717,0,0,0-6.709,6.709V87.06L77.3,89.376a11.182,11.182,0,0,0-1.933,15.938l9.523,11.774v4.679a5.147,5.147,0,0,0,5.14,5.141H113.8a5.148,5.148,0,0,0,5.141-5.141v-4.443a21.621,21.621,0,0,0,4.711-13.447V86.192A6.72,6.72,0,0,0,116.943,79.482Zm2.647,24.394a17.562,17.562,0,0,1-4.223,11.4,2.024,2.024,0,0,0-.487,1.32v5.173a1.081,1.081,0,0,1-1.079,1.079H90.027a1.081,1.081,0,0,1-1.078-1.079v-5.4a2.031,2.031,0,0,0-.452-1.277L78.522,102.76a7.12,7.12,0,0,1,1.231-10.149l.6-.451v5.58a2.031,2.031,0,0,0,4.062,0V62.422a2.65,2.65,0,0,1,2.647-2.647h.454a2.65,2.65,0,0,1,2.647,2.647V78.193h0l.01,13.117A2.031,2.031,0,0,0,92.2,93.341h0a2.03,2.03,0,0,0,2.029-2.033L94.22,78.193a2.65,2.65,0,0,1,2.646-2.647h.454a2.65,2.65,0,0,1,2.647,2.647v3.321h0l.009,9.8a2.031,2.031,0,0,0,2.031,2.029h0a2.031,2.031,0,0,0,2.029-2.033l-.009-9.8a2.65,2.65,0,0,1,2.646-2.647h.454a2.65,2.65,0,0,1,2.647,2.647v4.151c-.006.067-.02.132-.02.2l.01,5.449A2.03,2.03,0,0,0,111.8,93.34h0A2.031,2.031,0,0,0,113.83,91.3l-.009-4.927c.006-.063.019-.123.019-.187a2.65,2.65,0,0,1,2.647-2.647h.453a2.65,2.65,0,0,1,2.647,2.647v17.686Z" transform="translate(-60.645 -35.513)" fill="#fff"/>
      <path id="Path_3212" data-name="Path 3212" d="M153.876,64.31H141.483a2.031,2.031,0,0,1,0-4.062h12.393a2.031,2.031,0,1,1,0,4.062Z" transform="translate(-102.756 -45.803)" fill="#fff"/>
      <path id="Path_3213" data-name="Path 3213" d="M108.419,16.455a2.032,2.032,0,0,1-2.031-2.031V2.031a2.031,2.031,0,1,1,4.062,0V14.424A2.03,2.03,0,0,1,108.419,16.455Z" transform="translate(-81.68 -7.399)" fill="#fff"/>
      <path id="Path_3214" data-name="Path 3214" d="M132.431,29.1A2.031,2.031,0,0,1,131,25.637l8.764-8.763a2.031,2.031,0,1,1,2.872,2.872l-8.764,8.763A2.025,2.025,0,0,1,132.431,29.1Z" transform="translate(-96.986 -17.776)" fill="#fff"/>
      <path id="Path_3215" data-name="Path 3215" d="M53.571,64.31H41.178a2.031,2.031,0,1,1,0-4.062H53.571a2.031,2.031,0,0,1,0,4.062Z" transform="translate(-38.819 -45.803)" fill="#fff"/>
      <path id="Path_3216" data-name="Path 3216" d="M69.006,29.1a2.021,2.021,0,0,1-1.436-.6l-8.763-8.763a2.031,2.031,0,0,1,2.872-2.872l8.763,8.763A2.031,2.031,0,0,1,69.006,29.1Z" transform="translate(-50.972 -17.776)" fill="#fff"/>
    </g>
  </g>
</svg>
