<svg xmlns="http://www.w3.org/2000/svg" width="61.999" height="70.856" viewBox="0 0 61.999 70.856">
  <path id="Icon_awesome-building" data-name="Icon awesome-building" d="M60.339,66.428H57.571V3.321A3.321,3.321,0,0,0,54.25,0H7.75A3.321,3.321,0,0,0,4.429,3.321V66.428H1.661A1.661,1.661,0,0,0,0,68.089v2.768H62V68.089A1.661,1.661,0,0,0,60.339,66.428ZM17.714,10.518a1.661,1.661,0,0,1,1.661-1.661h5.536a1.661,1.661,0,0,1,1.661,1.661v5.536a1.661,1.661,0,0,1-1.661,1.661H19.375a1.661,1.661,0,0,1-1.661-1.661Zm0,13.286a1.661,1.661,0,0,1,1.661-1.661h5.536A1.661,1.661,0,0,1,26.571,23.8v5.536A1.661,1.661,0,0,1,24.911,31H19.375a1.661,1.661,0,0,1-1.661-1.661Zm7.2,20.482H19.375a1.661,1.661,0,0,1-1.661-1.661V37.089a1.661,1.661,0,0,1,1.661-1.661h5.536a1.661,1.661,0,0,1,1.661,1.661v5.536A1.661,1.661,0,0,1,24.911,44.285ZM35.428,66.428H26.571V54.8a1.661,1.661,0,0,1,1.661-1.661h5.536A1.661,1.661,0,0,1,35.428,54.8Zm8.857-23.8a1.661,1.661,0,0,1-1.661,1.661H37.089a1.661,1.661,0,0,1-1.661-1.661V37.089a1.661,1.661,0,0,1,1.661-1.661h5.536a1.661,1.661,0,0,1,1.661,1.661Zm0-13.286A1.661,1.661,0,0,1,42.625,31H37.089a1.661,1.661,0,0,1-1.661-1.661V23.8a1.661,1.661,0,0,1,1.661-1.661h5.536A1.661,1.661,0,0,1,44.285,23.8Zm0-13.286a1.661,1.661,0,0,1-1.661,1.661H37.089a1.661,1.661,0,0,1-1.661-1.661V10.518a1.661,1.661,0,0,1,1.661-1.661h5.536a1.661,1.661,0,0,1,1.661,1.661Z" fill="#f9c924"/>
</svg>
