<svg xmlns="http://www.w3.org/2000/svg" width="142.359" height="142.359" viewBox="0 0 142.359 142.359">
  <g id="Group_586" data-name="Group 586" transform="translate(-1509.82 -1427.82)">
    <circle id="Ellipse_82" data-name="Ellipse 82" cx="69" cy="69" r="69" transform="translate(1512 1430)" fill="#161523"/>
    <g id="Group_585" data-name="Group 585" transform="translate(1773.99 1456.32)">
      <g id="Ellipse_82-2" data-name="Ellipse 82" transform="translate(-241.422 -5.752)">
        <g id="Group_581" data-name="Group 581">
          <path id="Path_3217" data-name="Path 3217" d="M-136.307,50.932h-48.432V99.363a48.542,48.542,0,0,1-9.76-.983,48.519,48.519,0,0,1-36.126-31.921c-.125-.382-.25-.763-.367-1.137-.242-.756-.455-1.519-.653-2.289a48.431,48.431,0,0,1-1.526-12.1,48.431,48.431,0,0,1,1.526-12.1c.2-.771.411-1.534.653-2.289.117-.374.242-.756.367-1.137A48.519,48.519,0,0,1-194.5,3.483a48.541,48.541,0,0,1,9.76-.983,48.541,48.541,0,0,1,9.76.983A48.519,48.519,0,0,1-138.853,35.4c.125.382.249.763.367,1.137.242.756.455,1.519.653,2.289A48.431,48.431,0,0,1-136.307,50.932Z" transform="translate(233.17 -2.5)" fill="none"/>
        </g>
        <g id="Group_582" data-name="Group 582">
          <path id="Path_3218" data-name="Path 3218" d="M-137.833,38.831c-.2-.771-.418-1.534-.653-2.289-.117-.374-.242-.756-.367-1.137-.345-1.013-.719-2-1.123-2.979s-.844-1.937-1.306-2.877c-.235-.47-.477-.939-.719-1.409a48.734,48.734,0,0,0-31.4-24.3c-.521-.125-1.049-.242-1.578-.352a48.541,48.541,0,0,0-9.76-.983,48.541,48.541,0,0,0-9.76.983c-.528.11-1.057.227-1.578.352a48.734,48.734,0,0,0-31.4,24.3c-.242.47-.484.939-.719,1.409-.462.939-.9,1.9-1.306,2.877s-.778,1.967-1.123,2.979c-.125.382-.25.763-.367,1.137-.235.756-.455,1.519-.653,2.289a48.431,48.431,0,0,0-1.526,12.1,48.431,48.431,0,0,0,1.526,12.1c.2.771.418,1.534.653,2.289.117.374.242.756.367,1.137.345,1.013.719,2,1.123,2.979s.844,1.937,1.306,2.877c.235.47.477.939.719,1.409a48.734,48.734,0,0,0,31.4,24.3c.521.125,1.049.242,1.578.352a48.542,48.542,0,0,0,9.76.983v-9.54A38.935,38.935,0,0,1-223.63,50.932,38.935,38.935,0,0,1-184.738,12.04a38.94,38.94,0,0,1,38.892,38.892h9.54A48.431,48.431,0,0,0-137.833,38.831Z" transform="translate(233.17 -2.5)" fill="#ffbc0c"/>
        </g>
      </g>
      <g id="Ellipse_83" data-name="Ellipse 83" transform="translate(-264.17 -28.5)">
        <g id="Group_583" data-name="Group 583">
          <path id="Path_3219" data-name="Path 3219" d="M-121.811,42.68h-71.18v71.18a71.687,71.687,0,0,1-14.346-1.446A71.269,71.269,0,0,1-262.724,57,71.358,71.358,0,0,1-264.17,42.68a71.358,71.358,0,0,1,1.446-14.324,71.269,71.269,0,0,1,55.388-55.41A71.687,71.687,0,0,1-192.99-28.5a71.414,71.414,0,0,1,14.324,1.446,71.246,71.246,0,0,1,55.41,55.41A71.358,71.358,0,0,1-121.811,42.68Z" transform="translate(264.17 28.5)" fill="none"/>
        </g>
        <g id="Group_584" data-name="Group 584">
          <path id="Path_3220" data-name="Path 3220" d="M-123.256,28.356c-.176-.866-.374-1.732-.58-2.59s-.433-1.7-.675-2.546v-.007c-.36-1.262-.756-2.517-1.181-3.75,0,0-.007,0,0-.007A71.534,71.534,0,0,0-173.522-25.8s-.007.007-.007,0c-.844-.235-1.7-.462-2.546-.675s-1.724-.4-2.59-.58A71.414,71.414,0,0,0-192.99-28.5a71.687,71.687,0,0,0-14.346,1.446c-2.172.448-4.3.991-6.4,1.629a71.533,71.533,0,0,0-46.971,46.135c-.264.829-.521,1.658-.763,2.5v.007c-.242.844-.462,1.688-.675,2.546s-.4,1.717-.58,2.59A71.358,71.358,0,0,0-264.17,42.68,71.358,71.358,0,0,0-262.724,57c.176.873.374,1.732.58,2.59s.433,1.7.675,2.546v.007c.242.844.5,1.673.763,2.5a71.533,71.533,0,0,0,46.971,46.135c2.1.638,4.227,1.181,6.4,1.629a71.687,71.687,0,0,0,14.346,1.446V110.19A67.586,67.586,0,0,1-260.5,42.68,67.586,67.586,0,0,1-192.99-24.831,67.586,67.586,0,0,1-125.48,42.68h3.669A71.358,71.358,0,0,0-123.256,28.356Z" transform="translate(264.17 28.5)" fill="#ffbc0c"/>
        </g>
      </g>
    </g>
  </g>
</svg>
