<svg id="Vector" xmlns="http://www.w3.org/2000/svg" width="196.25" height="82.425" viewBox="0 0 196.25 82.425">
  <path id="Path_3206" data-name="Path 3206" d="M76.083,32.653a2.984,2.984,0,0,0-1.506-1.578L73.368,0,65.774,20.878,57.448,12.79,52.458,24.223,32.584,5.916l-.732,27.11L20.2,28.7V40.337L0,31.344l21.4,22.44a3.034,3.034,0,0,0,.094,2.2c.821,1.951,3.07,2.172,4.9,2.051a24.684,24.684,0,0,0,3.044-.41v-2.4c-3.305.684-5.429.684-5.779-.142-.5-1.183,2.683-3.792,8.075-6.9v-.032l.1-.042.078-.037L32.045,48v-.031l.1-.042.042-.037.1-.042v-.031h.042l.1-.063H32.5l.037-.032.1-.047.12-.053.1-.047.042-.032.1-.047.141-.079h.026l.1-.047.042-.032h.026l.22-.11.042-.032.1-.047.042-.037h.026q1.935-1.052,4.137-2.156v-2.63A30.535,30.535,0,0,0,34,44.176l.209-7.636,3.86,1.441L46.3,40.936l1.919-.815c2.3-.968,4.508-1.825,6.648-2.63a6.089,6.089,0,0,1-.753-2.256c-1.522.568-3.039,1.141-4.529,1.751l3.766-8.635,2.2,2.025a6.168,6.168,0,0,1,1.946-1.536L54.357,25.98l3.9-8.94,6.6,6.364L62.9,28.8a6.212,6.212,0,0,1,2.035,1.578l1.852-5.1,5.455,5.291H71.2a31.974,31.974,0,0,0-5.481.983,6.143,6.143,0,0,1,.659,2.288c4.3-1.052,7.129-1.215,7.537-.242s-2.327,3.471-6.219,5.922h4.079a21.3,21.3,0,0,0,2.375-1.878c1.365-1.241,2.761-3.019,1.935-4.975ZM10.34,38.638l9.874,4.386v5.948Zm18.305,8.577a36.614,36.614,0,0,0-5.23,3.771,9.2,9.2,0,0,0-.748.752v-7.62l6.4,2.85c-.131.074-.267.168-.413.247Zm3.143-1.72L22.662,41.42V32.233l9.121,3.4Zm14.54-7.152-.094.037-11.961-4.46.586-22.567L51.433,26.605ZM67.7,22.735l3.719-10.187.554,14.32Z" fill="#ffc55f"/>
  <path id="Path_3207" data-name="Path 3207" d="M32.227,22.245a3.135,3.135,0,0,1-2.656-1.492,3.165,3.165,0,0,1,.875-4.254,3.128,3.128,0,0,1,4.27.655,3.168,3.168,0,0,1-1.1,4.767A3.123,3.123,0,0,1,32.227,22.245Z" transform="translate(28.009 15.336)" fill="#fff"/>
  <path id="Path_3208" data-name="Path 3208" d="M84.514,50.733l2.657-9.1,9.341-1.367L79.66,32.926Z" transform="translate(76.673 31.692)" fill="#fff"/>
  <path id="Path_3209" data-name="Path 3209" d="M142.731,37.844q-1.182-4.355-2.338-8.725a10.674,10.674,0,0,0-1.417-3.155,9.991,9.991,0,0,0-5.241-4.05,10.507,10.507,0,0,0-3.436-.594H119.928v4.428a9.985,9.985,0,0,0-5.11-3.892,10.524,10.524,0,0,0-3.431-.563H101.01v.026H94.462a10.853,10.853,0,0,0-4.346.884,11.123,11.123,0,0,0-5.586,5.2,17,17,0,0,0-1.459-1.788,14.091,14.091,0,0,0-8.855-4.244c-1.334-.116-2.7-.053-4.048-.053H53.181l3.771,6.311h5.141V46.558H83.228l-3.217-6.279h-.078l-1.14-2.85H75.058v2.829H68.379V27.636a36.624,36.624,0,0,1,4.315.063,9.808,9.808,0,0,1,2.924.342,7.841,7.841,0,0,1,2.939,1.951A16.391,16.391,0,0,1,81.418,34.4c1.334,2.771,2.453,5.738,4.414,8.073.2.236.4.478.622.7l.073.074.047.042a4.675,4.675,0,0,0,.607.526c.209.147.282.237.429.347l.193.147a11.363,11.363,0,0,0,2.291,1.331,10.668,10.668,0,0,0,2.432.715,16.049,16.049,0,0,0,5.23.174h4.325l-.037-6.311h6.323V32.59a11.007,11.007,0,0,0-.879-4.365c-.089-.21-.2-.41-.3-.61h3.1a4.987,4.987,0,0,1,3.175,1.083,5.183,5.183,0,0,1,1.852,2.808l4.022,15.03h.523v.026h6.276V27.631h3.112a4.992,4.992,0,0,1,3.138,1.094,5.21,5.21,0,0,1,1.852,2.808l4.022,15.03h6.8Q143.918,42.193,142.731,37.844Zm-40.638,2.4H95.628a6.613,6.613,0,0,1-4.184-1.772,9.666,9.666,0,0,1-.853-.884,6.219,6.219,0,0,1-.523-1.01,5.937,5.937,0,0,1-.466-2.33v-.61a5.937,5.937,0,0,1,.466-2.33A5.753,5.753,0,0,1,91.355,29.4a6.155,6.155,0,0,1,1.92-1.283,5.813,5.813,0,0,1,2.306-.468h.575a5.789,5.789,0,0,1,2.327.468,6.181,6.181,0,0,1,1.9,1.283,5.753,5.753,0,0,1,1.287,1.914,5.937,5.937,0,0,1,.465,2.33Z" transform="translate(51.186 20.495)" fill="#fff"/>
  <path id="Path_3210" data-name="Path 3210" d="M81.758,33.948v6.311h6.276v3.156H83.3a7.458,7.458,0,0,1-3.034-.621,7.734,7.734,0,0,1-2.474-1.7,8.05,8.05,0,0,1-1.669-2.53,7.885,7.885,0,0,1-.607-3.071V30.73H88.065l-3.51-6.311H69.216v8.788c-.079-.3-.162-.6-.241-.9a10.906,10.906,0,0,0-1.417-3.182,10.463,10.463,0,0,0-2.28-2.472,10.232,10.232,0,0,0-2.96-1.578,10.45,10.45,0,0,0-2.981-.526l-24.765-.089-.784,2.766a8.886,8.886,0,0,1-1.219,2.75,8.6,8.6,0,0,1-1.977,2.1,9.2,9.2,0,0,1-2.531,1.362,8.843,8.843,0,0,1-2.929.489H22.474V20.5L16.2,18.155V49.71h6.276V40.244H35.027V49.71H41.3V33.933H38.8l.842-3.2h8.849V49.71H54.77V30.777h3.054A5.017,5.017,0,0,1,61,31.861a5.2,5.2,0,0,1,1.852,2.814L66.873,49.7h6.8q-.743-2.824-1.512-5.643A14.034,14.034,0,0,0,73.389,45.5a14.279,14.279,0,0,0,4.524,3.077A13.754,13.754,0,0,0,83.442,49.7H94.357V41.963l-4.514-8Z" transform="translate(15.591 17.475)" fill="#fff"/>
</svg>
