<svg id="mga_horizontalni-crna-pozadina-kolor" xmlns="http://www.w3.org/2000/svg" xmlns:xlink="http://www.w3.org/1999/xlink" width="202.059" height="40.385" viewBox="0 0 202.059 40.385">
  <defs>
    <linearGradient id="linear-gradient" x1="0.499" y1="1" x2="0.499" y2="-0.001" gradientUnits="objectBoundingBox">
      <stop offset="0" stop-color="#e09d18"/>
      <stop offset="0" stop-color="#f9c924"/>
      <stop offset="0.32" stop-color="#e4af18"/>
      <stop offset="0.68" stop-color="#fff98c"/>
      <stop offset="1" stop-color="#ffd440"/>
    </linearGradient>
    <linearGradient id="linear-gradient-2" x1="0.5" y1="1" x2="0.5" y2="0" xlink:href="#linear-gradient"/>
    <linearGradient id="linear-gradient-3" x1="0.499" y1="1" x2="0.499" y2="-0.001" xlink:href="#linear-gradient"/>
    <linearGradient id="linear-gradient-4" x1="0.5" y1="1" x2="0.5" y2="0.001" xlink:href="#linear-gradient"/>
    <linearGradient id="linear-gradient-5" x1="0.498" y1="1" x2="0.498" y2="0" xlink:href="#linear-gradient"/>
    <linearGradient id="linear-gradient-6" x1="0.061" y1="0.939" x2="0.939" y2="0.061" xlink:href="#linear-gradient"/>
    <linearGradient id="linear-gradient-7" x1="0" y1="0.5" x2="1" y2="0.5" xlink:href="#linear-gradient"/>
  </defs>
  <path id="Path_40" data-name="Path 40" d="M214.274,69.828V62.008c0-1.91-.777-3.177-2.51-3.177-1.688,0-2.621,1.555-2.621,3.221v7.775H204.9V55.255h3.71L208.9,56.9a4.23,4.23,0,0,1,3.843-1.977,4.33,4.33,0,0,1,4.243,2.71,5.2,5.2,0,0,1,4.843-2.732c3.043,0,5.82,1.533,5.82,6.953v7.953H223.36V61.942c0-1.822-.511-3.043-2.221-3.043a2.815,2.815,0,0,0-2.688,3.088v7.819h-4.176Z" transform="translate(-159.383 -42.705)" fill="#fff"/>
  <path id="Path_41" data-name="Path 41" d="M323.187,63.686c.2,1.422,1.555,2.555,3.954,2.555a6.053,6.053,0,0,0,3.776-1.155l2.4,2.643a9.109,9.109,0,0,1-6.242,2.155c-5.287,0-8.175-3.088-8.175-7.753,0-4.421,2.977-7.531,7.73-7.531,4.954,0,8.2,3.088,7.286,9.063H323.187ZM330.1,60.6c-.089-1.6-1.71-2.332-3.488-2.332a3.333,3.333,0,0,0-3.421,2.332Z" transform="translate(-248.06 -42.471)" fill="#fff"/>
  <path id="Path_42" data-name="Path 42" d="M399.632,67c.156,2.244,1.71,2.954,3.665,2.954,1.888,0,3.6-.889,3.6-2.688,0-1.422-.911-2.51-3.532-2.51-4.776,0-7.864-2.821-7.864-7.353,0-4.954,3.8-7.442,7.864-7.442a6.474,6.474,0,0,1,3.421.8l1.6-2.066,3.066,2.355-1.866,2.221a6.336,6.336,0,0,1,1.511,4.176,5.691,5.691,0,0,1-3.132,5.109c3.243,1.444,3.243,3.843,3.243,4.687,0,4.332-3.887,6.42-7.908,6.42-5.043,0-7.664-2.51-7.6-6.686h3.932Zm-.044-9.574a3.5,3.5,0,0,0,3.776,3.488,3.4,3.4,0,0,0,3.665-3.488,3.586,3.586,0,0,0-3.665-3.665A3.48,3.48,0,0,0,399.587,57.43Z" transform="translate(-307.644 -37.882)" fill="#fff"/>
  <path id="Path_43" data-name="Path 43" d="M487.907,55.485h3.976V70.057h-3.821l-.244-1.822a5.6,5.6,0,0,1-4.487,2.155c-4.354.022-7.531-2.8-7.531-7.6,0-4.843,3.332-7.664,7.642-7.6a4.963,4.963,0,0,1,4.31,2Zm-7.842,7.286a3.66,3.66,0,0,0,3.843,3.843,3.854,3.854,0,1,0,0-7.708A3.678,3.678,0,0,0,480.065,62.771Z" transform="translate(-370.106 -42.934)" fill="#fff"/>
  <path id="Path_44" data-name="Path 44" d="M564.521,63.752a5.218,5.218,0,0,0,5.509,4.843,6.7,6.7,0,0,0,4.932-2l1.333,1.177a8.142,8.142,0,0,1-6.242,2.71,7.187,7.187,0,0,1-7.553-7.575,7.235,7.235,0,0,1,7.464-7.508c4.332,0,7.819,2.621,7.264,8.375H564.521Zm10.818-1.688c-.067-3.177-2.444-4.932-5.376-4.932a5.228,5.228,0,0,0-5.465,4.932Z" transform="translate(-437.546 -43.093)" fill="url(#linear-gradient)"/>
  <path id="Path_45" data-name="Path 45" d="M650.461,56.5,644.33,71.095h-2.177L636,56.5h2.177l5.043,12.418L648.262,56.5Z" transform="translate(-494.719 -43.949)" fill="url(#linear-gradient-2)"/>
  <path id="Path_46" data-name="Path 46" d="M710.422,63.752a5.218,5.218,0,0,0,5.509,4.843,6.7,6.7,0,0,0,4.932-2l1.333,1.177a8.142,8.142,0,0,1-6.242,2.71,7.187,7.187,0,0,1-7.553-7.575,7.235,7.235,0,0,1,7.464-7.508c4.332,0,7.819,2.621,7.264,8.375H710.422Zm10.84-1.688c-.067-3.177-2.444-4.932-5.376-4.932a5.228,5.228,0,0,0-5.465,4.932Z" transform="translate(-551.036 -43.093)" fill="url(#linear-gradient-3)"/>
  <path id="Path_47" data-name="Path 47" d="M801.907,70.217V62.042c0-3.132-1.822-4.776-4.754-4.776a4.786,4.786,0,0,0-4.776,5.02v7.93H790.4V55.644h1.888l.067,2.444A5.819,5.819,0,0,1,797.42,55.4c3.776,0,6.487,2.244,6.487,6.6v8.2h-2Z" transform="translate(-614.821 -43.093)" fill="url(#linear-gradient-4)"/>
  <path id="Path_48" data-name="Path 48" d="M868.732,37.1v4.332h4.709V43.12h-4.709v8.219c0,1.822.511,3.043,2.488,3.043a5.53,5.53,0,0,0,2.133-.555l.622,1.644a6.531,6.531,0,0,1-2.8.711c-3.132.022-4.4-1.8-4.4-4.843V43.12H863.8V41.432h2.977v-4.11Z" transform="translate(-671.915 -28.859)" fill="url(#linear-gradient-5)"/>
  <path id="Path_49" data-name="Path 49" d="M836.677,138.422v3.6a2.557,2.557,0,0,1,2.11-.955,3.192,3.192,0,0,1,3.332,3.488,3.233,3.233,0,0,1-3.31,3.488,2.562,2.562,0,0,1-2.221-1l-.133.866H834.7V138.4h1.977Zm.022,6.131a1.653,1.653,0,0,0,1.8,1.733,1.735,1.735,0,0,0,0-3.465A1.719,1.719,0,0,0,836.7,144.553Z" transform="translate(-649.28 -107.656)" fill="#fff"/>
  <g id="Group_11" data-name="Group 11" transform="translate(180.644 37.231)">
    <circle id="Ellipse_45" data-name="Ellipse 45" cx="1.511" cy="1.511" r="1.511" fill="#fff"/>
  </g>
  <path id="Path_50" data-name="Path 50" d="M876.376,150.355h1.844v6.709h-1.777l-.111-.844a2.612,2.612,0,0,1-2.066,1,3.254,3.254,0,0,1-3.465-3.51,3.31,3.31,0,0,1,3.51-3.51,2.255,2.255,0,0,1,1.977.933Zm-3.621,3.354a1.69,1.69,0,0,0,1.777,1.777,1.721,1.721,0,0,0,1.777-1.688,1.742,1.742,0,0,0-1.777-1.844A1.672,1.672,0,0,0,872.755,153.709Z" transform="translate(-677.36 -116.834)" fill="#fff"/>
  <g id="Group_12" data-name="Group 12">
    <path id="Path_51" data-name="Path 51" d="M28.389,0H7.442A7.442,7.442,0,0,0,0,7.442V28.389a7.442,7.442,0,0,0,7.442,7.442H28.389a7.442,7.442,0,0,0,7.442-7.442V7.442A7.456,7.456,0,0,0,28.389,0Zm6,13.595-7.331,7.2a.672.672,0,0,0-.2.6l1.755,10.441a.694.694,0,0,1-1,.733l-9.374-4.887a.664.664,0,0,0-.644,0L8.219,32.566a.689.689,0,0,1-1-.733L8.974,21.392a.672.672,0,0,0-.2-.6l-7.331-7.2a.686.686,0,0,1,.489-1.177H12a.7.7,0,0,0,.622-.378L17.3,2.621a.7.7,0,0,1,1.244,0l4.865,9.8H33.921A.682.682,0,0,1,34.387,13.595Z" fill="url(#linear-gradient-6)"/>
    <path id="Path_52" data-name="Path 52" d="M50.165,64.1H40.658a.468.468,0,0,0-.289.111l-1.91,2.044a.376.376,0,0,1-.6-.067L36.748,64.3a.413.413,0,0,0-.333-.2H27a.48.48,0,0,0-.289.866l5.309,4.709a.761.761,0,0,1,.244.733L30.75,78.983a.38.38,0,0,0,.555.4l1.466-.777a.354.354,0,0,0,.2-.267l2.021-11.485a.389.389,0,0,1,.711-.133l1.533,2.621a.392.392,0,0,0,.333.178.368.368,0,0,0,.267-.111l2.6-2.688a.378.378,0,0,1,.644.333l-.8,4.554a.392.392,0,0,0,.4.466h4.287a.38.38,0,0,0,.378-.444l-.156-.889a.382.382,0,0,0-.378-.311H42.9a.38.38,0,0,1-.378-.444l.155-.844a.382.382,0,0,1,.378-.311H46.1a.41.41,0,0,0,.267-.111l.822-.8a.376.376,0,0,0-.267-.644H43.479a.38.38,0,0,1-.378-.444l.133-.777a.382.382,0,0,1,.378-.311h5.665a.41.41,0,0,0,.267-.111l.889-.866A.387.387,0,0,0,50.165,64.1Z" transform="translate(-20.621 -49.861)" fill="url(#linear-gradient-7)"/>
  </g>
</svg>
