<svg xmlns="http://www.w3.org/2000/svg" xmlns:xlink="http://www.w3.org/1999/xlink" width="270" height="160" viewBox="0 0 270 160">
  <defs>
    <clipPath id="clip-path">
      <rect id="Rectangle_295" data-name="Rectangle 295" width="270" height="160" transform="translate(975 5878)" fill="#ccc"/>
    </clipPath>
    <linearGradient id="linear-gradient" x1="0.499" y1="1.001" x2="0.499" y2="0.001" gradientUnits="objectBoundingBox">
      <stop offset="0" stop-color="#e09d18"/>
      <stop offset="0" stop-color="#f9c924"/>
      <stop offset="0.32" stop-color="#e4af18"/>
      <stop offset="0.68" stop-color="#fff98c"/>
      <stop offset="1" stop-color="#ffd440"/>
    </linearGradient>
    <linearGradient id="linear-gradient-2" x1="0.499" y1="1" x2="0.499" y2="0" xlink:href="#linear-gradient"/>
    <linearGradient id="linear-gradient-3" x1="0.5" y1="1.001" x2="0.5" y2="0.001" xlink:href="#linear-gradient"/>
    <linearGradient id="linear-gradient-4" x1="0.499" y1="1" x2="0.499" y2="0" xlink:href="#linear-gradient"/>
    <linearGradient id="linear-gradient-5" x1="0.5" y1="1" x2="0.5" y2="0" xlink:href="#linear-gradient"/>
    <linearGradient id="linear-gradient-6" x1="0.061" y1="0.939" x2="0.939" y2="0.061" xlink:href="#linear-gradient"/>
    <linearGradient id="linear-gradient-7" x1="0" y1="0.5" x2="1" y2="0.5" xlink:href="#linear-gradient"/>
  </defs>
  <g id="Mask_Group_12" data-name="Mask Group 12" transform="translate(-975 -5878)" clip-path="url(#clip-path)">
    <g id="mga_vertikalni-crna-pozadina-kolor" transform="translate(1014.549 5878)">
      <path id="Path_173" data-name="Path 173" d="M11.434,143.816v-9.524c0-2.329-.931-3.889-3.05-3.889-2.049,0-3.19,1.909-3.19,3.912v9.5H0V126.048H4.541l.349,2a5.184,5.184,0,0,1,4.681-2.4,5.278,5.278,0,0,1,5.17,3.307c1.583-2.4,3.283-3.353,5.891-3.353,3.7,0,7.079,1.863,7.079,8.476v9.71H22.518V134.2c0-2.235-.605-3.7-2.7-3.7-2.049,0-3.283,1.77-3.283,3.772v9.524h-5.1Z" fill="#fff"/>
      <path id="Path_174" data-name="Path 174" d="M36.117,136.62c.256,1.723,1.909,3.12,4.82,3.12a7.455,7.455,0,0,0,4.611-1.4l2.911,3.237c-1.909,1.863-4.96,2.631-7.615,2.631-6.427,0-9.967-3.772-9.967-9.454,0-5.4,3.633-9.175,9.431-9.175,6.031,0,9.99,3.772,8.872,11.038H36.117Zm8.406-3.772c-.116-1.933-2.1-2.841-4.238-2.841a4.02,4.02,0,0,0-4.168,2.841Z" fill="#fff"/>
      <path id="Path_175" data-name="Path 175" d="M56.7,146.261c.186,2.725,2.1,3.586,4.448,3.586,2.305,0,4.378-1.071,4.378-3.283,0-1.723-1.118-3.05-4.308-3.05-5.822,0-9.594-3.446-9.594-8.965,0-6.031,4.634-9.058,9.594-9.058a7.811,7.811,0,0,1,4.168.978l1.933-2.515,3.749,2.887-2.259,2.7a7.621,7.621,0,0,1,1.84,5.1,6.933,6.933,0,0,1-3.819,6.217c3.959,1.77,3.959,4.681,3.959,5.728,0,5.286-4.75,7.847-9.641,7.847-6.148,0-9.361-3.05-9.268-8.173H56.7Zm-.093-11.69c0,2.561,1.979,4.238,4.611,4.238a4.119,4.119,0,0,0,4.448-4.238A4.366,4.366,0,0,0,61.22,130.1,4.253,4.253,0,0,0,56.609,134.571Z" fill="#fff"/>
      <path id="Path_176" data-name="Path 176" d="M88.162,126.048h4.867v17.767H88.348l-.279-2.235c-1.188,1.863-3.749,2.585-5.472,2.631-5.333.047-9.175-3.423-9.175-9.268,0-5.891,4.075-9.361,9.314-9.268,2.235,0,4.308.862,5.239,2.445Zm-9.571,8.872a4.459,4.459,0,0,0,4.681,4.681,4.692,4.692,0,1,0,0-9.384A4.491,4.491,0,0,0,78.591,134.92Z" fill="#fff"/>
      <path id="Path_177" data-name="Path 177" d="M99.362,135.922c.326,3.7,3.19,5.891,6.73,5.891,2.166,0,4.75-.862,6.008-2.445l1.607,1.444a9.961,9.961,0,0,1-7.615,3.307c-5.286,0-9.2-3.563-9.2-9.245A8.825,8.825,0,0,1,106,125.7c5.286,0,9.524,3.19,8.849,10.223Zm13.18-2.049c-.07-3.889-2.981-6.008-6.543-6.008a6.364,6.364,0,0,0-6.66,6.008Z" fill="url(#linear-gradient)"/>
      <path id="Path_178" data-name="Path 178" d="M134.431,126.048l-7.475,17.791H124.3l-7.475-17.791h2.631l6.148,15.136,6.148-15.136Z" fill="url(#linear-gradient-2)"/>
      <path id="Path_179" data-name="Path 179" d="M138.879,135.922c.326,3.7,3.19,5.891,6.73,5.891,2.166,0,4.75-.862,6.008-2.445l1.607,1.444a9.961,9.961,0,0,1-7.615,3.307c-5.286,0-9.2-3.563-9.2-9.245a8.825,8.825,0,0,1,9.1-9.175c5.286,0,9.524,3.19,8.849,10.223Zm13.2-2.049c-.07-3.889-2.981-6.008-6.543-6.008a6.364,6.364,0,0,0-6.66,6.008Z" fill="url(#linear-gradient-3)"/>
      <path id="Path_180" data-name="Path 180" d="M172.667,143.816v-9.967c0-3.819-2.235-5.822-5.8-5.822a5.838,5.838,0,0,0-5.822,6.124v9.664h-2.4V126.048h2.305l.07,2.981a7.161,7.161,0,0,1,6.194-3.283c4.611,0,7.917,2.724,7.917,8.057v9.99h-2.468Z" fill="url(#linear-gradient-4)"/>
      <path id="Path_181" data-name="Path 181" d="M184.543,120.786v5.286H190.3v2.049h-5.752v10.036c0,2.235.605,3.7,3.027,3.7a6.372,6.372,0,0,0,2.585-.675l.745,2a8,8,0,0,1-3.423.862c-3.819.047-5.356-2.189-5.356-5.891V128.121h-3.633v-2.049h3.633v-5.03Z" fill="url(#linear-gradient-5)"/>
      <g id="Group_58" data-name="Group 58">
        <path id="Path_182" data-name="Path 182" d="M123.394,0H67.507A19.816,19.816,0,0,0,47.69,19.817V75.7A19.816,19.816,0,0,0,67.507,95.52h55.887A19.816,19.816,0,0,0,143.21,75.7V19.817A19.816,19.816,0,0,0,123.394,0Zm16,36.257-19.56,19.188a1.837,1.837,0,0,0-.536,1.63L123.976,84.9a1.853,1.853,0,0,1-2.678,1.956L96.289,73.794a1.828,1.828,0,0,0-1.7,0L69.579,86.858A1.853,1.853,0,0,1,66.9,84.9l4.681-27.827a1.837,1.837,0,0,0-.536-1.63L51.486,36.257a1.844,1.844,0,0,1,1.3-3.167H79.662a1.837,1.837,0,0,0,1.653-1.025L93.8,6.963a1.842,1.842,0,0,1,3.307,0L110.1,33.09h28.013A1.843,1.843,0,0,1,139.391,36.257Z" fill="url(#linear-gradient-6)"/>
        <path id="Path_183" data-name="Path 183" d="M126.514,37.98H101.109a1,1,0,0,0-.745.326l-5.1,5.426a1.035,1.035,0,0,1-1.63-.186L90.7,38.492a1.047,1.047,0,0,0-.885-.512H64.666a1.3,1.3,0,0,0-.792,2.329L78.032,52.883a2.077,2.077,0,0,1,.675,1.956L74.679,77.706a1.009,1.009,0,0,0,1.467,1.071l3.935-2.049a1.064,1.064,0,0,0,.536-.722l5.4-30.645a1.024,1.024,0,0,1,1.886-.349l4.122,7.009a1.047,1.047,0,0,0,.885.512,1.022,1.022,0,0,0,.722-.3l6.939-7.149a1.012,1.012,0,0,1,1.723.885l-2.142,12.155a1.044,1.044,0,0,0,1.048,1.234h11.457a1.008,1.008,0,0,0,1-1.188l-.4-2.352a1.022,1.022,0,0,0-1-.838h-5.1a1.018,1.018,0,0,1-1-1.188l.4-2.282a1.022,1.022,0,0,1,1-.838h8.1a1.083,1.083,0,0,0,.722-.279l2.189-2.142a1.018,1.018,0,0,0-.722-1.746h-9.2a1.018,1.018,0,0,1-1-1.188l.373-2.1a1.022,1.022,0,0,1,1-.838h15.113a1.083,1.083,0,0,0,.722-.279l2.375-2.329A1.054,1.054,0,0,0,126.514,37.98Z" fill="url(#linear-gradient-7)"/>
      </g>
      <g id="Group_60" data-name="Group 60">
        <path id="Path_184" data-name="Path 184" d="M172.947,148.1v4.448a3.186,3.186,0,0,1,2.608-1.164,4.313,4.313,0,0,1,.023,8.616,3.131,3.131,0,0,1-2.748-1.234l-.14,1.048h-2.166V148.1Zm.023,7.568a2.032,2.032,0,0,0,2.235,2.142,1.962,1.962,0,0,0,2.026-2.142,1.988,1.988,0,0,0-2.026-2.142A2.154,2.154,0,0,0,172.97,155.669Z" fill="#fff"/>
        <g id="Group_59" data-name="Group 59">
          <circle id="Ellipse_80" data-name="Ellipse 80" cx="1.863" cy="1.863" r="1.863" transform="translate(164.587 156.088)" fill="#fff"/>
        </g>
        <path id="Path_185" data-name="Path 185" d="M187.291,151.524h2.259v8.29h-2.189l-.14-1.048A3.269,3.269,0,0,1,184.66,160a4.022,4.022,0,0,1-4.285-4.331,4.087,4.087,0,0,1,4.355-4.331,2.744,2.744,0,0,1,2.445,1.141Zm-4.471,4.145a2.089,2.089,0,0,0,2.189,2.189,2.189,2.189,0,1,0,0-4.378A2.077,2.077,0,0,0,182.82,155.669Z" fill="#fff"/>
      </g>
    </g>
  </g>
</svg>
