<svg xmlns="http://www.w3.org/2000/svg" xmlns:xlink="http://www.w3.org/1999/xlink" width="196" height="1081" viewBox="0 0 196 1081">
  <defs>
    <clipPath id="clip-path">
      <rect id="Rectangle_240" data-name="Rectangle 240" width="196" height="1081" transform="translate(1724)" fill="#161523"/>
    </clipPath>
    <clipPath id="clip-path-2">
      <rect id="Rectangle_31" data-name="Rectangle 31" width="1647.939" height="1263.903" fill="none"/>
    </clipPath>
  </defs>
  <g id="Mask_Group_10" data-name="Mask Group 10" transform="translate(-1724)" opacity="0.1" clip-path="url(#clip-path)">
    <g id="Layer_2" data-name="Layer 2" transform="translate(2699.105 -258.045) rotate(90)">
      <g id="Layer_1" data-name="Layer 1">
        <g id="Group_14" data-name="Group 14" clip-path="url(#clip-path-2)">
          <path id="Path_99" data-name="Path 99" d="M297.346,35.16c-50.461-19.707-98.747-29.3-147.6-29.3S52.6,15.4,2.137,35.16L0,29.7C51.167,9.711,100.139,0,149.742,0s98.575,9.711,149.741,29.7Z" transform="translate(1498.197 1228.952)" fill="#fff"/>
          <path id="Path_100" data-name="Path 100" d="M297.346,35.16c-50.461-19.707-98.747-29.3-147.6-29.3S52.6,15.4,2.137,35.16L0,29.7C51.167,9.711,100.158,0,149.761,0S248.335,9.711,299.5,29.7Z" transform="translate(300.475 1228.952)" fill="#fff"/>
          <path id="Path_101" data-name="Path 101" d="M462.6,74.346C400.691,40.483,324.971,5.876,232.711,5.876S64.826,40.483,2.824,74.346L0,69.2C62.556,34.989,139.115,0,232.749,0S402.9,34.989,465.5,69.2Z" transform="translate(1415.228 1189.614)" fill="#fff"/>
          <path id="Path_102" data-name="Path 102" d="M462.579,74.346C400.691,40.483,324.952,5.876,232.692,5.876S64.712,40.483,2.8,74.346L0,69.2C62.537,34.989,139.115,0,232.749,0S402.9,34.989,465.5,69.2Z" transform="translate(217.525 1189.614)" fill="#fff"/>
          <path id="Path_103" data-name="Path 103" d="M598.928,113.627C509.491,60.648,417.059,5.838,300.933,5.838S92.375,60.648,3,113.627l-3-5.037C90.066,55.173,183.147,0,300.933,0S511.8,55.211,601.847,108.591Z" transform="translate(1347.006 1150.276)" fill="#fff"/>
          <path id="Path_104" data-name="Path 104" d="M598.851,113.627C509.453,60.648,417.04,5.838,300.933,5.838S92.375,60.648,3,113.627l-3-5.056C90.066,55.154,183.147,0,300.914,0S511.761,55.192,601.809,108.572Z" transform="translate(149.303 1150.276)" fill="#fff"/>
          <path id="Path_105" data-name="Path 105" d="M735.124,153c-23.008-12.591-46-26.213-68.222-39.377C577.523,60.648,485.091,5.857,368.964,5.857S160.406,60.629,71.027,113.608C48.8,126.791,25.831,140.317,2.8,153L0,147.853c22.893-12.534,45.787-26.137,68.031-39.281C158.1,55.154,251.178,0,368.964,0S579.831,55.192,669.9,108.572c22.187,13.145,45.119,26.709,68.031,39.281Z" transform="translate(1278.974 1110.956)" fill="#fff"/>
          <path id="Path_106" data-name="Path 106" d="M735.124,153c-23.008-12.591-46-26.213-68.222-39.4C577.523,60.629,485.091,5.857,368.983,5.857S160.406,60.629,71.027,113.608C48.8,126.791,25.831,140.317,2.8,153L0,147.853c22.893-12.534,45.787-26.137,68.05-39.281C158.1,55.154,251.2,0,368.964,0S579.831,55.192,669.878,108.572c22.188,13.145,45.138,26.709,68.07,39.281Z" transform="translate(81.252 1110.956)" fill="#fff"/>
          <path id="Path_107" data-name="Path 107" d="M900.357,192.495c-53.093-20.757-103.02-50.289-151.153-78.868C659.8,60.648,567.392,5.857,451.247,5.857S242.688,60.648,153.309,113.627c-48.21,28.617-98.06,58.111-151.191,78.868L0,187.039c52.655-20.585,102.314-50,150.314-78.467C240.38,55.154,333.461,0,451.247,0S662.113,55.192,752.18,108.591c48.019,28.445,97.659,57.863,150.314,78.448Z" transform="translate(1196.692 1071.618)" fill="#fff"/>
          <path id="Path_108" data-name="Path 108" d="M899.346,192.495c-53.113-20.757-103.02-50.289-151.191-78.868C658.775,60.648,566.343,5.857,450.216,5.857S241.677,60.648,152.3,113.627C104.394,142,54.868,171.357,2.137,192.075L0,186.619c52.273-20.547,101.608-49.774,149.3-78.047C239.369,55.154,332.449,0,450.216,0S661.083,55.192,751.149,108.572c48,28.464,97.659,57.882,150.314,78.467Z" transform="translate(0 1071.618)" fill="#fff"/>
          <path id="Path_109" data-name="Path 109" d="M1049.087,222.2c-117.748,0-210.867-55.192-300.933-108.572C658.775,60.648,566.343,5.876,450.217,5.876S241.658,60.648,152.279,113.627c-47.885,28.388-97.411,57.749-150.142,78.467L0,186.638c52.273-20.566,101.608-49.793,149.3-78.066C239.35,55.154,332.449,0,450.216,0S661.083,55.154,751.149,108.572c89.379,52.979,181.792,107.77,297.938,107.77s208.539-54.791,297.918-107.77C1437.072,55.154,1530.152,0,1647.939,0V5.876c-116.127,0-208.558,54.772-297.938,107.751C1259.935,167.007,1166.816,222.2,1049.087,222.2Z" transform="translate(0 1032.28)" fill="#fff"/>
          <path id="Path_110" data-name="Path 110" d="M1049.087,222.2c-117.748,0-210.867-55.192-300.933-108.572C658.775,60.648,566.343,5.876,450.217,5.876S241.677,60.648,152.3,113.57c-47.9,28.445-97.43,57.806-150.161,78.524L0,186.638c52.273-20.547,101.608-49.793,149.3-78.047C239.35,55.173,332.449,0,450.216,0S661.083,55.211,751.149,108.591c89.379,52.979,181.792,107.751,297.938,107.751s208.539-54.772,297.918-107.751C1437.072,55.173,1530.152,0,1647.938,0V5.876c-116.126,0-208.558,54.772-297.938,107.751C1259.935,166.988,1166.816,222.2,1049.087,222.2Z" transform="translate(0 992.941)" fill="#fff"/>
          <path id="Path_111" data-name="Path 111" d="M1049.087,222.2c-117.748,0-210.867-55.211-300.933-108.572C658.775,60.648,566.343,5.857,450.217,5.857S241.677,60.648,152.3,113.608C104.394,142,54.868,171.357,2.137,192.075L0,186.619c52.273-20.547,101.608-49.774,149.3-78.047C239.369,55.154,332.449,0,450.216,0S661.083,55.192,751.149,108.572c89.379,52.979,181.792,107.751,297.938,107.751s208.539-54.772,297.918-107.751C1437.072,55.154,1530.152,0,1647.938,0V5.857c-116.126,0-208.558,54.791-297.938,107.77C1259.935,166.988,1166.816,222.2,1049.087,222.2Z" transform="translate(0 953.622)" fill="#fff"/>
          <path id="Path_112" data-name="Path 112" d="M1049.087,222.2c-117.748,0-210.867-55.192-300.933-108.572C658.775,60.591,566.343,5.857,450.236,5.857S241.658,60.591,152.279,113.627c-47.885,28.388-97.411,57.729-150.142,78.467L0,186.619c52.273-20.547,101.608-49.717,149.3-78.047C239.35,55.154,332.449,0,450.216,0S661.083,55.192,751.149,108.572c89.379,52.979,181.792,107.751,297.938,107.751s208.539-54.772,297.918-107.751C1437.072,55.154,1530.152,0,1647.938,0V5.857c-116.126,0-208.558,54.791-297.938,107.77C1259.935,167.007,1166.816,222.2,1049.087,222.2Z" transform="translate(0 914.284)" fill="#fff"/>
          <path id="Path_113" data-name="Path 113" d="M1049.087,222.218c-117.748,0-210.867-55.192-300.933-108.572C658.775,60.667,566.343,5.9,450.236,5.9S241.677,60.667,152.3,113.646c-47.9,28.388-97.43,57.748-150.161,78.467L0,186.657c52.273-20.547,101.608-49.793,149.3-78.047C239.369,55.192,332.449.038,450.216.038S661.083,55.23,751.149,108.61c89.379,52.979,181.754,107.713,297.938,107.713s208.539-54.772,297.919-107.751C1437.072,55.154,1530.152,0,1647.939,0V5.857c-116.126,0-208.558,54.772-297.938,107.751C1259.935,167.026,1166.816,222.218,1049.087,222.218Z" transform="translate(0 874.926)" fill="#fff"/>
          <path id="Path_114" data-name="Path 114" d="M1049.087,222.2c-117.748,0-210.867-55.211-300.933-108.591C658.775,60.648,566.343,5.857,450.217,5.857S241.658,60.629,152.279,113.608C104.394,142,54.868,171.357,2.137,192.075L0,186.619c52.273-20.547,101.608-49.774,149.3-78.047C239.35,55.154,332.449,0,450.216,0S661.083,55.192,751.149,108.572c89.379,52.979,181.754,107.751,297.938,107.751s208.539-54.772,297.919-107.751C1437.072,55.154,1530.152,0,1647.939,0V5.857c-116.126,0-208.558,54.791-297.938,107.751C1259.935,166.988,1166.816,222.2,1049.087,222.2Z" transform="translate(0 835.626)" fill="#fff"/>
          <path id="Path_115" data-name="Path 115" d="M1049.087,222.2c-117.748,0-210.867-55.211-300.933-108.572C658.775,60.648,566.343,5.857,450.217,5.857S241.677,60.648,152.3,113.608c-47.9,28.407-97.43,57.748-150.161,78.467L0,186.619c52.273-20.547,101.608-49.774,149.3-78.047C239.369,55.154,332.449,0,450.216,0S661.083,55.192,751.149,108.572c89.379,52.979,181.792,107.751,297.938,107.751s208.539-54.772,297.918-107.751C1437.072,55.154,1530.152,0,1647.938,0V5.857c-116.126,0-208.558,54.791-297.938,107.77C1259.935,166.988,1166.816,222.2,1049.087,222.2Z" transform="translate(0 796.287)" fill="#fff"/>
          <path id="Path_116" data-name="Path 116" d="M1049.087,222.2c-117.748,0-210.867-55.192-300.933-108.572C658.775,60.648,566.343,5.876,450.217,5.876S241.677,60.648,152.3,113.627c-47.9,28.388-97.43,57.749-150.161,78.467L0,186.638c52.273-20.566,101.608-49.793,149.3-78.066C239.35,55.154,332.449,0,450.216,0S661.083,55.211,751.149,108.572c89.379,52.979,181.792,107.77,297.938,107.77s208.539-54.791,297.918-107.77C1437.072,55.154,1530.152,0,1647.938,0V5.876c-116.126,0-208.558,54.772-297.938,107.751C1259.935,167.007,1166.816,222.2,1049.087,222.2Z" transform="translate(0 756.949)" fill="#fff"/>
          <path id="Path_117" data-name="Path 117" d="M1049.087,222.142c-117.748,0-210.867-55.192-300.933-108.572C658.775,60.591,566.343,5.819,450.217,5.819S241.677,60.591,152.3,113.57c-47.9,28.388-97.43,57.787-150.161,78.467L0,186.619c52.273-20.547,101.608-49.774,149.3-78.047C239.35,55.154,332.449,0,450.216,0S661.083,55.192,751.149,108.572c89.379,52.979,181.792,107.751,297.938,107.751s208.539-54.772,297.918-107.751C1437.072,55.154,1530.152,0,1647.938,0V5.857c-116.126,0-208.558,54.772-297.938,107.751C1259.935,166.95,1166.816,222.142,1049.087,222.142Z" transform="translate(0 717.668)" fill="#fff"/>
          <path id="Path_118" data-name="Path 118" d="M1049.087,222.18c-117.748,0-210.867-55.192-300.933-108.591C658.775,60.629,566.343,5.838,450.217,5.838S241.677,60.648,152.3,113.608c-47.9,28.445-97.43,57.748-150.161,78.467L0,186.619c52.273-20.547,101.608-49.774,149.3-78.047C239.35,55.154,332.449,0,450.216,0S661.083,55.192,751.149,108.572c89.379,52.979,181.792,107.751,297.938,107.751s208.539-54.772,297.918-107.751C1437.072,55.154,1530.152,0,1647.938,0V5.857c-116.126,0-208.558,54.791-297.938,107.751C1259.935,167.007,1166.816,222.18,1049.087,222.18Z" transform="translate(0 678.291)" fill="#fff"/>
          <path id="Path_119" data-name="Path 119" d="M1049.087,222.2c-117.748,0-210.867-55.192-300.933-108.572C658.775,60.648,566.343,5.876,450.236,5.876S241.677,60.648,152.3,113.627c-47.9,28.388-97.43,57.748-150.161,78.467L0,186.638c52.273-20.547,101.608-49.793,149.3-78.066C239.369,55.154,332.449,0,450.216,0S661.083,55.192,751.149,108.572c89.379,52.979,181.754,107.77,297.938,107.77s208.539-54.791,297.919-107.77C1437.072,55.154,1530.152,0,1647.939,0V5.876c-116.126,0-208.558,54.772-297.938,107.751C1259.935,167.007,1166.816,222.2,1049.087,222.2Z" transform="translate(0 638.953)" fill="#fff"/>
          <path id="Path_120" data-name="Path 120" d="M1049.087,222.18c-117.748,0-210.867-55.192-300.933-108.572C658.775,60.629,566.343,5.857,450.217,5.857S241.677,60.629,152.3,113.608C104.394,142,54.868,171.357,2.137,192.094L0,186.619c52.273-20.547,101.608-49.793,149.3-78.047C239.35,55.154,332.449,0,450.216,0S661.083,55.192,751.149,108.572c89.379,53,181.754,107.751,297.938,107.751s208.539-54.753,297.918-107.751C1437.072,55.154,1530.152,0,1647.939,0V5.857c-116.127,0-208.558,54.772-297.938,107.751C1259.935,166.988,1166.816,222.18,1049.087,222.18Z" transform="translate(0 599.634)" fill="#fff"/>
          <path id="Path_121" data-name="Path 121" d="M1049.087,222.2c-117.748,0-210.867-55.211-300.933-108.591C658.775,60.648,566.343,5.857,450.217,5.857S241.677,60.629,152.3,113.608C104.394,142,54.868,171.357,2.137,192.075L0,186.619c52.273-20.547,101.608-49.774,149.3-78.047C239.35,55.154,332.449,0,450.216,0S661.083,55.192,751.149,108.572c89.379,52.979,181.792,107.751,297.938,107.751s208.539-54.772,297.918-107.751C1437.072,55.154,1530.152,0,1647.938,0V5.857c-116.126,0-208.558,54.791-297.938,107.751C1259.935,166.988,1166.816,222.2,1049.087,222.2Z" transform="translate(0 560.295)" fill="#fff"/>
          <path id="Path_122" data-name="Path 122" d="M1049.087,222.161c-117.748,0-210.867-55.192-300.933-108.572C658.775,60.61,566.343,5.819,450.217,5.819S241.658,60.61,152.279,113.589c-47.885,28.388-97.411,57.729-150.142,78.467L0,186.6c52.273-20.566,101.608-49.793,149.3-78.028C239.35,55.154,332.449,0,450.216,0S661.083,55.154,751.149,108.572c89.379,52.979,181.792,107.77,297.938,107.77s208.539-54.83,297.918-107.77C1437.072,55.154,1530.152,0,1647.939,0V5.857c-116.127,0-208.558,54.791-297.938,107.77C1259.935,166.969,1166.816,222.161,1049.087,222.161Z" transform="translate(0 520.995)" fill="#fff"/>
          <path id="Path_123" data-name="Path 123" d="M1049.087,222.2c-117.748,0-210.867-55.192-300.933-108.572C658.775,60.648,566.343,5.876,450.217,5.876S241.658,60.648,152.279,113.608C104.394,142,54.868,171.357,2.137,192.075L0,186.638c52.273-20.547,101.608-49.793,149.3-78.047C239.35,55.173,332.449,0,450.216,0S661.083,55.211,751.149,108.591c89.379,52.96,181.792,107.751,297.938,107.751s208.539-54.791,297.918-107.751C1437.072,55.173,1530.152,0,1647.938,0V5.876c-116.126,0-208.558,54.772-297.938,107.751C1259.935,167.026,1166.816,222.2,1049.087,222.2Z" transform="translate(0 481.618)" fill="#fff"/>
          <path id="Path_124" data-name="Path 124" d="M1049.087,222.18c-117.748,0-210.867-55.192-300.933-108.572C658.775,60.648,566.343,5.857,450.217,5.857S241.658,60.629,152.279,113.608C104.394,142,54.868,171.357,2.137,192.075L0,186.619c52.273-20.547,101.608-49.774,149.3-78.047C239.35,55.154,332.449,0,450.216,0S661.083,55.192,751.149,108.572c89.379,52.979,181.792,107.751,297.938,107.751s208.539-54.772,297.918-107.751C1437.072,55.154,1530.152,0,1647.938,0V5.857c-116.126,0-208.558,54.791-297.938,107.751C1259.935,166.988,1166.816,222.18,1049.087,222.18Z" transform="translate(0 442.299)" fill="#fff"/>
          <path id="Path_125" data-name="Path 125" d="M1049.087,222.2c-117.748,0-210.867-55.192-300.933-108.572-89.379-53-181.811-107.77-297.919-107.77S241.677,60.629,152.3,113.608c-47.9,28.407-97.43,57.672-150.161,78.467L0,186.543c52.273-20.47,101.608-49.6,149.3-77.971C239.35,55.154,332.449,0,450.216,0S661.083,55.192,751.149,108.572c89.379,52.979,181.754,107.751,297.938,107.751s208.539-54.772,297.919-107.751C1437.072,55.154,1530.152,0,1647.939,0V5.857c-116.126,0-208.558,54.791-297.938,107.77C1259.935,167.007,1166.816,222.2,1049.087,222.2Z" transform="translate(0 402.961)" fill="#fff"/>
          <path id="Path_126" data-name="Path 126" d="M1049.087,222.2c-117.748,0-210.867-55.192-300.933-108.572C658.775,60.648,566.343,5.876,450.217,5.876S241.658,60.648,152.279,113.627c-47.885,28.311-97.411,57.748-150.142,78.467L0,186.638c52.273-20.547,101.608-49.793,149.3-78.066C239.35,55.154,332.449,0,450.216,0S661.083,55.192,751.149,108.572c89.379,52.979,181.754,107.77,297.938,107.77s208.539-54.791,297.919-107.77C1437.072,55.154,1530.152,0,1647.939,0V5.876c-116.126,0-208.558,54.772-297.938,107.751C1259.935,167.007,1166.816,222.2,1049.087,222.2Z" transform="translate(0 363.622)" fill="#fff"/>
          <path id="Path_127" data-name="Path 127" d="M1049.087,222.18c-117.748,0-210.867-55.192-300.933-108.572C658.775,60.629,566.343,5.857,450.217,5.857S241.677,60.629,152.3,113.608C104.394,142,54.868,171.357,2.137,192.075L0,186.619C52.273,166,101.608,136.826,149.3,108.572,239.369,55.154,332.449,0,450.216,0S661.083,55.192,751.149,108.572c89.379,52.979,181.792,107.751,297.938,107.751s208.539-54.772,297.918-107.751C1437.072,55.154,1530.152,0,1647.938,0V5.857c-116.126,0-208.558,54.772-297.938,107.751C1259.935,166.988,1166.816,222.18,1049.087,222.18Z" transform="translate(0 324.303)" fill="#fff"/>
          <path id="Path_128" data-name="Path 128" d="M1049.087,222.2c-117.748,0-210.867-55.211-300.933-108.572C658.775,60.648,566.343,5.857,450.217,5.857S241.658,60.648,152.279,113.627C104.394,142,54.868,171.357,2.137,192.075L0,186.619c52.273-20.547,101.608-49.774,149.3-78.047C239.35,55.154,332.449,0,450.216,0S661.083,55.192,751.149,108.572c89.379,52.979,181.792,107.751,297.938,107.751s208.539-54.772,297.918-107.751C1437.072,55.154,1530.152,0,1647.938,0V5.857c-116.126,0-208.558,54.791-297.938,107.77C1259.935,166.988,1166.816,222.2,1049.087,222.2Z" transform="translate(0 284.965)" fill="#fff"/>
          <path id="Path_129" data-name="Path 129" d="M1049.087,222.2c-117.748,0-210.867-55.192-300.933-108.572C658.775,60.648,566.343,5.876,450.217,5.876S241.677,60.648,152.3,113.627c-47.9,28.388-97.43,57.748-150.161,78.467L0,186.638c52.273-20.566,101.608-49.793,149.3-78.066C239.35,55.154,332.449,0,450.216,0S661.083,55.192,751.149,108.572c89.379,52.979,181.792,107.77,297.938,107.77s208.539-54.791,297.918-107.77C1437.072,55.154,1530.152,0,1647.938,0V5.876c-116.126,0-208.558,54.772-297.938,107.751C1259.935,167.007,1166.816,222.2,1049.087,222.2Z" transform="translate(0 245.626)" fill="#fff"/>
          <path id="Path_130" data-name="Path 130" d="M1049.087,222.123c-117.748,0-210.867-55.192-300.933-108.572C658.775,60.572,566.343,5.8,450.217,5.8S241.677,60.572,152.3,113.551c-47.9,28.388-97.43,57.825-150.161,78.467L0,186.638c52.273-20.547,101.608-49.793,149.3-78.047C239.369,55.173,332.449,0,450.216,0S661.083,55.211,751.149,108.591c89.379,52.96,181.792,107.751,297.938,107.751s208.539-54.791,297.918-107.751C1437.072,55.173,1530.152,0,1647.938,0V5.876c-116.126,0-208.558,54.772-297.938,107.751C1259.935,166.931,1166.816,222.123,1049.087,222.123Z" transform="translate(0 206.364)" fill="#fff"/>
          <path id="Path_131" data-name="Path 131" d="M1049.087,222.218c-117.748,0-210.867-55.192-300.933-108.572C658.775,60.648,566.343,5.857,450.236,5.857S241.677,60.629,152.3,113.608c-47.9,28.483-97.43,57.748-150.161,78.467L0,186.619c52.273-20.547,101.608-49.774,149.3-78.047C239.35,55.154,332.449,0,450.216,0S661.083,55.192,751.149,108.572c89.379,52.979,181.754,107.751,297.938,107.751s208.539-54.772,297.919-107.751C1437.072,55.154,1530.152,0,1647.939,0V5.857c-116.126,0-208.558,54.791-297.938,107.751C1259.935,166.988,1166.816,222.218,1049.087,222.218Z" transform="translate(0 166.969)" fill="#fff"/>
          <path id="Path_132" data-name="Path 132" d="M1049.087,222.2c-117.748,0-210.867-55.192-300.933-108.572C658.775,60.648,566.343,5.914,450.236,5.914S241.658,60.648,152.279,113.627c-47.885,28.388-97.411,57.729-150.142,78.467L0,186.619c52.273-20.451,101.608-49.774,149.3-78.047C239.35,55.154,332.449,0,450.216,0S661.083,55.192,751.149,108.572c89.379,52.979,181.792,107.751,297.938,107.751s208.539-54.772,297.918-107.751C1437.072,55.154,1530.152,0,1647.938,0V5.914c-116.126,0-208.558,54.791-297.938,107.77C1259.935,167.007,1166.816,222.2,1049.087,222.2Z" transform="translate(0 127.63)" fill="#fff"/>
          <path id="Path_133" data-name="Path 133" d="M1049.087,222.2c-117.748,0-210.867-55.192-300.933-108.572C658.775,60.648,566.343,5.876,450.236,5.876S241.677,60.648,152.3,113.627c-47.9,28.388-97.43,57.748-150.161,78.524L0,186.638c52.273-20.547,101.608-49.793,149.3-78.066C239.35,55.154,332.449,0,450.216,0S661.083,55.211,751.149,108.572c89.379,53.055,181.754,107.77,297.938,107.77s208.539-54.715,297.918-107.77C1437.072,55.154,1530.152,0,1647.939,0V5.876c-116.127,0-208.558,54.772-297.938,107.751C1259.935,167.007,1166.816,222.2,1049.087,222.2Z" transform="translate(0 88.292)" fill="#fff"/>
          <path id="Path_134" data-name="Path 134" d="M1049.087,222.18c-117.748,0-210.867-55.192-300.933-108.572C658.775,60.629,566.343,5.857,450.236,5.857S241.677,60.629,152.3,113.608C104.394,142,54.868,171.357,2.137,192.075L0,186.619c52.273-20.547,101.608-49.774,149.3-78.047C239.369,55.154,332.449,0,450.216,0S661.083,55.192,751.149,108.572c89.379,52.979,181.792,107.751,297.938,107.751s208.539-54.772,297.919-107.751C1437.072,55.154,1530.152,0,1647.939,0V5.857c-116.126,0-208.558,54.772-297.938,107.751C1259.935,166.988,1166.816,222.18,1049.087,222.18Z" transform="translate(0 48.973)" fill="#fff"/>
          <path id="Path_135" data-name="Path 135" d="M1049.087,222.123c-117.748,0-210.867-55.192-300.933-108.572C658.775,60.572,566.343,5.781,450.236,5.781S241.677,60.572,152.3,113.532C104.394,141.92,54.868,171.28,2.137,192L0,186.543C52.273,166,101.608,136.769,149.3,108.572,239.35,55.154,332.449,0,450.216,0S661.083,55.154,751.149,108.572c89.379,52.9,181.754,107.675,297.938,107.675s208.539-54.772,297.918-107.675C1437.072,55.154,1530.152,0,1647.939,0V5.781c-116.127,0-208.558,54.791-297.938,107.77C1259.935,166.931,1166.816,222.123,1049.087,222.123Z" transform="translate(0 9.711)" fill="#fff"/>
          <path id="Path_136" data-name="Path 136" d="M451.266,192.495c-117.748,0-210.886-55.135-300.952-108.553C102.333,55.459,52.731,26.041,0,5.456L2.137,0c53.113,20.757,103.02,50.289,151.172,78.868,89.379,52.979,181.773,107.77,297.957,107.77s208.539-54.791,297.919-107.77C797.413,50.251,847.263,20.757,900.376,0l2.137,5.456c-52.674,20.585-102.314,50-150.333,78.486C662.113,137.36,568.995,192.495,451.266,192.495Z" transform="translate(597.821)" fill="#fff"/>
          <path id="Path_137" data-name="Path 137" d="M2.137,162.39,0,156.934c52.273-20.566,101.608-49.793,149.3-78.066C197.512,50.251,247.362,20.757,300.475,0l2.137,5.456c-52.693,20.585-102.3,50-150.314,78.486S54.868,141.672,2.137,162.39Z" transform="translate(0 0)" fill="#fff"/>
          <path id="Path_138" data-name="Path 138" d="M368.983,153C251.235,153,158.117,97.812,68.05,44.432,45.863,31.288,22.932,17.723,0,5.151L2.881,0c23.008,12.591,46,26.213,68.2,39.4,89.341,52.96,181.716,107.751,297.9,107.751S577.523,92.356,666.9,39.4C689.128,26.213,712.116,12.687,735.124,0l2.824,5.151C715.054,17.685,692.161,31.288,669.9,44.432,579.831,97.812,486.712,153,368.983,153Z" transform="translate(680.104 0.153)" fill="#fff"/>
          <path id="Path_139" data-name="Path 139" d="M2.137,122.9,0,117.443C52.273,96.9,101.589,67.669,149.284,39.4c22.226-13.183,45.31-26.8,68.2-39.4l2.8,5.151C197.4,17.685,174.5,31.288,152.241,44.432,104.375,72.82,54.849,102.181,2.137,122.9Z" transform="translate(0 0.153)" fill="#fff"/>
          <path id="Path_140" data-name="Path 140" d="M300.933,113.627C183.185,113.627,90.066,58.416,0,5.037L3,0C92.375,52.979,184.749,107.751,300.933,107.751S509.472,52.979,598.851.019l3,5.017C511.78,58.435,418.662,113.627,300.933,113.627Z" transform="translate(748.154 0.21)" fill="#fff"/>
          <path id="Path_141" data-name="Path 141" d="M2.137,83.465,0,77.971C52.254,57.481,101.551,28.254,149.226,0l3.052,5C104.336,33.424,54.83,62.709,2.137,83.465Z" transform="translate(0 0.248)" fill="#fff"/>
          <path id="Path_142" data-name="Path 142" d="M232.749,74.346c-93.6,0-170.155-34.989-232.749-69.2L2.862,0C64.75,33.863,140.47,68.527,232.749,68.527S400.824,33.863,462.636,0l2.8,5.151C402.9,39.357,326.421,74.346,232.749,74.346Z" transform="translate(816.338 0.153)" fill="#fff"/>
          <path id="Path_143" data-name="Path 143" d="M2.137,44.241,0,38.766A701.127,701.127,0,0,0,81.252,0l2.8,5.151a708.184,708.184,0,0,1-81.92,39.09Z" transform="translate(0 0.153)" fill="#fff"/>
          <path id="Path_144" data-name="Path 144" d="M149.741,35.16c-49.6,0-98.594-9.711-149.741-29.7L2.118,0c50.518,19.707,98.766,29.3,147.624,29.3s97.125-9.539,147.6-29.3l2.118,5.456C248.316,25.45,199.325,35.16,149.741,35.16Z" transform="translate(899.346)" fill="#fff"/>
        </g>
      </g>
    </g>
  </g>
</svg>
