<svg xmlns="http://www.w3.org/2000/svg" width="231.757" height="67.647" viewBox="0 0 231.757 67.647">
  <g id="Group_615" data-name="Group 615" transform="translate(0 -2)">
    <path id="Path_3270" data-name="Path 3270" d="M1743.556,32.9l-6.984.5V6.583L1743.556,2l14.682,23.864L1773.392,2l6.984,4.583V33.392l-6.984-.5V16.726L1762.72,32.881h-9.1l-10.062-16.3Z" transform="translate(-1642.256)" fill="#ed3237" fill-rule="evenodd"/>
    <path id="Path_3271" data-name="Path 3271" d="M2638.163,185.6l6.984.5V166.925l-6.984-4.583Z" transform="translate(-2494.88 -151.633)" fill="#fff" fill-rule="evenodd"/>
    <path id="Path_3272" data-name="Path 3272" d="M2839.3,376.408l6.984.5V367.36l-6.984-4.583Z" transform="translate(-2685.092 -341.182)" fill="#fff" fill-rule="evenodd"/>
    <path id="Path_3273" data-name="Path 3273" d="M1521.325,189.946l-6.984.5V171.5l6.984-4.583Z" transform="translate(-1432.095 -155.962)" fill="#fff" fill-rule="evenodd"/>
    <path id="Path_3274" data-name="Path 3274" d="M1321.6,371.089l-6.984.5v-9.849l6.984-4.583Z" transform="translate(-1243.214 -335.863)" fill="#fff" fill-rule="evenodd"/>
    <path id="Path_3275" data-name="Path 3275" d="M1092.749,597.329a324.252,324.252,0,0,1,113.059,0v.764a544.654,544.654,0,0,0-113.059,0Z" transform="translate(-1033.4 -558.3)" fill="#fff" fill-rule="evenodd"/>
    <path id="Path_3276" data-name="Path 3276" d="M1849.726,823.08h4.485l-5.316,4.329H1846.7Zm1.531,19.186h4.6v3.52h-5.882a12.277,12.277,0,0,1-3.67-.462,6.384,6.384,0,0,1-2.5-1.5,7.985,7.985,0,0,1-1.786-2.746,9.163,9.163,0,0,1-.644-3.431,9.755,9.755,0,0,1,.639-3.551,7.571,7.571,0,0,1,1.791-2.762,6.5,6.5,0,0,1,2.533-1.5,12.22,12.22,0,0,1,3.639-.462h5.882v3.551h-4.6q-3.052,0-4.21,1.054a4.832,4.832,0,0,0-1.152,3.67,5.749,5.749,0,0,0,.472,2.492,3.724,3.724,0,0,0,1.459,1.6,3.477,3.477,0,0,0,1.132.41A14.952,14.952,0,0,0,1851.257,842.266Zm-12.687,3.52h-4.547V829.372h4.547Zm0-18.283h-4.547v-4.08h4.547Zm-25.379,1.869h4.864l4.547,11.654,4.823-11.654h4.672l-7.288,16.414h-4.672Zm-7.257,16.414q-4.072,0-6.162-2.077t-2.087-6.125q0-4.041,2.1-6.131t6.151-2.082h6.328V832.8h-5.736a5.3,5.3,0,0,0-3.172.67,3.156,3.156,0,0,0-.872,2.414h9.78v3.426h-9.78a3.238,3.238,0,0,0,.815,2.409q.747.646,3.2.644h5.762v3.426Zm-21.086-22.706,2.647,2.279,2.648-2.279h2.18l-3.016,4.329h-3.623l-3.016-4.329Zm-4.984,19.28H1789a3.192,3.192,0,0,0,1.77-.379,1.613,1.613,0,0,0-.005-2.44,3.164,3.164,0,0,0-1.765-.389h-3.748q-3.325,0-4.5-1.017t-1.173-3.623a4.938,4.938,0,0,1,1.412-3.893,6.5,6.5,0,0,1,4.381-1.246h9.313V832.8h-7.657a5.747,5.747,0,0,0-2.435.327,1.225,1.225,0,0,0-.561,1.158,1.281,1.281,0,0,0,.493,1.116,2.7,2.7,0,0,0,1.563.358h3.925a6,6,0,0,1,4.1,1.256,4.6,4.6,0,0,1,1.412,3.629,5.418,5.418,0,0,1-1.251,3.712,4.091,4.091,0,0,1-3.229,1.433h-11.187Zm-2.393-4.766a8.243,8.243,0,0,1-2.352,6.167,9.874,9.874,0,0,1-12.687-.005,9.215,9.215,0,0,1,0-12.344,9.817,9.817,0,0,1,12.677,0A8.281,8.281,0,0,1,1777.47,837.594Zm-12.864-.01a5.524,5.524,0,0,0,1.1,3.655,4.221,4.221,0,0,0,6.11,0,6.567,6.567,0,0,0,.01-7.294,4.233,4.233,0,0,0-6.115.005A5.493,5.493,0,0,0,1764.607,837.584Zm-7.169,8.2h-4.516V823.423h4.516Zm-8.2,0h-4.547V829.372h4.547Zm0-18.283h-4.547v-4.08h4.547Zm-31.863,1.869h16.643q3.621,0,5.217,1.417t1.594,4.6v10.4h-4.361v-9.837a3.655,3.655,0,0,0-.545-2.388,3.178,3.178,0,0,0-2.253-.576h-2.435v12.8h-4.423v-12.8h-5.077v12.8h-4.36Z" transform="translate(-1624.104 -776.486)" fill="#fff"/>
    <path id="Path_3277" data-name="Path 3277" d="M79.973,852.2H75.461V829.853h4.512Zm-13.536,0a13.507,13.507,0,0,1-3.376-.42,5.89,5.89,0,0,1-2.878-1.758,6.688,6.688,0,0,1-1.447-2.49,11.736,11.736,0,0,1-.545-2.863v-1.042a2.971,2.971,0,0,1,.031-.42,10.986,10.986,0,0,1,.545-2.754,6.675,6.675,0,0,1,1.416-2.412,5.8,5.8,0,0,1,2.878-1.789,13.5,13.5,0,0,1,3.376-.42l6.317-.031v3.423H67.028a7.15,7.15,0,0,0-2.894.545q-1.089.513-1.151,2.567l9.771-.031v3.423H62.983q.062,2.147,1.089,2.614A7.281,7.281,0,0,0,67,848.8l5.757-.031V852.2ZM44.623,835.8h3.05v-5.944H52V835.8h4.574v3.267H52v6.628q-.031,2.458,1.12,2.863a9.913,9.913,0,0,0,3.174.4h.28V852.2H52.62a4.754,4.754,0,0,1-3.7-1.369,5.342,5.342,0,0,1-1.245-3.734v-8.028h-3.05Zm-11.2,12.914a4.224,4.224,0,0,0,.42.156,3,3,0,0,0,.389.093,4.153,4.153,0,0,0,2.8-.56,3.778,3.778,0,0,0,1.743-2.272,7.324,7.324,0,0,0,.233-1.136,9.654,9.654,0,0,0,.078-1.229,6.627,6.627,0,0,0-.653-2.6,3.6,3.6,0,0,0-1.9-1.789,2.8,2.8,0,0,0-.591-.187q-.311-.062-.591-.093a4.236,4.236,0,0,0-2.676.654,3.835,3.835,0,0,0-1.68,2.178,7.441,7.441,0,0,0-.233,1.1,5.984,5.984,0,0,0-.047,1.136,6.453,6.453,0,0,0,.669,2.754,3.6,3.6,0,0,0,2.038,1.82Zm7.748,1.525a7.217,7.217,0,0,1-2.847,1.743,10.713,10.713,0,0,1-3.439.56,10.573,10.573,0,0,1-3.423-.56,7.416,7.416,0,0,1-2.832-1.711,7.524,7.524,0,0,1-1.82-2.832,9.784,9.784,0,0,1,0-6.784,7.435,7.435,0,0,1,4.668-4.559,10.464,10.464,0,0,1,6.846,0,7.435,7.435,0,0,1,4.668,4.559,9.784,9.784,0,0,1,0,6.784,7.524,7.524,0,0,1-1.82,2.832ZM0,835.8H16.617A8.985,8.985,0,0,1,21.6,837.1q1.8,1.245,1.836,4.73V852.2H19.075v-9.833q0-2.3-.98-2.661a8.321,8.321,0,0,0-2.941-.3q-.311.031-.638.031h-.669V852.2H9.429V839.406H4.356V852.2H0Z" transform="translate(0 -782.891)" fill="#fff"/>
  </g>
</svg>
