<svg xmlns="http://www.w3.org/2000/svg" width="219.873" height="64.178" viewBox="400.063 738.734 219.873 64.178"><g data-name="Group 620"><path d="M475.936 802.588h-4.281v-21.197h4.28v21.197Zm-12.843 0c-1.102 0-2.17-.133-3.203-.399-1.033-.265-1.943-.821-2.73-1.668a6.345 6.345 0 0 1-1.373-2.361 11.135 11.135 0 0 1-.517-2.717v-.988c0-.128.01-.261.03-.399.059-.886.23-1.757.516-2.613a6.332 6.332 0 0 1 1.343-2.288c.788-.866 1.698-1.432 2.731-1.697a12.808 12.808 0 0 1 3.203-.399l5.993-.03v3.248h-5.432c-1.141.02-2.056.192-2.745.517-.689.324-1.053 1.136-1.093 2.435l9.27-.03v3.248h-9.27c.04 1.358.384 2.185 1.034 2.48.65.295 1.574.443 2.775.443l5.461-.03v3.248h-5.993Zm-20.695-15.558h2.894v-5.64h4.103v5.64h4.34v3.1h-4.34v6.288c-.02 1.555.335 2.46 1.063 2.716.728.256 1.732.384 3.011.384h.266v3.07h-3.75c-1.554 0-2.725-.433-3.513-1.3-.787-.865-1.18-2.046-1.18-3.542v-7.616h-2.894v-3.1ZM431.77 799.28c.138.06.271.109.399.148.128.04.25.069.369.089a3.94 3.94 0 0 0 2.657-.532c.827-.492 1.378-1.21 1.653-2.155a6.95 6.95 0 0 0 .222-1.077 9.16 9.16 0 0 0 .073-1.167 6.287 6.287 0 0 0-.62-2.465c-.374-.777-.974-1.343-1.8-1.697a2.66 2.66 0 0 0-.561-.177 6.595 6.595 0 0 0-.561-.089 4.018 4.018 0 0 0-2.54.62 3.639 3.639 0 0 0-1.593 2.067 7.058 7.058 0 0 0-.222 1.048c-.05.364-.064.723-.044 1.077.02.925.231 1.796.635 2.613.403.817 1.048 1.392 1.933 1.727v-.03Zm7.351 1.447a6.847 6.847 0 0 1-2.7 1.653c-1.054.354-2.141.532-3.263.532-1.122 0-2.204-.178-3.248-.532a7.036 7.036 0 0 1-2.686-1.623 7.138 7.138 0 0 1-1.727-2.687 9.25 9.25 0 0 1-.576-3.218c0-1.102.192-2.175.576-3.218a7.137 7.137 0 0 1 1.727-2.686c.748-.729 1.648-1.275 2.701-1.639a9.912 9.912 0 0 1 6.495 0c1.053.364 1.953.91 2.701 1.639a7.137 7.137 0 0 1 1.727 2.686 9.249 9.249 0 0 1 .576 3.218 9.25 9.25 0 0 1-.576 3.218 7.138 7.138 0 0 1-1.727 2.687v-.03Zm-39.058-13.698h15.765c2.008.039 3.582.452 4.724 1.24 1.141.787 1.722 2.283 1.742 4.487v9.831h-4.133v-9.33c0-1.456-.31-2.297-.93-2.523-.62-.227-1.55-.32-2.79-.28a6.07 6.07 0 0 1-.605.029h-.635v12.104h-4.192v-12.134h-4.812v12.134h-4.134V787.03Z" fill="#111" fill-rule="evenodd" data-name="Path 3277"/><path d="M614.115 781.042h4.256l-5.044 4.107h-2.078l2.866-4.107Zm1.453 18.202h4.369v3.34h-5.58c-1.414 0-2.571-.148-3.482-.439a6.057 6.057 0 0 1-2.374-1.423c-.72-.714-1.285-1.58-1.694-2.605a8.693 8.693 0 0 1-.61-3.256c0-1.201.201-2.324.605-3.368.404-1.044.97-1.916 1.699-2.62a6.168 6.168 0 0 1 2.403-1.424c.916-.29 2.069-.438 3.453-.438h5.58v3.369h-4.369c-1.93 0-3.26.335-3.994 1-.729.67-1.093 1.831-1.093 3.481 0 .95.147 1.739.448 2.364a3.533 3.533 0 0 0 1.384 1.517c.305.182.665.31 1.074.39.408.073 1.132.112 2.181.112Zm-12.036 3.34h-4.315V787.01h4.315v15.573Zm0-17.346h-4.315v-3.871h4.315v3.871Zm-24.078 1.773h4.614l4.315 11.056 4.575-11.056h4.432l-6.914 15.573h-4.433l-6.59-15.573Zm-6.885 15.573c-2.576 0-4.521-.655-5.846-1.97-1.32-1.315-1.98-3.25-1.98-5.812 0-2.556.665-4.496 1.99-5.816 1.324-1.315 3.27-1.975 5.836-1.975h6.003v3.25h-5.442c-1.487 0-2.492.212-3.01.636-.511.423-.787 1.187-.826 2.29h9.278v3.25h-9.278c.039 1.113.295 1.877.773 2.285.473.41 1.487.611 3.039.611h5.466v3.25h-6.003Zm-20.005-21.542 2.511 2.162 2.512-2.162h2.069l-2.862 4.107h-3.437l-2.862-4.107h2.069Zm-4.728 18.291h8.667c.769 0 1.33-.118 1.68-.36.35-.24.527-.625.527-1.157 0-.527-.177-.916-.532-1.157-.36-.246-.916-.37-1.675-.37h-3.555c-2.103 0-3.527-.32-4.265-.965-.744-.645-1.113-1.793-1.113-3.437 0-1.675.448-2.906 1.34-3.694.896-.788 2.28-1.182 4.156-1.182h8.835v3.25h-7.264c-1.182 0-1.95.104-2.31.31-.354.208-.532.572-.532 1.099 0 .483.158.837.468 1.059.315.226.808.34 1.483.34h3.723c1.699 0 2.994.399 3.89 1.191.892.793 1.34 1.94 1.34 3.443 0 1.443-.394 2.62-1.187 3.521-.793.906-1.812 1.36-3.063 1.36h-10.613v-3.25Zm-2.27-4.521c0 2.443-.744 4.393-2.232 5.85-1.482 1.459-3.487 2.188-6.008 2.188-2.517 0-4.526-.73-6.028-2.192-1.502-1.463-2.251-3.413-2.251-5.846 0-2.443.749-4.398 2.25-5.866 1.503-1.467 3.512-2.201 6.029-2.201 2.502 0 4.501.734 5.998 2.201 1.493 1.468 2.241 3.423 2.241 5.866Zm-12.205-.01c0 1.483.345 2.64 1.04 3.467.689.828 1.66 1.241 2.9 1.241 1.227 0 2.197-.413 2.896-1.24.704-.828 1.054-1.985 1.054-3.468 0-1.477-.35-2.63-1.044-3.452-.7-.823-1.67-1.236-2.906-1.236-1.231 0-2.196.413-2.896 1.24-.694.828-1.044 1.98-1.044 3.448Zm-6.801 7.782h-4.285v-21.217h4.285v21.217Zm-7.776 0h-4.315V787.01h4.315v15.573Zm0-17.346h-4.315v-3.871h4.315v3.871Zm-30.23 1.773h15.79c2.29 0 3.94.448 4.949 1.344 1.01.897 1.512 2.35 1.512 4.364v9.865h-4.137v-9.333c0-1.143-.172-1.901-.517-2.266-.35-.364-1.059-.546-2.137-.546h-2.31v12.145h-4.196v-12.145h-4.817v12.145h-4.137V787.01Z" fill="#111" fill-rule="evenodd" data-name="Path 3276"/><path d="M456.37 773.865c35.366-6.298 71.122-6.264 107.26 0v.724c-35.083-3.685-70.824-3.755-107.26 0v-.724Z" fill="#111" fill-rule="evenodd" data-name="Path 3275"/><path d="m474.427 770.256-6.626.471v-9.344l6.626-4.349v13.222Z" fill="#111" fill-rule="evenodd" data-name="Path 3274"/><path d="m484.719 769.078-6.627.471v-17.968l6.627-4.349v21.846Z" fill="#111" fill-rule="evenodd" data-name="Path 3273"/><path d="m546.363 770.256 6.626.471v-9.055l-6.626-4.348v12.932Z" fill="#111" fill-rule="evenodd" data-name="Path 3272"/><path d="m536 769.06 6.626.471v-18.186l-6.627-4.349v22.064Z" fill="#111" fill-rule="evenodd" data-name="Path 3271"/><path d="m496.17 768.045-6.627.472v-25.434l6.626-4.349 13.93 22.64 14.377-22.64 6.626 4.349v25.434l-6.626-.472v-15.34l-10.125 15.327h-8.635l-9.547-15.46v15.473Z" fill="#ed3237" fill-rule="evenodd" data-name="Path 3270"/></g></svg>