<svg xmlns="http://www.w3.org/2000/svg" width="223.701" height="73.854" viewBox="0 0 223.701 73.854">
  <g id="Group_619" data-name="Group 619" transform="translate(-6.951 -35.236)">
    <g id="Group_617" data-name="Group 617" transform="translate(7.385 35.236)">
      <path id="Path_3294" data-name="Path 3294" d="M344.449,132.346l-4.783,10.9h-5.939l2.243-5.1h-8.515l-2.243,5.1h-5.939l4.783-10.9Z" transform="translate(-286.908 -122.148)" fill="#d4001a" fill-rule="evenodd"/>
      <path id="Path_3295" data-name="Path 3295" d="M386.144,40.333l.129-.293q2.121-4.8,5.575-4.8h11.969a3.089,3.089,0,0,1,2.909,1.392,3.639,3.639,0,0,1-.061,3.413l-.129.293Z" transform="translate(-346.756 -35.236)" fill="#d4001a" fill-rule="evenodd"/>
      <path id="Path_3296" data-name="Path 3296" d="M603.817,132.346l-4.787,10.9H593.09l4.788-10.9Z" transform="translate(-531.968 -122.148)" fill="#d4001a" fill-rule="evenodd"/>
      <path id="Path_3297" data-name="Path 3297" d="M610.81,40.333H590.2l2.243-5.1h20.6Z" transform="translate(-529.386 -35.236)" fill="#d4001a" fill-rule="evenodd"/>
      <path id="Path_3298" data-name="Path 3298" d="M760.759,132.346a9.032,9.032,0,0,1-2.255,2.56,6.855,6.855,0,0,1-4.379,1.421H754l2.636,6.914h-6.818l-2.06-6.914h-2.879l-3.03,6.914h-5.939l4.789-10.9Z" transform="translate(-659.794 -122.148)" fill="#d4001a" fill-rule="evenodd"/>
      <path id="Path_3299" data-name="Path 3299" d="M802.87,40.333l2.241-5.1h15.151a3.081,3.081,0,0,1,2.909,1.406,3.613,3.613,0,0,1-.061,3.4l-.129.293Z" transform="translate(-719.718 -35.236)" fill="#d4001a" fill-rule="evenodd"/>
      <path id="Path_3300" data-name="Path 3300" d="M998.574,132.346l-2.667,6.09a9.073,9.073,0,0,1-2.651,3.413,6,6,0,0,1-3.833,1.392H978.242a3.124,3.124,0,0,1-2.924-1.392,3.559,3.559,0,0,1,.075-3.413l2.667-6.09h5.925l-2.38,5.417q-.151.381.242.38H989.7a.546.546,0,0,0,.545-.38l2.38-5.417Z" transform="translate(-873.698 -122.148)" fill="#d4001a" fill-rule="evenodd"/>
      <path id="Path_3301" data-name="Path 3301" d="M1026.112,40.333l.128-.293a8.753,8.753,0,0,1,2.636-3.413,6.064,6.064,0,0,1,3.848-1.392h11.181a3.088,3.088,0,0,1,2.908,1.392,3.635,3.635,0,0,1-.061,3.413l-.128.293Z" transform="translate(-919.515 -35.236)" fill="#d4001a" fill-rule="evenodd"/>
      <path id="Path_3302" data-name="Path 3302" d="M1199.065,132.346l-2.547,5.8h10.211l-2.242,5.1h-16.151l4.789-10.9Z" transform="translate(-1064.703 -122.148)" fill="#d4001a" fill-rule="evenodd"/>
      <path id="Path_3303" data-name="Path 3303" d="M1261.23,40.333h-5.94l2.241-5.1h5.939Z" transform="translate(-1124.626 -35.236)" fill="#d4001a" fill-rule="evenodd"/>
      <path id="Path_3304" data-name="Path 3304" d="M120.938,45.431H134.48a.582.582,0,0,0,.545-.381l1.909-4.336a.316.316,0,0,0,.03-.146.211.211,0,0,0-.242-.235H123.179l2.241-5.1h14.908a3.359,3.359,0,0,1,2.409.82,2.815,2.815,0,0,1,.863,2.139,4.454,4.454,0,0,1-.424,1.845l-2.393,5.449a8.915,8.915,0,0,1-2.637,3.4,6.027,6.027,0,0,1-3.848,1.406h-9.575l-2.636,6.035h-5.939Z" transform="translate(-105.114 -35.236)" fill="#d4001a"/>
      <path id="Path_3305" data-name="Path 3305" d="M118.659,83.772h-5.272l-2.336,5.1h5.272Z" transform="translate(-100.553 -78.675)" fill="#d4001a" fill-rule="evenodd"/>
      <path id="Path_3306" data-name="Path 3306" d="M18.69,83.8H13.417l-2.335,5.1h5.272Z" transform="translate(-11.082 -78.703)" fill="#d4001a" fill-rule="evenodd"/>
      <path id="Path_3307" data-name="Path 3307" d="M90.689,35.236H85.417l-2.335,5.1h5.272Z" transform="translate(-75.52 -35.236)" fill="#d4001a" fill-rule="evenodd"/>
      <path id="Path_3308" data-name="Path 3308" d="M46.212,132.314H40.939l-2.335,5.1h5.272Z" transform="translate(-35.713 -122.119)" fill="#d4001a" fill-rule="evenodd"/>
      <path id="Path_3309" data-name="Path 3309" d="M1429.243,56.391l7.051-16.043h-7.355l2.249-5.113h20.666l-2.249,5.113h-7.354L1435.2,56.391Z" transform="translate(-1280.038 -35.236)" fill="#d4001a"/>
      <path id="Path_3310" data-name="Path 3310" d="M1592.843,46.989l2.583-5.906q.334-.734-.426-.734h-7.021a1.131,1.131,0,0,0-1.094.734l-2.583,5.906Zm-11.457-6.934q2.127-4.818,5.592-4.818h12a3.1,3.1,0,0,1,2.918,1.4,3.65,3.65,0,0,1-.061,3.423l-7.172,16.337h-5.956l2.249-5.113h-8.539l-2.249,5.113h-5.956Z" transform="translate(-1410.056 -35.236)" fill="#d4001a"/>
      <path id="Path_3311" data-name="Path 3311" d="M1788.952,45.638l-2.583-10.4h7.111l1.033,5.994,6.048-5.994h7.415l-11.761,10.578,2.461,10.577h-7.051l-1.124-6.024-6.078,6.024h-7.354Z" transform="translate(-1591.609 -35.236)" fill="#d4001a"/>
      <path id="Path_3312" data-name="Path 3312" d="M2001.091,35.236h5.957l-9.3,21.155h-5.957Z" transform="translate(-1783.781 -35.236)" fill="#d4001a"/>
    </g>
    <path id="Path_3313" data-name="Path 3313" d="M62.971,319.587H60.226l-1.217,2.655h2.746Z" transform="translate(-46.591 -254.489)" fill="#636666" fill-rule="evenodd"/>
    <path id="Path_3314" data-name="Path 3314" d="M10.913,319.6H8.168l-1.217,2.655H9.7Z" transform="translate(0 -254.504)" fill="#636666" fill-rule="evenodd"/>
    <path id="Path_3315" data-name="Path 3315" d="M48.406,294.309H45.661l-1.217,2.655H47.19Z" transform="translate(-33.555 -231.866)" fill="#e71726" fill-rule="evenodd"/>
    <path id="Path_3316" data-name="Path 3316" d="M25.248,344.865H22.5l-1.216,2.654h2.745Z" transform="translate(-12.829 -277.112)" fill="#e71726" fill-rule="evenodd"/>
    <path id="Path_3317" data-name="Path 3317" d="M115.276,319.522h-2.745l-1.217,2.655h2.746Z" transform="translate(-93.403 -254.431)" fill="#636666" fill-rule="evenodd"/>
    <path id="Path_3318" data-name="Path 3318" d="M100.711,294.245H97.966L96.749,296.9h2.746Z" transform="translate(-80.367 -231.808)" fill="#e71726" fill-rule="evenodd"/>
    <path id="Path_3319" data-name="Path 3319" d="M77.553,344.8H74.807l-1.216,2.654h2.745Z" transform="translate(-59.641 -277.054)" fill="#e71726" fill-rule="evenodd"/>
    <path id="Path_3320" data-name="Path 3320" d="M167.508,319.5h-2.745l-1.217,2.655h2.746Z" transform="translate(-140.149 -254.411)" fill="#636666" fill-rule="evenodd"/>
    <path id="Path_3321" data-name="Path 3321" d="M152.943,294.222H150.2l-1.217,2.655h2.746Z" transform="translate(-127.114 -231.788)" fill="#e71726" fill-rule="evenodd"/>
    <path id="Path_3322" data-name="Path 3322" d="M129.785,344.778h-2.745l-1.216,2.654h2.745Z" transform="translate(-106.388 -277.035)" fill="#e71726" fill-rule="evenodd"/>
    <path id="Path_3323" data-name="Path 3323" d="M219.813,319.436h-2.745l-1.217,2.655H218.6Z" transform="translate(-186.961 -254.354)" fill="#636666" fill-rule="evenodd"/>
    <path id="Path_3324" data-name="Path 3324" d="M205.248,294.158H202.5l-1.217,2.655h2.746Z" transform="translate(-173.926 -231.73)" fill="#e71726" fill-rule="evenodd"/>
    <path id="Path_3325" data-name="Path 3325" d="M182.089,344.714h-2.745l-1.216,2.654h2.745Z" transform="translate(-153.2 -276.977)" fill="#e71726" fill-rule="evenodd"/>
    <path id="Path_3326" data-name="Path 3326" d="M272.16,319.524h-2.745l-1.217,2.655h2.746Z" transform="translate(-233.811 -254.433)" fill="#636666" fill-rule="evenodd"/>
    <path id="Path_3327" data-name="Path 3327" d="M257.594,294.246h-2.745l-1.217,2.655h2.746Z" transform="translate(-220.775 -231.809)" fill="#e71726" fill-rule="evenodd"/>
    <path id="Path_3328" data-name="Path 3328" d="M234.436,344.8h-2.745l-1.216,2.654h2.745Z" transform="translate(-200.049 -277.056)" fill="#e71726" fill-rule="evenodd"/>
    <path id="Path_3329" data-name="Path 3329" d="M324.465,319.46h-2.745l-1.217,2.655h2.746Z" transform="translate(-280.623 -254.375)" fill="#636666" fill-rule="evenodd"/>
    <path id="Path_3330" data-name="Path 3330" d="M309.9,294.182h-2.745l-1.217,2.655h2.746Z" transform="translate(-267.587 -231.752)" fill="#e71726" fill-rule="evenodd"/>
    <path id="Path_3331" data-name="Path 3331" d="M286.741,344.737H284l-1.216,2.654h2.745Z" transform="translate(-246.861 -276.998)" fill="#e71726" fill-rule="evenodd"/>
    <path id="Path_3332" data-name="Path 3332" d="M376.7,319.437h-2.745l-1.217,2.655h2.746Z" transform="translate(-327.369 -254.355)" fill="#636666" fill-rule="evenodd"/>
    <path id="Path_3333" data-name="Path 3333" d="M362.131,294.159h-2.745l-1.217,2.655h2.746Z" transform="translate(-314.334 -231.732)" fill="#e71726" fill-rule="evenodd"/>
    <path id="Path_3334" data-name="Path 3334" d="M338.973,344.715h-2.745l-1.216,2.654h2.745Z" transform="translate(-293.608 -276.978)" fill="#e71726" fill-rule="evenodd"/>
    <path id="Path_3335" data-name="Path 3335" d="M428.87,319.42h-2.745l-1.217,2.655h2.746Z" transform="translate(-374.064 -254.339)" fill="#636666" fill-rule="evenodd"/>
    <path id="Path_3336" data-name="Path 3336" d="M414.3,294.142h-2.745l-1.217,2.655h2.746Z" transform="translate(-361.028 -231.716)" fill="#e71726" fill-rule="evenodd"/>
    <path id="Path_3337" data-name="Path 3337" d="M391.146,344.7H388.4l-1.216,2.654h2.745Z" transform="translate(-340.302 -276.962)" fill="#e71726" fill-rule="evenodd"/>
    <path id="Path_3338" data-name="Path 3338" d="M481.175,319.355h-2.745l-1.217,2.655h2.746Z" transform="translate(-420.875 -254.281)" fill="#636666" fill-rule="evenodd"/>
    <path id="Path_3339" data-name="Path 3339" d="M466.61,294.077h-2.745l-1.217,2.655h2.746Z" transform="translate(-407.84 -231.658)" fill="#e71726" fill-rule="evenodd"/>
    <path id="Path_3340" data-name="Path 3340" d="M443.451,344.633h-2.745l-1.216,2.654h2.745Z" transform="translate(-387.114 -276.905)" fill="#e71726" fill-rule="evenodd"/>
    <path id="Path_3341" data-name="Path 3341" d="M533.407,319.333h-2.745l-1.217,2.655h2.746Z" transform="translate(-467.622 -254.261)" fill="#636666" fill-rule="evenodd"/>
    <path id="Path_3342" data-name="Path 3342" d="M518.841,294.055H516.1l-1.217,2.655h2.746Z" transform="translate(-454.587 -231.638)" fill="#e71726" fill-rule="evenodd"/>
    <path id="Path_3343" data-name="Path 3343" d="M495.683,344.611h-2.745l-1.216,2.654h2.745Z" transform="translate(-433.861 -276.885)" fill="#e71726" fill-rule="evenodd"/>
    <path id="Path_3344" data-name="Path 3344" d="M585.712,319.268h-2.745l-1.216,2.655H584.5Z" transform="translate(-514.434 -254.204)" fill="#636666" fill-rule="evenodd"/>
    <path id="Path_3345" data-name="Path 3345" d="M571.146,293.99H568.4l-1.217,2.655h2.746Z" transform="translate(-501.398 -231.58)" fill="#e71726" fill-rule="evenodd"/>
    <path id="Path_3346" data-name="Path 3346" d="M547.988,344.546h-2.745l-1.216,2.654h2.745Z" transform="translate(-480.672 -276.827)" fill="#e71726" fill-rule="evenodd"/>
    <path id="Path_3347" data-name="Path 3347" d="M638.058,319.357h-2.745l-1.217,2.655h2.746Z" transform="translate(-561.283 -254.283)" fill="#636666" fill-rule="evenodd"/>
    <path id="Path_3348" data-name="Path 3348" d="M623.493,294.079h-2.745l-1.217,2.655h2.746Z" transform="translate(-548.248 -231.66)" fill="#e71726" fill-rule="evenodd"/>
    <path id="Path_3349" data-name="Path 3349" d="M600.335,344.634h-2.745l-1.216,2.654h2.745Z" transform="translate(-527.522 -276.906)" fill="#e71726" fill-rule="evenodd"/>
    <path id="Path_3350" data-name="Path 3350" d="M690.363,319.292h-2.745l-1.217,2.655h2.746Z" transform="translate(-608.095 -254.225)" fill="#636666" fill-rule="evenodd"/>
    <path id="Path_3351" data-name="Path 3351" d="M675.8,294.014h-2.745l-1.217,2.655h2.746Z" transform="translate(-595.06 -231.602)" fill="#e71726" fill-rule="evenodd"/>
    <path id="Path_3352" data-name="Path 3352" d="M652.64,344.57h-2.745l-1.216,2.654h2.745Z" transform="translate(-574.334 -276.848)" fill="#e71726" fill-rule="evenodd"/>
    <path id="Path_3353" data-name="Path 3353" d="M742.6,319.27H739.85l-1.216,2.655h2.746Z" transform="translate(-654.842 -254.205)" fill="#636666" fill-rule="evenodd"/>
    <path id="Path_3354" data-name="Path 3354" d="M728.03,293.992h-2.745l-1.216,2.655h2.746Z" transform="translate(-641.806 -231.582)" fill="#e71726" fill-rule="evenodd"/>
    <path id="Path_3355" data-name="Path 3355" d="M704.872,344.548h-2.745L700.91,347.2h2.745Z" transform="translate(-621.08 -276.828)" fill="#e71726" fill-rule="evenodd"/>
    <path id="Path_3356" data-name="Path 3356" d="M794.562,319.284h-2.745l-1.217,2.655h2.746Z" transform="translate(-701.351 -254.218)" fill="#636666" fill-rule="evenodd"/>
    <path id="Path_3357" data-name="Path 3357" d="M780,294.006h-2.745l-1.217,2.655h2.746Z" transform="translate(-688.315 -231.595)" fill="#e71726" fill-rule="evenodd"/>
    <path id="Path_3358" data-name="Path 3358" d="M756.838,344.562h-2.745l-1.216,2.654h2.745Z" transform="translate(-667.59 -276.841)" fill="#e71726" fill-rule="evenodd"/>
    <path id="Path_3359" data-name="Path 3359" d="M846.867,319.22h-2.745l-1.216,2.655h2.746Z" transform="translate(-748.163 -254.16)" fill="#636666" fill-rule="evenodd"/>
    <path id="Path_3360" data-name="Path 3360" d="M832.3,293.942h-2.745l-1.217,2.655h2.746Z" transform="translate(-735.127 -231.537)" fill="#e71726" fill-rule="evenodd"/>
    <path id="Path_3361" data-name="Path 3361" d="M809.143,344.5H806.4l-1.216,2.654h2.745Z" transform="translate(-714.401 -276.783)" fill="#e71726" fill-rule="evenodd"/>
    <path id="Path_3362" data-name="Path 3362" d="M899.1,319.2h-2.745l-1.216,2.655h2.746Z" transform="translate(-794.909 -254.14)" fill="#636666" fill-rule="evenodd"/>
    <path id="Path_3363" data-name="Path 3363" d="M884.533,293.92h-2.745l-1.216,2.655h2.746Z" transform="translate(-781.874 -231.517)" fill="#e71726" fill-rule="evenodd"/>
    <path id="Path_3364" data-name="Path 3364" d="M861.375,344.475H858.63l-1.216,2.654h2.745Z" transform="translate(-761.148 -276.764)" fill="#e71726" fill-rule="evenodd"/>
    <path id="Path_3365" data-name="Path 3365" d="M951.4,319.133h-2.745l-1.216,2.655h2.746Z" transform="translate(-841.721 -254.083)" fill="#636666" fill-rule="evenodd"/>
    <path id="Path_3366" data-name="Path 3366" d="M936.838,293.855h-2.745l-1.217,2.655h2.746Z" transform="translate(-828.686 -231.459)" fill="#e71726" fill-rule="evenodd"/>
    <path id="Path_3367" data-name="Path 3367" d="M913.68,344.411h-2.745l-1.216,2.654h2.745Z" transform="translate(-807.96 -276.706)" fill="#e71726" fill-rule="evenodd"/>
    <path id="Path_3368" data-name="Path 3368" d="M1003.75,319.221H1001l-1.217,2.655h2.746Z" transform="translate(-888.571 -254.162)" fill="#636666" fill-rule="evenodd"/>
    <path id="Path_3369" data-name="Path 3369" d="M989.185,293.943h-2.745l-1.217,2.655h2.746Z" transform="translate(-875.535 -231.538)" fill="#e71726" fill-rule="evenodd"/>
    <path id="Path_3370" data-name="Path 3370" d="M966.026,344.5h-2.745l-1.216,2.654h2.745Z" transform="translate(-854.809 -276.785)" fill="#e71726" fill-rule="evenodd"/>
    <path id="Path_3371" data-name="Path 3371" d="M1056.055,319.157h-2.745l-1.216,2.655h2.746Z" transform="translate(-935.383 -254.104)" fill="#636666" fill-rule="evenodd"/>
    <path id="Path_3372" data-name="Path 3372" d="M1041.49,293.879h-2.746l-1.216,2.655h2.746Z" transform="translate(-922.347 -231.481)" fill="#e71726" fill-rule="evenodd"/>
    <path id="Path_3373" data-name="Path 3373" d="M1018.331,344.435h-2.745l-1.216,2.654h2.745Z" transform="translate(-901.621 -276.727)" fill="#e71726" fill-rule="evenodd"/>
    <path id="Path_3374" data-name="Path 3374" d="M1108.287,319.135h-2.745l-1.217,2.655h2.746Z" transform="translate(-982.129 -254.084)" fill="#636666" fill-rule="evenodd"/>
    <path id="Path_3375" data-name="Path 3375" d="M1093.722,293.857h-2.745l-1.217,2.655h2.746Z" transform="translate(-969.094 -231.461)" fill="#e71726" fill-rule="evenodd"/>
    <path id="Path_3376" data-name="Path 3376" d="M1070.563,344.412h-2.745l-1.216,2.654h2.745Z" transform="translate(-948.368 -276.707)" fill="#e71726" fill-rule="evenodd"/>
    <path id="Path_3377" data-name="Path 3377" d="M1160.319,319.2h-2.746l-1.216,2.655h2.746Z" transform="translate(-1028.697 -254.142)" fill="#636666" fill-rule="evenodd"/>
    <path id="Path_3378" data-name="Path 3378" d="M1108.261,319.216h-2.745l-1.217,2.655h2.746Z" transform="translate(-982.106 -254.157)" fill="#636666" fill-rule="evenodd"/>
    <path id="Path_3379" data-name="Path 3379" d="M1145.754,293.921h-2.745l-1.216,2.655h2.746Z" transform="translate(-1015.662 -231.519)" fill="#e71726" fill-rule="evenodd"/>
    <path id="Path_3380" data-name="Path 3380" d="M1122.6,344.477h-2.745l-1.216,2.654h2.745Z" transform="translate(-994.935 -276.765)" fill="#e71726" fill-rule="evenodd"/>
    <path id="Path_3381" data-name="Path 3381" d="M1212.624,319.135h-2.745l-1.217,2.655h2.746Z" transform="translate(-1075.509 -254.084)" fill="#636666" fill-rule="evenodd"/>
    <path id="Path_3382" data-name="Path 3382" d="M1198.059,293.857h-2.746l-1.217,2.655h2.746Z" transform="translate(-1062.473 -231.461)" fill="#e71726" fill-rule="evenodd"/>
    <path id="Path_3383" data-name="Path 3383" d="M1174.9,344.413h-2.745l-1.216,2.654h2.745Z" transform="translate(-1041.748 -276.707)" fill="#e71726" fill-rule="evenodd"/>
    <path id="Path_3384" data-name="Path 3384" d="M1264.856,319.113h-2.745l-1.217,2.655h2.746Z" transform="translate(-1122.256 -254.064)" fill="#636666" fill-rule="evenodd"/>
    <path id="Path_3385" data-name="Path 3385" d="M1250.291,293.835h-2.745l-1.217,2.655h2.746Z" transform="translate(-1109.22 -231.441)" fill="#e71726" fill-rule="evenodd"/>
    <path id="Path_3386" data-name="Path 3386" d="M1227.132,344.39h-2.745l-1.216,2.654h2.745Z" transform="translate(-1088.494 -276.688)" fill="#e71726" fill-rule="evenodd"/>
    <path id="Path_3387" data-name="Path 3387" d="M1317.161,319.048h-2.745L1313.2,321.7h2.746Z" transform="translate(-1169.068 -254.007)" fill="#636666" fill-rule="evenodd"/>
    <path id="Path_3388" data-name="Path 3388" d="M1302.6,293.77h-2.746l-1.216,2.655h2.746Z" transform="translate(-1156.032 -231.383)" fill="#e71726" fill-rule="evenodd"/>
    <path id="Path_3389" data-name="Path 3389" d="M1279.437,344.326h-2.745l-1.216,2.654h2.746Z" transform="translate(-1135.306 -276.63)" fill="#e71726" fill-rule="evenodd"/>
    <path id="Path_3390" data-name="Path 3390" d="M1369.507,319.136h-2.745l-1.217,2.655h2.746Z" transform="translate(-1215.917 -254.086)" fill="#636666" fill-rule="evenodd"/>
    <path id="Path_3391" data-name="Path 3391" d="M1354.942,293.858H1352.2l-1.217,2.655h2.746Z" transform="translate(-1202.881 -231.462)" fill="#e71726" fill-rule="evenodd"/>
    <path id="Path_3392" data-name="Path 3392" d="M1331.784,344.414h-2.745l-1.216,2.654h2.745Z" transform="translate(-1182.155 -276.709)" fill="#e71726" fill-rule="evenodd"/>
    <path id="Path_3393" data-name="Path 3393" d="M1421.812,319.072h-2.745l-1.217,2.655h2.746Z" transform="translate(-1262.729 -254.028)" fill="#636666" fill-rule="evenodd"/>
    <path id="Path_3394" data-name="Path 3394" d="M1407.247,293.794H1404.5l-1.217,2.655h2.746Z" transform="translate(-1249.693 -231.405)" fill="#e71726" fill-rule="evenodd"/>
    <path id="Path_3395" data-name="Path 3395" d="M1384.089,344.35h-2.745L1380.127,347h2.745Z" transform="translate(-1228.967 -276.651)" fill="#e71726" fill-rule="evenodd"/>
    <path id="Path_3396" data-name="Path 3396" d="M1474.044,319.05H1471.3l-1.217,2.655h2.746Z" transform="translate(-1309.475 -254.008)" fill="#636666" fill-rule="evenodd"/>
    <path id="Path_3397" data-name="Path 3397" d="M1459.479,293.772h-2.746l-1.216,2.655h2.746Z" transform="translate(-1296.44 -231.385)" fill="#e71726" fill-rule="evenodd"/>
    <path id="Path_3398" data-name="Path 3398" d="M1436.321,344.328h-2.746l-1.216,2.654h2.745Z" transform="translate(-1275.714 -276.631)" fill="#e71726" fill-rule="evenodd"/>
    <path id="Path_3399" data-name="Path 3399" d="M1526.352,319.127h-2.745l-1.217,2.655h2.746Z" transform="translate(-1356.29 -254.077)" fill="#636666" fill-rule="evenodd"/>
    <path id="Path_3400" data-name="Path 3400" d="M1511.786,293.849h-2.745l-1.217,2.655h2.746Z" transform="translate(-1343.254 -231.454)" fill="#e71726" fill-rule="evenodd"/>
    <path id="Path_3401" data-name="Path 3401" d="M1488.628,344.4h-2.745l-1.216,2.654h2.745Z" transform="translate(-1322.528 -276.7)" fill="#e71726" fill-rule="evenodd"/>
    <path id="Path_3402" data-name="Path 3402" d="M1578.384,319.192h-2.745l-1.216,2.655h2.746Z" transform="translate(-1402.858 -254.135)" fill="#636666" fill-rule="evenodd"/>
    <path id="Path_3403" data-name="Path 3403" d="M1526.326,319.208h-2.746l-1.217,2.655h2.746Z" transform="translate(-1356.267 -254.15)" fill="#636666" fill-rule="evenodd"/>
    <path id="Path_3404" data-name="Path 3404" d="M1563.819,293.914h-2.745l-1.216,2.655h2.746Z" transform="translate(-1389.822 -231.512)" fill="#e71726" fill-rule="evenodd"/>
    <path id="Path_3405" data-name="Path 3405" d="M1540.661,344.469h-2.746l-1.216,2.654h2.745Z" transform="translate(-1369.096 -276.758)" fill="#e71726" fill-rule="evenodd"/>
    <path id="Path_3406" data-name="Path 3406" d="M1630.689,319.127h-2.746l-1.216,2.655h2.746Z" transform="translate(-1449.669 -254.077)" fill="#636666" fill-rule="evenodd"/>
    <path id="Path_3407" data-name="Path 3407" d="M1616.124,293.849h-2.745l-1.216,2.655h2.746Z" transform="translate(-1436.634 -231.454)" fill="#e71726" fill-rule="evenodd"/>
    <path id="Path_3408" data-name="Path 3408" d="M1592.965,344.4h-2.745L1589,347.059h2.745Z" transform="translate(-1415.908 -276.701)" fill="#e71726" fill-rule="evenodd"/>
    <path id="Path_3409" data-name="Path 3409" d="M1682.921,319.1h-2.745l-1.217,2.655h2.746Z" transform="translate(-1496.416 -254.057)" fill="#636666" fill-rule="evenodd"/>
    <path id="Path_3410" data-name="Path 3410" d="M1668.356,293.827h-2.745l-1.217,2.655h2.746Z" transform="translate(-1483.38 -231.434)" fill="#e71726" fill-rule="evenodd"/>
    <path id="Path_3411" data-name="Path 3411" d="M1645.2,344.383h-2.745l-1.216,2.654h2.745Z" transform="translate(-1462.655 -276.681)" fill="#e71726" fill-rule="evenodd"/>
    <path id="Path_3412" data-name="Path 3412" d="M1735.226,319.04h-2.745l-1.217,2.655h2.746Z" transform="translate(-1543.228 -254)" fill="#636666" fill-rule="evenodd"/>
    <path id="Path_3413" data-name="Path 3413" d="M1720.661,293.762h-2.745l-1.217,2.655h2.746Z" transform="translate(-1530.193 -231.376)" fill="#e71726" fill-rule="evenodd"/>
    <path id="Path_3414" data-name="Path 3414" d="M1697.5,344.318h-2.746l-1.216,2.654h2.745Z" transform="translate(-1509.467 -276.623)" fill="#e71726" fill-rule="evenodd"/>
    <path id="Path_3415" data-name="Path 3415" d="M1787.573,319.129h-2.746l-1.217,2.655h2.746Z" transform="translate(-1590.077 -254.079)" fill="#636666" fill-rule="evenodd"/>
    <path id="Path_3416" data-name="Path 3416" d="M1773.007,293.851h-2.745l-1.217,2.655h2.746Z" transform="translate(-1577.042 -231.456)" fill="#e71726" fill-rule="evenodd"/>
    <path id="Path_3417" data-name="Path 3417" d="M1749.849,344.407H1747.1l-1.216,2.654h2.745Z" transform="translate(-1556.316 -276.702)" fill="#e71726" fill-rule="evenodd"/>
    <path id="Path_3418" data-name="Path 3418" d="M1839.877,319.064h-2.745l-1.217,2.655h2.746Z" transform="translate(-1636.889 -254.021)" fill="#636666" fill-rule="evenodd"/>
    <path id="Path_3419" data-name="Path 3419" d="M1825.312,293.786h-2.745l-1.217,2.655h2.746Z" transform="translate(-1623.854 -231.398)" fill="#e71726" fill-rule="evenodd"/>
    <path id="Path_3420" data-name="Path 3420" d="M1802.154,344.342h-2.745L1798.192,347h2.745Z" transform="translate(-1603.128 -276.644)" fill="#e71726" fill-rule="evenodd"/>
    <path id="Path_3421" data-name="Path 3421" d="M1892.109,319.042h-2.745l-1.217,2.655h2.746Z" transform="translate(-1683.636 -254.001)" fill="#636666" fill-rule="evenodd"/>
    <path id="Path_3422" data-name="Path 3422" d="M1877.544,293.764H1874.8l-1.217,2.655h2.746Z" transform="translate(-1670.6 -231.378)" fill="#e71726" fill-rule="evenodd"/>
    <path id="Path_3423" data-name="Path 3423" d="M1854.386,344.32h-2.746l-1.216,2.654h2.745Z" transform="translate(-1649.874 -276.624)" fill="#e71726" fill-rule="evenodd"/>
    <path id="Path_3424" data-name="Path 3424" d="M1944.455,319.056h-2.745l-1.217,2.655h2.746Z" transform="translate(-1730.484 -254.014)" fill="#636666" fill-rule="evenodd"/>
    <path id="Path_3425" data-name="Path 3425" d="M1929.89,293.778h-2.745l-1.217,2.655h2.746Z" transform="translate(-1717.449 -231.391)" fill="#e71726" fill-rule="evenodd"/>
    <path id="Path_3426" data-name="Path 3426" d="M1906.731,344.334h-2.745l-1.216,2.654h2.746Z" transform="translate(-1696.723 -276.637)" fill="#e71726" fill-rule="evenodd"/>
    <path id="Path_3427" data-name="Path 3427" d="M1996.8,319.145h-2.745l-1.217,2.655h2.746Z" transform="translate(-1777.334 -254.093)" fill="#636666" fill-rule="evenodd"/>
    <path id="Path_3428" data-name="Path 3428" d="M1982.236,293.867h-2.746l-1.216,2.655h2.746Z" transform="translate(-1764.298 -231.47)" fill="#e71726" fill-rule="evenodd"/>
    <path id="Path_3429" data-name="Path 3429" d="M1959.078,344.422h-2.745l-1.216,2.654h2.746Z" transform="translate(-1743.572 -276.716)" fill="#e71726" fill-rule="evenodd"/>
    <path id="Path_3430" data-name="Path 3430" d="M2049.106,319.08h-2.745l-1.217,2.655h2.746Z" transform="translate(-1824.146 -254.035)" fill="#636666" fill-rule="evenodd"/>
    <path id="Path_3431" data-name="Path 3431" d="M2034.541,293.8H2031.8l-1.217,2.655h2.746Z" transform="translate(-1811.11 -231.412)" fill="#e71726" fill-rule="evenodd"/>
    <path id="Path_3432" data-name="Path 3432" d="M2011.383,344.358h-2.746l-1.216,2.654h2.745Z" transform="translate(-1790.384 -276.658)" fill="#e71726" fill-rule="evenodd"/>
    <path id="Path_3433" data-name="Path 3433" d="M2101.338,319.058h-2.745l-1.217,2.655h2.746Z" transform="translate(-1870.892 -254.015)" fill="#636666" fill-rule="evenodd"/>
    <path id="Path_3434" data-name="Path 3434" d="M2086.773,293.78h-2.745l-1.217,2.655h2.746Z" transform="translate(-1857.857 -231.392)" fill="#e71726" fill-rule="evenodd"/>
    <path id="Path_3435" data-name="Path 3435" d="M2063.615,344.336h-2.745l-1.216,2.654h2.745Z" transform="translate(-1837.13 -276.639)" fill="#e71726" fill-rule="evenodd"/>
    <g id="Group_618" data-name="Group 618" transform="translate(85.3 74.077)">
      <path id="Path_3436" data-name="Path 3436" d="M753,441.957l4.389-31.314a4.794,4.794,0,0,0,3.846-3.205h3.008l-4.833,34.52Z" transform="translate(-753.003 -407.19)" fill="#d4001a"/>
      <path id="Path_3437" data-name="Path 3437" d="M852.771,423.76c.2-1.282.148-1.775-.937-1.775h-.394c-1.036,0-1.381.69-1.578,2.022l-.395,2.86H843.4l2.762-19.43h14.547l-.838,6.016h-8.531l-.789,5.572a4.434,4.434,0,0,1,4.586-3.008h1.282c3.058,0,3.649,1.529,3.107,5.326L857.6,435.1c-.789,5.523-2.367,7.1-7.348,7.1h-2.663c-5.03,0-6.066-1.578-5.326-7.1l.838-6.016h6.016l-.69,5.227c-.2,1.332-.148,1.825.986,1.825h.394c1.134,0,1.282-.493,1.48-1.825Z" transform="translate(-832.701 -407.19)" fill="#d4001a"/>
      <path id="Path_3438" data-name="Path 3438" d="M1015.232,423.76c.2-1.282.148-1.775-.937-1.775h-.394c-1.036,0-1.381.69-1.578,2.022l-.395,2.86h-6.065l2.761-19.43h14.548l-.838,6.016H1013.8l-.789,5.572a4.434,4.434,0,0,1,4.586-3.008h1.282c3.058,0,3.649,1.529,3.107,5.326l-1.923,13.759c-.789,5.523-2.367,7.1-7.348,7.1h-2.663c-5.03,0-6.066-1.578-5.326-7.1l.838-6.016h6.016l-.69,5.227c-.2,1.332-.148,1.825.986,1.825h.395c1.134,0,1.282-.493,1.479-1.825Z" transform="translate(-978.101 -407.19)" fill="#d4001a"/>
      <path id="Path_3439" data-name="Path 3439" d="M1170.589,413.076c.2-1.332.148-1.923-.937-1.923h-.394c-1.134,0-1.332.493-1.529,1.824l-.641,4.636h-6.066l.789-5.425c.789-5.523,2.268-7.1,7.348-7.1h2.663c5.03,0,6.115,1.578,5.326,7.1l-.247,1.775c-.739,5.277-2.416,7.5-7.2,12.131-3.206,3.058-4.586,4.488-5.178,7.742h9.468l-.838,6.016h-15.879l.789-5.671c.74-5.277,2.416-7.595,7.2-12.23,3.452-3.3,4.734-4.685,5.277-8.531Z" transform="translate(-1114.818 -405.087)" fill="#d4001a"/>
    </g>
  </g>
</svg>
