<svg xmlns="http://www.w3.org/2000/svg" width="114.177" height="125.756" viewBox="0 0 114.177 125.756">
  <g id="Group_616" data-name="Group 616" transform="translate(-14.173 -108.735)">
    <path id="Path_3278" data-name="Path 3278" d="M289.07,429.894c.268.395.449.4.535.407a.684.684,0,0,0,.178-.009c.011,0,.02-.009.024-.008a10.046,10.046,0,0,1-.236-1.45,23.032,23.032,0,0,1-.034-3.976,27.706,27.706,0,0,1,.7-4.561,13.355,13.355,0,0,1,1.393-3.612c.553-.965,1-1.022,1.156-1.042a1.366,1.366,0,0,1,.263-.017.524.524,0,0,1,.309.118,3.864,3.864,0,0,0-.671-1.934.868.868,0,0,0-.69-.357,1.309,1.309,0,0,0-.306.023c-.178.016-.731.085-1.364,1.176a14.145,14.145,0,0,0-1.423,3.69,28.368,28.368,0,0,0-.7,4.6,23.416,23.416,0,0,0,.034,4.026,6.432,6.432,0,0,0,.832,2.926" transform="translate(-218.787 -243.348)" fill="#fff"/>
    <path id="Path_3279" data-name="Path 3279" d="M256.6,527.021a7.557,7.557,0,0,0,1.511-.09,10.869,10.869,0,0,0,6.447-4.409,6.592,6.592,0,0,0,.528.641,5.658,5.658,0,0,0,3.933,1.432,8.763,8.763,0,0,0,1.354-.029c2.949-.438,1.233-2.463.564-3.75a1.994,1.994,0,0,1-1.663,1.577,8.68,8.68,0,0,1-1.3.029,5.336,5.336,0,0,1-3.741-1.354,6.59,6.59,0,0,1-.743-.941,10.27,10.27,0,0,1-1.293,1.668,9.366,9.366,0,0,1-5.2,2.97,6.6,6.6,0,0,1-6.454-2.664,11.643,11.643,0,0,1-1.185-1.907,12.362,12.362,0,0,0,2.034,3.975,6.89,6.89,0,0,0,5.207,2.852" transform="translate(-187.817 -328.539)" fill="#fff"/>
    <path id="Path_3280" data-name="Path 3280" d="M248.507,399a13.671,13.671,0,0,0,2.477,7.276,5.019,5.019,0,0,0,4.987,2.085,7.852,7.852,0,0,0,4.319-2.506,13.37,13.37,0,0,0,3.013-6.564q-.059.735-.116,1.731a5.716,5.716,0,0,0,1.375,4.1c1.064,1.1,3.7.864,3.7.864.239-.032.371-.241.387-.6.041-.242-.168-1.373-.226-2.661a43.275,43.275,0,0,1,.214-5.209l1.779-20.658a.423.423,0,0,0-.088-.44.416.416,0,0,0-.3-.112l-5.135.671c-.252.037-.384.248-.394.66l-.282,5.334a14.183,14.183,0,0,0-.606-2.575,6.488,6.488,0,0,0-1.122-2.083,4.821,4.821,0,0,0-1.7-1.319,4.17,4.17,0,0,0-2.268-.277,7.646,7.646,0,0,0-4.751,2.555,17.378,17.378,0,0,0-3.286,5.447,30.826,30.826,0,0,0-1.788,7,31.535,31.535,0,0,0-.188,7.275m6.395-5.823a28.66,28.66,0,0,1,.737-4.876,15.353,15.353,0,0,1,1.586-4.1,3.482,3.482,0,0,1,2.5-1.948,2.5,2.5,0,0,1,2.4.884,5.892,5.892,0,0,1,1.105,3.344,25.742,25.742,0,0,1,.011,3.909l-.156,1.953c-.261,3.326-.85,5.751-1.743,7.281a4.682,4.682,0,0,1-3.072,2.56,2.151,2.151,0,0,1-2.248-1.072,7.707,7.707,0,0,1-1.1-3.63A24.873,24.873,0,0,1,254.9,393.173Z" transform="translate(-187.037 -213.682)" fill="#fff"/>
    <path id="Path_3281" data-name="Path 3281" d="M158.555,458.159a2.368,2.368,0,0,0,.56,1.774,2.033,2.033,0,0,0,1.467.69,3.031,3.031,0,0,0,.468-.027l5.795-.937a2.215,2.215,0,0,0,1.386-.868,2.353,2.353,0,0,0,.571-1.52l1.156-13.1a22.812,22.812,0,0,1,1.5-7.27,4.465,4.465,0,0,1,1-1.517,2.687,2.687,0,0,1,1.053-.614,2.267,2.267,0,0,1-1.129-.574,5.237,5.237,0,0,1-.8-.937c-.042-.057-.087-.11-.131-.162-.166.076-.651.417-1.309,1.794a23.238,23.238,0,0,0-1.523,7.353l-1.158,13.107a2.133,2.133,0,0,1-.511,1.372,1.964,1.964,0,0,1-1.252.767l-5.759.932a2.8,2.8,0,0,1-.41.022,1.777,1.777,0,0,1-.971-.369Z" transform="translate(-115.3 -259.036)" fill="#fff"/>
    <path id="Path_3282" data-name="Path 3282" d="M162.431,419.25c-.025.368.1.536.353.494l5.787-.934c.081,0,.164-.085.277-.225a.482.482,0,0,0,.144-.4l1.168-13.214a24.6,24.6,0,0,1,1.672-7.893c.8-1.67,1.663-2.568,2.584-2.7a1.2,1.2,0,0,1,1.012.194,6.435,6.435,0,0,1,.536.666,4.218,4.218,0,0,0,.569.663,1.359,1.359,0,0,0,1.091.187,2.262,2.262,0,0,0,1.3-.679,4.2,4.2,0,0,0,.963-1.445,7.908,7.908,0,0,0,.564-1.916,7.19,7.19,0,0,0,.089-2.12,4.31,4.31,0,0,0-.938-2.538,2.567,2.567,0,0,0-2.426-.761c-1.539.2-2.971,1.249-4.3,3.147a22.712,22.712,0,0,0-3.152,7.464c.056-.666.118-1.391.166-2.187s.106-1.56.13-2.3.036-1.425.044-2.045,0-1.132-.026-1.542a1.22,1.22,0,0,0-.106-.359.228.228,0,0,0-.248-.152l-4.822.624c-.107.015-.175.087-.227.217-.034.13-.054.254-.088.384a18.048,18.048,0,0,0-.065,2.121q0,1.8-.209,4.7Z" transform="translate(-118.397 -221.904)" fill="#fff"/>
    <path id="Path_3283" data-name="Path 3283" d="M452.234,381.664c-.01.768-.049,1.651-.139,2.7l-.616,7.423a1.787,1.787,0,0,1-.088.377c-.569,7.628-1.053,15.475-.718,21.416l0,.082c.446.3.877.607,1.3.922a186.21,186.21,0,0,1,.75-20.451c.031-.093.048-.185.067-.257a1.587,1.587,0,0,0,.02-.174l.6-7.411c.1-1.074.149-1.97.145-2.738s-.035-1.61-.1-2.453c-.219-2.606-.931-4.456-2.189-5.669a1.553,1.553,0,0,0-.16-.144,10.491,10.491,0,0,1,1.012,3.945c.072.846.1,1.669.11,2.437" transform="translate(-348.503 -212.866)" fill="#fff"/>
    <path id="Path_3284" data-name="Path 3284" d="M356.213,430.412a2.02,2.02,0,0,0,.815,1.348,2.131,2.131,0,0,0,1.583.4l4.749-.763a2.187,2.187,0,0,0,1.524-1.057,2.337,2.337,0,0,0,.382-1.3l.929-11.4a21.993,21.993,0,0,1,1.582-7.37c.145-.3.274-.552.4-.78.059-.829.113-1.661.148-2.459a2.079,2.079,0,0,0-.207-.96c-.054.033-.731.217-1.654,2.188a22.289,22.289,0,0,0-1.614,7.461l-.919,11.428a2.207,2.207,0,0,1-.311,1.107,1.957,1.957,0,0,1-1.316.953l-4.794.777a1.881,1.881,0,0,1-1.241-.255Z" transform="translate(-273.155 -237.455)" fill="#fff"/>
    <path id="Path_3285" data-name="Path 3285" d="M138.906,591.26a10.744,10.744,0,0,0-1.039-3.666,18.153,18.153,0,0,0-2.347-3.542,16.088,16.088,0,0,1,1.044,1.773,10.781,10.781,0,0,1,1.01,3.558,4.546,4.546,0,0,1-1,3.721,3.522,3.522,0,0,1-2.794,1.124,4.67,4.67,0,0,1-1.355-.28c-3.4-1.324-6.723-4.5-8.9-8.479a48.055,48.055,0,0,1-2.195-4.819l-.112-.277a15.1,15.1,0,0,0-8.862-.528c-6.228,1.534-33.492,7.942-65.975,15.546.956,2.658-.035,2.472,2.28,1.923,31.8-7.544,58.4-13.691,64.676-15.273a14.744,14.744,0,0,1,8.725.458l.048.113a50.224,50.224,0,0,0,2.226,4.881c2.2,4.036,5.569,7.249,9.049,8.615a4.841,4.841,0,0,0,1.438.292h0a3.758,3.758,0,0,0,3-1.212,4.785,4.785,0,0,0,1.075-3.929" transform="translate(-25.721 -375.884)" fill="#fff"/>
    <path id="Path_3286" data-name="Path 3286" d="M128.648,368.366a9.179,9.179,0,0,0-.863-3.009c-1.473-3.01-4.653-6.3-8.713-8.93-.043-.286-.074-.617-.11-.913-.354-6.269.2-14.69.738-21.834a.413.413,0,0,0,.065-.168l.617-7.433c.087-.973.134-1.82.137-2.56s-.038-1.507-.108-2.308c-.171-2.119-.709-3.611-1.63-4.491a3.66,3.66,0,0,0-3.164-1.09,6.8,6.8,0,0,0-7.177,5.474c.053-.606.606-12.582.653-13.279s.091-1.372.12-2.017c.028-.629.048-1.2.065-1.717a8.257,8.257,0,0,0-.032-1.143c-.043-.333-.146-.49-.289-.466l-3.964.516c-.212.025-.3.187-.269.482a19.525,19.525,0,0,0-.078,1.985c-.1,13.043-1.468,26.738-2.489,39.783-.035.2,0,.333.065.388a.379.379,0,0,0,.233.071l4.755-.762a.389.389,0,0,0,.252-.208.64.64,0,0,0,.1-.352l.924-11.519a23.683,23.683,0,0,1,1.768-8.008c.891-1.9,1.86-2.911,2.917-3.055a1.421,1.421,0,0,1,1.3.482,3.185,3.185,0,0,1,.618,1.985.066.066,0,0,1,.009.048c-.425,8.259-1.781,18.654-.822,30.116-3.464-1.168-6.976-1.136-11.308-.788-.336,0-.62.075-.9.077-2.646.325-27.592,3.77-61.009,8.327-4.329.59-4.938,1.717-2.434,10.6,32.219-7.545,59.346-13.9,65.988-15.482a17.2,17.2,0,0,1,10.408.82c.917,2.185,1.6,3.928,2.5,5.571,2.091,3.815,5.142,6.625,8.058,7.761,1.954.7,3.379-.631,3.071-2.945m-3.774-.417a8.016,8.016,0,0,1-3.23-3.269,14.651,14.651,0,0,1-1.954-4.64,16.813,16.813,0,0,1,4.807,4.684,8.47,8.47,0,0,1,1.292,2.311C126.055,367.848,125.84,368.495,124.875,367.949Z" transform="translate(-18.35 -154.723)" fill="#fff"/>
    <path id="Path_3287" data-name="Path 3287" d="M508.171,411.745c.268.395.449.4.535.407a.684.684,0,0,0,.178-.009c.011,0,.02-.008.024-.008a10.052,10.052,0,0,1-.236-1.45,23.03,23.03,0,0,1-.034-3.976,27.7,27.7,0,0,1,.7-4.561,13.352,13.352,0,0,1,1.393-3.612c.553-.965,1-1.022,1.156-1.042a1.352,1.352,0,0,1,.263-.017.523.523,0,0,1,.309.118,3.861,3.861,0,0,0-.671-1.934.868.868,0,0,0-.69-.357,1.3,1.3,0,0,0-.306.023c-.178.016-.731.085-1.364,1.176a14.148,14.148,0,0,0-1.423,3.69,28.4,28.4,0,0,0-.7,4.6,23.418,23.418,0,0,0,.034,4.026,6.43,6.43,0,0,0,.832,2.926" transform="translate(-393.762 -228.854)" fill="#fff"/>
    <path id="Path_3288" data-name="Path 3288" d="M475.7,508.873a7.562,7.562,0,0,0,1.511-.09,10.874,10.874,0,0,0,6.447-4.409,6.562,6.562,0,0,0,.528.641,5.659,5.659,0,0,0,3.933,1.432,8.74,8.74,0,0,0,1.353-.029c2.95-.438,1.233-2.463.564-3.75a2,2,0,0,1-1.663,1.577,8.717,8.717,0,0,1-1.3.029,5.335,5.335,0,0,1-3.741-1.354,6.558,6.558,0,0,1-.743-.941,10.28,10.28,0,0,1-1.294,1.668,9.366,9.366,0,0,1-5.2,2.97,6.6,6.6,0,0,1-6.454-2.664,11.637,11.637,0,0,1-1.185-1.907,12.362,12.362,0,0,0,2.034,3.975,6.889,6.889,0,0,0,5.207,2.852" transform="translate(-362.792 -314.046)" fill="#fff"/>
    <path id="Path_3289" data-name="Path 3289" d="M467.608,380.848a13.668,13.668,0,0,0,2.477,7.276,5.018,5.018,0,0,0,4.987,2.085,7.851,7.851,0,0,0,4.319-2.506,13.369,13.369,0,0,0,3.013-6.563c-.039.49-.079,1.068-.116,1.731a5.716,5.716,0,0,0,1.375,4.1c1.064,1.1,3.7.864,3.7.864.239-.032.371-.241.387-.6.041-.242-.168-1.373-.226-2.661a43.222,43.222,0,0,1,.214-5.209l1.779-20.658a.423.423,0,0,0-.088-.44.415.415,0,0,0-.3-.112l-5.135.671c-.252.037-.384.248-.394.66l-.282,5.334a14.2,14.2,0,0,0-.606-2.575,6.485,6.485,0,0,0-1.122-2.083,4.823,4.823,0,0,0-1.7-1.32,4.171,4.171,0,0,0-2.268-.277,7.644,7.644,0,0,0-4.751,2.555,17.376,17.376,0,0,0-3.285,5.447,30.81,30.81,0,0,0-1.788,7,31.537,31.537,0,0,0-.188,7.275M474,375.025a28.638,28.638,0,0,1,.737-4.876,15.35,15.35,0,0,1,1.586-4.1,3.482,3.482,0,0,1,2.5-1.948,2.5,2.5,0,0,1,2.4.884,5.894,5.894,0,0,1,1.106,3.344,25.785,25.785,0,0,1,.011,3.91l-.156,1.953c-.262,3.326-.851,5.751-1.743,7.281a4.681,4.681,0,0,1-3.072,2.56,2.151,2.151,0,0,1-2.248-1.072,7.71,7.71,0,0,1-1.1-3.63A24.871,24.871,0,0,1,474,375.025Z" transform="translate(-362.012 -199.189)" fill="#fff"/>
    <path id="Path_3290" data-name="Path 3290" d="M125.8,185.662a32.448,32.448,0,0,0-8.707-19.485,32.393,32.393,0,0,1,7.193,17.679c.994,9.594-2.638,17.427-8.371,23.408.031-.005-6.267,5.25-8.52,6.773a50.864,50.864,0,0,1-8.311,4.089l-.6,28.757c-.027,2.041.378,2.541.427,2.588.153.161.565.187,1.112.083-.009-.247-.019-.505-.014-.827l.6-28.567a52.757,52.757,0,0,0,5-2.27c12.477-6.953,21.807-16.672,20.192-32.229" transform="translate(-67.331 -45.873)" fill="#fff"/>
    <path id="Path_3291" data-name="Path 3291" d="M27.525,148.806c10.138-.257,18.4,4.57,22.993,12.88a24.86,24.86,0,0,0-23.075-15.011Z" transform="translate(-10.597 -30.299)" fill="#fff"/>
    <path id="Path_3292" data-name="Path 3292" d="M30.178,171.139c10.456-3.79,27.142-14.166,25.187-32.99-1.927-18.527-16.825-29.342-38.812-29.414l.231,6.041c14.9.124,24.952,10.372,27.215,24.77,2.311,14.624-4.8,23.793-13.783,27.661.084-7.682.652-41.46.647-42.132-.023-.46-.2-.671-.52-.609l-7.378,1.472c-.33.073-.486.342-.466.825-.009.28-.582,34.448-.66,42.488a37.814,37.814,0,0,1-7.272-.138l-.395,3.832a69.275,69.275,0,0,0,7.632.029c-.081,9.792-.173,19.663-.173,19.663q-.078,6.554,2.652,9.32a6.562,6.562,0,0,0,5.536,1.932q.18-16.375.358-32.751" fill="#fff"/>
    <path id="Path_3293" data-name="Path 3293" d="M129.62,593.227l1.508-.359,2.1,8.888-1.508.359Zm-2.828.673,1.508-.359,2.1,8.888-1.508.359Zm-2.315,2.841,1.6-.382,1.59,6.72-1.6.382Zm-.513-2.167,1.6-.382.312,1.32-1.6.382Zm-1.859,9.832-1.567-6.623,1.51-.36.112.474a2.828,2.828,0,0,1,.551-.669,2.735,2.735,0,0,1,.865-.464l.38,1.606a5.122,5.122,0,0,0-.862.459.875.875,0,0,0-.321.547,2.6,2.6,0,0,0,.086,1.054l.85,3.592Zm-5.049-.294a2.351,2.351,0,0,0,1.065-.6,2.041,2.041,0,0,0,.539-.936,2.192,2.192,0,0,0,.006-1.042,2.036,2.036,0,0,0-.448-.88,1.823,1.823,0,0,0-.84-.535,2.191,2.191,0,0,0-1.167,0,1.923,1.923,0,0,0-.98.534,1.849,1.849,0,0,0-.479.9,2.332,2.332,0,0,0,.012,1.037,2.126,2.126,0,0,0,.81,1.261A1.7,1.7,0,0,0,117.057,604.112Zm-4-1.344a3.551,3.551,0,0,1,.072-1.5,3.322,3.322,0,0,1,.615-1.227,3.793,3.793,0,0,1,.98-.867,3.918,3.918,0,0,1,1.144-.482,2.909,2.909,0,0,1,1.2-.049,1.606,1.606,0,0,1,.9.458l-.181-.765,1.508-.359,1.41,5.962a3.757,3.757,0,0,1-.014,2.005,3.037,3.037,0,0,1-.949,1.45,3.721,3.721,0,0,1-1.551.773,4.163,4.163,0,0,1-1.487.083,3.751,3.751,0,0,1-1.406-.465,3.325,3.325,0,0,1-1.094-1l1.79-.426a1.964,1.964,0,0,0,.838.4,2.171,2.171,0,0,0,1.014,0,1.755,1.755,0,0,0,1.093-.8,2.915,2.915,0,0,0,.33-1.784,2.606,2.606,0,0,1-.438.746,2.4,2.4,0,0,1-.607.522,2.625,2.625,0,0,1-.741.3,3.224,3.224,0,0,1-1.319.026,3.9,3.9,0,0,1-1.328-.494,3.85,3.85,0,0,1-1.1-.974,3.453,3.453,0,0,1-.638-1.332C113.075,602.886,113.06,602.817,113.053,602.768Zm-9.567,2.484a2.083,2.083,0,0,0,.528,1.011,1.84,1.84,0,0,0,.872.509,2.041,2.041,0,0,0,.981.007,1.958,1.958,0,0,0,1.2-.824,2.135,2.135,0,0,0,.281-1.621c-.006-.042-.017-.1-.033-.167a1.684,1.684,0,0,0-.488-.869,1.77,1.77,0,0,0-.854-.44,2.186,2.186,0,0,0-.973.01,1.967,1.967,0,0,0-1.511,2.385Zm3.116-3.639-.65-2.747,1.6-.382,2.1,8.888-1.51.36-.223-.942a2.021,2.021,0,0,1-.769,1.087,3.141,3.141,0,0,1-1.13.565,3.274,3.274,0,0,1-1.745-.077,3.7,3.7,0,0,1-1.577-.972,3.457,3.457,0,0,1-.9-1.645,3.676,3.676,0,0,1,.054-2.017,3.528,3.528,0,0,1,1.012-1.576,3.6,3.6,0,0,1,1.57-.833,2.88,2.88,0,0,1,1.136-.092A3.947,3.947,0,0,1,106.6,601.612Zm-12.359,2.435,1.416-.337.136.575a1.7,1.7,0,0,1,.62-.747,2.926,2.926,0,0,1,1.04-.461,3.229,3.229,0,0,1,1.351-.034,2.429,2.429,0,0,1,1.2.586,2.4,2.4,0,0,1,.713,1.28l1.028,4.347-1.6.383-.939-3.968a1.234,1.234,0,0,0-.374-.648,1.348,1.348,0,0,0-.655-.326,1.659,1.659,0,0,0-.727.007,1.35,1.35,0,0,0-.828.549,1.281,1.281,0,0,0-.143,1.068l.939,3.968-1.6.382Zm-3.374,6.393a2.208,2.208,0,0,0,1.394-.933,2.1,2.1,0,0,0,.117-1.518,2.025,2.025,0,0,0-.519-.974,1.911,1.911,0,0,0-.893-.525,2.154,2.154,0,0,0-1.955.466,1.919,1.919,0,0,0-.563.872,2.033,2.033,0,0,0-.028,1.1,2,2,0,0,0,.539,1,1.919,1.919,0,0,0,.9.5A2.14,2.14,0,0,0,90.869,610.44Zm-4.074-1.221a4.905,4.905,0,0,1-.021-1.654,3.383,3.383,0,0,1,.476-1.265,2.969,2.969,0,0,1,.83-.846,3.26,3.26,0,0,1,1.059-.461,3.3,3.3,0,0,1,1.5-.013,2.231,2.231,0,0,1,1.186.649l-.248-1.049,1.508-.359,1.613,6.817-1.508.359-.2-.86a2.346,2.346,0,0,1-.791.994,3.33,3.33,0,0,1-2.633.625,3.2,3.2,0,0,1-1.23-.528,3.64,3.64,0,0,1-.951-1.014A4.463,4.463,0,0,1,86.794,609.22ZM78.068,612.7a2.14,2.14,0,0,0,.845.366,2.077,2.077,0,0,0,.872-.02,1.78,1.78,0,0,0,1.081-.711,1.909,1.909,0,0,0,.317-.817,2.433,2.433,0,0,0-.038-.952,2.112,2.112,0,0,0-.216-.556,1.691,1.691,0,0,0-.893-.768,2.192,2.192,0,0,0-1.359-.126,1.943,1.943,0,0,0-1.088.709,1.682,1.682,0,0,0-.353.8,2.3,2.3,0,0,0,.021.952A1.628,1.628,0,0,0,78.068,612.7Zm3.3-4.576a2.871,2.871,0,0,1,.662.525,3.207,3.207,0,0,1,.482.7,3.64,3.64,0,0,1,.3.821,4.106,4.106,0,0,1,.04,1.651,4.065,4.065,0,0,1-.635,1.59,2.066,2.066,0,0,1-.712.656,3.761,3.761,0,0,1-1.092.441,3.581,3.581,0,0,1-1.4.064,2.057,2.057,0,0,1-1.126-.531l.2.854-1.508.359-2.1-8.888L75.987,606l.672,2.84a3.745,3.745,0,0,1,2.014-1.292,3.236,3.236,0,0,1,1.462-.018A2.8,2.8,0,0,1,81.364,608.121ZM68.7,613.929l-.873-3.691,1.6-.382.872,3.687a1.9,1.9,0,0,0,.714,1.167,1.276,1.276,0,0,0,1.071.244,1.122,1.122,0,0,0,.574-.339,1.383,1.383,0,0,0,.322-.7,2.4,2.4,0,0,0-.05-1l-.872-3.687,1.7-.405,1.59,6.72-1.418.338-.157-.666a3.152,3.152,0,0,1-.768.948,2.359,2.359,0,0,1-.956.486,2.234,2.234,0,0,1-1.023,0,2.6,2.6,0,0,1-.985-.471,3.288,3.288,0,0,1-.818-.926A4.548,4.548,0,0,1,68.7,613.929Zm-6.582.376a1.985,1.985,0,0,0,.027.8,2.077,2.077,0,0,0,.5.943,2.149,2.149,0,0,0,.884.585,1.812,1.812,0,0,0,1.028.053,2.077,2.077,0,0,0,1.276-.971,1.787,1.787,0,0,0,.292-1.441,1.818,1.818,0,0,0-.513-.893,2.241,2.241,0,0,0-.931-.552,1.991,1.991,0,0,0-1.051-.042,1.91,1.91,0,0,0-.882.494A2.607,2.607,0,0,0,62.118,614.3Zm-.083,6.816-2.105-8.9,1.51-.36.2.859a3.342,3.342,0,0,1,.813-1.044,2.606,2.606,0,0,1,1.084-.546,2.878,2.878,0,0,1,.769-.07,3.424,3.424,0,0,1,.84.139,4.856,4.856,0,0,1,.893.371,2.6,2.6,0,0,1,.52.386,3.7,3.7,0,0,1,.477.534,3.642,3.642,0,0,1,.366.631,3.929,3.929,0,0,1,.258.759,3.439,3.439,0,0,1-.364,2.585,3.805,3.805,0,0,1-.953,1.054,3.313,3.313,0,0,1-1.247.593,3.094,3.094,0,0,1-.683.084,3.337,3.337,0,0,1-.724-.069,3.406,3.406,0,0,1-.727-.234l.673,2.844Z" transform="translate(-36.542 -386.631)" fill="#fff" fill-rule="evenodd"/>
  </g>
</svg>
