<svg xmlns="http://www.w3.org/2000/svg" width="254.517" height="44.739" viewBox="0 0 254.517 44.739">
  <g id="Group_601" data-name="Group 601" transform="translate(-46.197 -72.937)">
    <path id="Path_3247" data-name="Path 3247" d="M818.849,141.611V131.5h2.074v-1.142h-5.4V131.5h2.074v10.113Zm-8.361-9.1,2.878,9.1h1.3V130.357h-1.109v8.136l-2.6-8.136h-1.592v11.255h1.125Zm-5.225-.74,1.27,6.5h-2.508Zm1.447,7.573.434,2.267H808.4l-2.154-11.255h-1.817l-2.154,11.255h1.157l.434-2.267Zm-9.2-3.682V131.5h1.222c.932,0,1.3.53,1.3,1.543v1.077c0,1.222-.595,1.544-1.592,1.544Zm-1.254-5.306v11.255h1.254V136.8h.884c1.045,0,1.64.4,1.64,1.672v1.769a2.948,2.948,0,0,0,.209,1.367h1.27a2.82,2.82,0,0,1-.225-1.351v-1.753c0-1.206-.386-2.042-1.415-2.347.965-.305,1.4-1.077,1.4-2.315v-.916c0-1.672-.74-2.573-2.508-2.573Zm-5.033,0h-1.238v8.538c0,1.7.788,2.846,2.508,2.846,1.736,0,2.524-1.142,2.524-2.846v-8.538h-1.174v8.6c0,1.013-.4,1.624-1.3,1.624-.917,0-1.318-.611-1.318-1.624Zm-5.306,1.415,1.27,6.5h-2.508Zm1.447,7.573.434,2.267h1.254L786.9,130.357h-1.817l-2.155,11.255h1.158l.434-2.267Zm-6.448,2.267V131.5h2.074v-1.142h-5.4V131.5h2.074v10.113Zm-6.512-11.367c-1.688,0-2.492,1.077-2.492,2.814,0,3.167,3.762,3.408,3.762,5.917,0,1.013-.418,1.608-1.318,1.608s-1.318-.595-1.318-1.608v-.707h-1.174v.643c0,1.7.8,2.814,2.524,2.814s2.54-1.109,2.54-2.814c0-3.168-3.778-3.409-3.778-5.933,0-1,.386-1.592,1.286-1.592s1.286.595,1.286,1.608v.37h1.19v-.305C776.917,131.353,776.113,130.244,774.408,130.244Zm-6.9,5.1V131.5h3.377v-1.142h-4.631v11.255h4.631V140.47h-3.377v-4h2.75v-1.125Zm-6.335.322V131.5H762.4c.933,0,1.3.53,1.3,1.543v1.077c0,1.222-.595,1.544-1.592,1.544Zm-1.254-5.306v11.255h1.254V136.8h.884c1.045,0,1.64.4,1.64,1.672v1.769a2.945,2.945,0,0,0,.209,1.367h1.27a2.819,2.819,0,0,1-.225-1.351v-1.753c0-1.206-.386-2.042-1.415-2.347.965-.305,1.4-1.077,1.4-2.315v-.916c0-1.672-.74-2.573-2.508-2.573Zm-5.225,5.949V139.3a1.193,1.193,0,0,1-1.27,1.286c-.868,0-1.3-.547-1.3-1.544V138.01c0-1.093.466-1.672,1.4-1.7Zm.659-4.807v-1.142h-1.817c-1.785,0-2.653,1-2.653,2.782v.257a2.187,2.187,0,0,0,1.335,2.3,2.27,2.27,0,0,0-1.335,2.347v1.093c0,1.592.643,2.589,2.042,2.589a1.806,1.806,0,0,0,1.769-1.093,2.175,2.175,0,0,0,.209.981h1.27a2.926,2.926,0,0,1-.241-1.431v-3.875h.547V135.18h-.547v-1.254H754.7v1.254h-1.27c-.82-.032-1.3-.563-1.3-1.527v-.563c0-1.093.5-1.592,1.447-1.592Zm48.765-15.13V112.2h1.222c.932,0,1.3.531,1.3,1.544v1.077c0,1.222-.595,1.544-1.592,1.544Zm-1.254-5.306v11.255h1.254V117.51h.884c1.045,0,1.64.4,1.64,1.672v1.769a2.948,2.948,0,0,0,.209,1.367h1.27a2.816,2.816,0,0,1-.225-1.351v-1.753c0-1.206-.386-2.042-1.415-2.347.965-.305,1.4-1.077,1.4-2.315v-.916c0-1.672-.74-2.573-2.508-2.573Zm-4.116,1.415,1.27,6.5h-2.508Zm1.447,7.573.434,2.267h1.254l-2.155-11.255h-1.817l-2.155,11.255h1.158l.434-2.267Zm-9.164,1.126v-4.2h1.093c1.077,0,1.576.418,1.576,1.672v1c0,1.045-.418,1.527-1.335,1.527Zm0-5.338V112.2h1.238c.9,0,1.238.482,1.238,1.479v.659c0,1.174-.514,1.5-1.511,1.5Zm-1.254-4.775v11.255h2.589a2.315,2.315,0,0,0,2.573-2.637v-.949c0-1.238-.418-2.106-1.512-2.412.981-.305,1.319-1.045,1.319-2.235v-.53c0-1.656-.691-2.492-2.444-2.492Zm-7.026,4.984V112.2h3.376v-1.142H781.5v11.255h4.63v-1.142h-3.376v-4H785.5v-1.125Zm-4.984-5.1c-1.72,0-2.524,1.126-2.524,2.83v5.82c0,1.7.8,2.83,2.524,2.83,1.737,0,2.54-1.126,2.54-2.83v-3.312h-2.347v1.126h1.158v2.251c0,1.013-.4,1.624-1.318,1.624-.9,0-1.318-.611-1.318-1.624v-5.949c0-1.013.418-1.624,1.318-1.624.916,0,1.318.611,1.318,1.624v1.029h1.19v-.965C780.309,112.076,779.505,110.95,777.769,110.95Zm-7.894,2.267,2.878,9.1h1.3V111.063h-1.109V119.2l-2.6-8.136h-1.592v11.255h1.125Zm-6.142-2.155h-1.238V119.6c0,1.7.788,2.846,2.508,2.846,1.736,0,2.524-1.142,2.524-2.846v-8.538h-1.174v8.6c0,1.013-.4,1.624-1.3,1.624-.916,0-1.318-.611-1.318-1.624Zm-6.3,2.653c0-1.013.434-1.624,1.335-1.624.916,0,1.334.611,1.334,1.624v5.949c0,1.029-.418,1.624-1.334,1.624-.9,0-1.335-.595-1.335-1.624Zm-1.238,5.885c0,1.7.852,2.83,2.573,2.83,1.736,0,2.589-1.126,2.589-2.83v-5.82c0-1.72-.852-2.83-2.589-2.83-1.72,0-2.573,1.109-2.573,2.83Zm-.852,2.717v-1.142h-3.216V111.063H750.87v11.255Z" transform="translate(-520.209 -27.294)" fill="#fff"/>
    <rect id="Rectangle_839" data-name="Rectangle 839" width="1.356" height="31.071" transform="translate(209.425 82.279)" fill="#fff"/>
    <rect id="Rectangle_840" data-name="Rectangle 840" width="1.356" height="31.071" transform="translate(213.247 82.279)" fill="#fff"/>
    <rect id="Rectangle_841" data-name="Rectangle 841" width="1.356" height="31.071" transform="translate(217.562 82.279)" fill="#fff"/>
    <path id="Path_3248" data-name="Path 3248" d="M500.649,80.652q-.2,3.615-6.406,14.485-10.764,18.932-11.1,21.989c-.1.891.292,1.319,1.18,1.28a9.6,9.6,0,0,0,3.659-1.742l.427-.261.618.772q-5.8,4.159-8.394,4.158c-1.38,0-2.03-.835-1.938-2.5a16.116,16.116,0,0,1,1.737-5.4q1.627-3.473,7.662-14.613l3.666-6.757q3.31-6.067,3.366-7.078c.03-.537-.31-.8-1.029-.805a10.866,10.866,0,0,0-1.85.381c-.119.04-.3.091-.526.15l-.307-.862.528-.179Q498.027,81.747,500.649,80.652Z" transform="translate(-318.96 -4.892)" fill="none" stroke="#fff" stroke-linecap="round" stroke-linejoin="round" stroke-width="2.196"/>
    <path id="Path_3249" data-name="Path 3249" d="M500.649,80.654q-.2,3.615-6.406,14.485-10.764,18.932-11.1,21.989c-.1.891.292,1.319,1.18,1.28a9.6,9.6,0,0,0,3.659-1.742l.427-.262.618.772q-5.8,4.159-8.394,4.158c-1.38,0-2.03-.835-1.938-2.5a16.118,16.118,0,0,1,1.737-5.4q1.627-3.473,7.663-14.613l3.666-6.757q3.31-6.066,3.367-7.078c.03-.537-.31-.8-1.03-.805a10.861,10.861,0,0,0-1.85.381c-.118.04-.3.09-.526.149l-.306-.862.528-.179q6.088-1.929,8.709-3.024" transform="translate(-318.96 -4.894)" fill="#fff"/>
    <path id="Path_3250" data-name="Path 3250" d="M450.994,80.526q-.2,3.615-6.406,14.485-10.762,18.932-11.1,21.989c-.1.891.292,1.319,1.179,1.28a9.594,9.594,0,0,0,3.659-1.742l.427-.261.618.772q-5.8,4.159-8.395,4.158c-1.379,0-2.028-.835-1.937-2.5a16.126,16.126,0,0,1,1.739-5.4q1.626-3.474,7.664-14.613l3.666-6.757q3.308-6.067,3.364-7.079c.03-.537-.309-.8-1.028-.8a10.846,10.846,0,0,0-1.851.381c-.119.04-.3.09-.527.149l-.306-.862.53-.179Q448.375,81.621,450.994,80.526Z" transform="translate(-282.246 -4.799)" fill="none" stroke="#fff" stroke-linecap="round" stroke-linejoin="round" stroke-width="2.196"/>
    <path id="Path_3251" data-name="Path 3251" d="M450.995,80.528q-.2,3.615-6.406,14.484-10.762,18.933-11.1,21.989c-.1.891.292,1.319,1.179,1.28a9.593,9.593,0,0,0,3.659-1.742l.427-.261.618.772q-5.8,4.159-8.395,4.158c-1.379,0-2.028-.835-1.936-2.5a16.118,16.118,0,0,1,1.738-5.4q1.626-3.474,7.664-14.613l3.666-6.757q3.308-6.066,3.364-7.078c.03-.537-.309-.8-1.028-.8a10.857,10.857,0,0,0-1.851.381c-.119.039-.3.09-.527.149l-.306-.862.53-.179q6.088-1.929,8.707-3.024" transform="translate(-282.247 -4.801)" fill="#fff"/>
    <path id="Path_3252" data-name="Path 3252" d="M362.34,144.285q-1.831-.159-3.034-.162a18.268,18.268,0,0,0-14.4,6.249,24.588,24.588,0,0,0-3.521,5.428,14.293,14.293,0,0,0-1.6,5.153,3.077,3.077,0,0,0,3.307,3.33q3.592.01,8.212-4.93t4.857-9.072a2.161,2.161,0,0,0-.481-1.561,1.685,1.685,0,0,0-1.333-.642q-2.761-.008-5.549,4.735a3.622,3.622,0,0,1-.119-1.042c.068-1.227,1.023-2.51,2.881-3.852a8.9,8.9,0,0,1,5.159-2,3.56,3.56,0,0,1,3.586,3.837c-.1,1.879-1.17,3.653-2.516,5.8-2.784,4.45-15.682,14.713-20.949,9.537-3.031-3.02.606-9.008,2.645-11.549a33.831,33.831,0,0,1,15.9-10.774,20.639,20.639,0,0,1,6.019-1.107q1.522,0,1.456,1.16A4.593,4.593,0,0,1,362.34,144.285Z" transform="translate(-213.233 -50.006)" fill="none" stroke="#fff" stroke-linecap="round" stroke-linejoin="round" stroke-width="2.196"/>
    <path id="Path_3253" data-name="Path 3253" d="M362.34,144.287q-1.831-.159-3.034-.162a18.269,18.269,0,0,0-14.4,6.249,24.591,24.591,0,0,0-3.521,5.429,14.3,14.3,0,0,0-1.6,5.153,3.077,3.077,0,0,0,3.307,3.33q3.592.01,8.212-4.93t4.857-9.072a2.158,2.158,0,0,0-.481-1.561,1.685,1.685,0,0,0-1.333-.642q-2.762-.008-5.549,4.735a3.634,3.634,0,0,1-.119-1.042c.068-1.226,1.023-2.51,2.881-3.852a8.9,8.9,0,0,1,5.159-2,3.56,3.56,0,0,1,3.586,3.837c-.1,1.879-1.17,3.653-2.516,5.8-2.784,4.451-15.682,14.713-20.949,9.537-3.031-3.02.606-9.008,2.646-11.549a33.828,33.828,0,0,1,15.9-10.773,20.636,20.636,0,0,1,6.019-1.107q1.522,0,1.456,1.16a4.593,4.593,0,0,1-.529,1.457" transform="translate(-213.234 -50.008)" fill="#fff"/>
    <path id="Path_3254" data-name="Path 3254" d="M121.214,81.376l.392,1q-3.887,1.507-8.806,3.095l-.913.29c.168-.687.356-1.527.552-2.52.161-.789.306-1.488.423-2.095a13.532,13.532,0,0,0,.328-2.076c.067-1.205-.574-1.814-1.907-1.818a17.13,17.13,0,0,0-7.814,2.439Q97.343,82.974,97.1,87.3a1.871,1.871,0,0,0,1.455,2.06,28.354,28.354,0,0,0,6.708.5h.448c.1-.628.154-1.062.167-1.3a10.682,10.682,0,0,0-.581-4.428q3.413.722,3.169,5.235l-.028.5,5.427-.065a20.381,20.381,0,0,1,5.3.489q5.063,1.582,4.8,6.477-.366,6.594-6.434,12.624a23.364,23.364,0,0,1-17.09,7.163c-4.824-.014-8.386-1.7-10.716-5.044a39,39,0,0,1-18.4,4.575,30.2,30.2,0,0,1-13.255-2.883Q46.6,107.6,47.341,94.13A20.319,20.319,0,0,1,53.4,80.138a18.979,18.979,0,0,1,13.819-5.419,20.99,20.99,0,0,1,13.508,4.465,17.7,17.7,0,0,1,4.849,5.96A63.109,63.109,0,0,1,89.45,96.386l1.439,5.342a46.164,46.164,0,0,0,2.184,6.571,22.558,22.558,0,0,0,7.216-6.329,23.528,23.528,0,0,0,4.7-8.476l-1.593.026q-5.766-.016-8.093-.844c-1.55-.541-2.289-1.494-2.214-2.83q.181-3.267,4.6-7.444A26.289,26.289,0,0,1,105.9,77.16a51.5,51.5,0,0,1,11.949-2.945l1.177-.179-.12.477c-.285.89-.519,1.68-.686,2.379l-.708,2.782a13.133,13.133,0,0,0-.345,1.721c-.032.578.223.862.778.864a3.826,3.826,0,0,0,1.227-.209C120.108,81.736,120.8,81.517,121.214,81.376Zm-13.6,12.064a25.6,25.6,0,0,1-5.354,8.677,35.6,35.6,0,0,1-8.7,7.308,10.489,10.489,0,0,0,3.5,4.385,9.632,9.632,0,0,0,5.251,1.281,17.809,17.809,0,0,0,12.069-4.685q5.39-4.695,5.731-10.811.191-3.448-1.966-4.778c-1.438-.883-4.078-1.327-7.937-1.338l-1.721,0ZM89.191,110.455a33.423,33.423,0,0,1-2.143-5.648l-2.275-8.738Q82.057,85.655,77.7,80.928A14.77,14.77,0,0,0,66.407,76.2q-7.217-.02-11.519,4.12-4.28,4.152-4.694,11.5a19.312,19.312,0,0,0,1.211,7.752,19.962,19.962,0,0,0,4.069,6.808,22.869,22.869,0,0,0,8.215,5.665,27.109,27.109,0,0,0,10.4,2.045A34.993,34.993,0,0,0,89.191,110.455Z" transform="translate(0)" fill="none" stroke="#fff" stroke-linecap="round" stroke-linejoin="round" stroke-width="2.196"/>
    <path id="Path_3255" data-name="Path 3255" d="M121.215,81.377l.392,1q-3.887,1.507-8.806,3.095l-.912.29c.168-.687.355-1.528.552-2.521.161-.789.306-1.488.423-2.095a13.6,13.6,0,0,0,.328-2.076c.067-1.205-.574-1.814-1.907-1.818a17.13,17.13,0,0,0-7.814,2.439Q97.343,82.975,97.1,87.3a1.872,1.872,0,0,0,1.455,2.06,28.373,28.373,0,0,0,6.708.5h.447c.1-.628.154-1.062.167-1.3a10.686,10.686,0,0,0-.581-4.428q3.413.723,3.168,5.235l-.027.5,5.427-.065a20.369,20.369,0,0,1,5.3.489q5.062,1.582,4.8,6.477-.365,6.594-6.434,12.624a23.362,23.362,0,0,1-17.09,7.163c-4.824-.014-8.386-1.7-10.716-5.044a39,39,0,0,1-18.4,4.575,30.189,30.189,0,0,1-13.255-2.883Q46.6,107.6,47.341,94.131A20.32,20.32,0,0,1,53.4,80.139,18.977,18.977,0,0,1,67.221,74.72,20.99,20.99,0,0,1,80.73,79.185a17.7,17.7,0,0,1,4.849,5.96,63.139,63.139,0,0,1,3.873,11.242l1.439,5.342a46.234,46.234,0,0,0,2.184,6.571,22.559,22.559,0,0,0,7.216-6.33,23.533,23.533,0,0,0,4.7-8.476l-1.594.026q-5.766-.016-8.093-.844c-1.55-.541-2.288-1.494-2.214-2.83q.181-3.267,4.6-7.444a26.293,26.293,0,0,1,8.207-5.242,51.5,51.5,0,0,1,11.949-2.945l1.177-.18-.12.477c-.285.89-.519,1.68-.686,2.379l-.708,2.782a13.077,13.077,0,0,0-.345,1.722c-.032.578.223.862.778.863a3.829,3.829,0,0,0,1.228-.209c.936-.313,1.622-.532,2.042-.673m-13.6,12.064a25.605,25.605,0,0,1-5.354,8.677,35.6,35.6,0,0,1-8.7,7.308,10.489,10.489,0,0,0,3.5,4.385,9.63,9.63,0,0,0,5.251,1.28,17.808,17.808,0,0,0,12.069-4.684q5.39-4.7,5.731-10.811.191-3.448-1.966-4.778T110.21,93.48l-1.721,0ZM89.191,110.456a33.393,33.393,0,0,1-2.143-5.648L84.773,96.07Q82.057,85.656,77.7,80.929A14.771,14.771,0,0,0,66.407,76.2q-7.217-.021-11.518,4.119-4.28,4.152-4.693,11.5a19.312,19.312,0,0,0,1.211,7.752,19.957,19.957,0,0,0,4.069,6.808,22.865,22.865,0,0,0,8.215,5.665,27.1,27.1,0,0,0,10.4,2.045A34.99,34.99,0,0,0,89.191,110.456Z" transform="translate(0 -0.001)" fill="#fff"/>
    <path id="Path_3256" data-name="Path 3256" d="M557.241,144.284q-1.831-.159-3.033-.162a18.268,18.268,0,0,0-14.4,6.249,24.589,24.589,0,0,0-3.521,5.428,14.3,14.3,0,0,0-1.6,5.153,3.077,3.077,0,0,0,3.307,3.33q3.592.01,8.212-4.93t4.857-9.072a2.158,2.158,0,0,0-.481-1.561,1.685,1.685,0,0,0-1.333-.642q-2.762-.008-5.549,4.735a3.631,3.631,0,0,1-.119-1.042c.068-1.227,1.023-2.51,2.881-3.852a8.9,8.9,0,0,1,5.159-2,3.56,3.56,0,0,1,3.586,3.837c-.1,1.879-1.17,3.653-2.516,5.8-2.784,4.451-15.682,14.713-20.95,9.537-3.031-3.02.607-9.008,2.646-11.549a33.831,33.831,0,0,1,15.9-10.774,20.64,20.64,0,0,1,6.019-1.107q1.522,0,1.456,1.16A4.588,4.588,0,0,1,557.241,144.284Z" transform="translate(-357.339 -50.006)" fill="none" stroke="#fff" stroke-linecap="round" stroke-linejoin="round" stroke-width="2.196"/>
    <path id="Path_3257" data-name="Path 3257" d="M557.241,144.287q-1.831-.159-3.034-.162a18.268,18.268,0,0,0-14.4,6.249,24.581,24.581,0,0,0-3.521,5.429,14.292,14.292,0,0,0-1.6,5.153,3.077,3.077,0,0,0,3.307,3.33q3.592.01,8.212-4.93t4.857-9.072a2.158,2.158,0,0,0-.481-1.561,1.685,1.685,0,0,0-1.333-.642q-2.761-.008-5.549,4.735a3.632,3.632,0,0,1-.119-1.042c.068-1.226,1.023-2.51,2.881-3.852a8.894,8.894,0,0,1,5.159-2,3.56,3.56,0,0,1,3.586,3.837c-.1,1.879-1.17,3.653-2.516,5.8-2.784,4.451-15.682,14.713-20.95,9.537-3.031-3.02.607-9.008,2.646-11.549a33.829,33.829,0,0,1,15.9-10.773,20.636,20.636,0,0,1,6.019-1.107q1.522,0,1.457,1.16a4.6,4.6,0,0,1-.53,1.457" transform="translate(-357.339 -50.008)" fill="#fff"/>
  </g>
</svg>
