<svg xmlns="http://www.w3.org/2000/svg" width="140" height="50" viewBox="0 0 140 50">
  <path id="Subtraction_6" data-name="Subtraction 6" d="M140,50H0V46.874A6.172,6.172,0,0,0,4.4,45.04a6.219,6.219,0,0,0,1.824-4.416A6.243,6.243,0,0,0,0,34.374V31.249a6.172,6.172,0,0,0,4.4-1.834A6.219,6.219,0,0,0,6.222,25,6.243,6.243,0,0,0,0,18.749V15.625a6.172,6.172,0,0,0,4.4-1.834A6.219,6.219,0,0,0,6.222,9.375,6.243,6.243,0,0,0,0,3.125V0H140V3.125a6.25,6.25,0,0,0,0,12.5v3.125a6.25,6.25,0,0,0,0,12.5v3.125a6.25,6.25,0,0,0,0,12.5V50h0Z" fill="#f9c924"/>
</svg>
