<svg xmlns="http://www.w3.org/2000/svg" width="83.27" height="72.54" viewBox="0 0 83.27 72.54">
  <g id="Group_17" data-name="Group 17" transform="matrix(0.899, 0.438, -0.438, 0.899, 455.69, -3373.287)">
    <rect id="Rectangle_41" data-name="Rectangle 41" width="69" height="46" transform="translate(1088 3223)" fill="#fff"/>
    <path id="Icon_awesome-ticket-alt" data-name="Icon awesome-ticket-alt" d="M15.536,16.152H54.377v23.3H15.536ZM64.087,27.8a5.826,5.826,0,0,0,5.826,5.826V45.283a5.826,5.826,0,0,1-5.826,5.826H5.826A5.826,5.826,0,0,1,0,45.283V33.631A5.826,5.826,0,0,0,0,21.978V10.326A5.826,5.826,0,0,1,5.826,4.5H64.087a5.826,5.826,0,0,1,5.826,5.826V21.978A5.826,5.826,0,0,0,64.087,27.8ZM58.261,15.181a2.913,2.913,0,0,0-2.913-2.913H14.565a2.913,2.913,0,0,0-2.913,2.913V40.428a2.913,2.913,0,0,0,2.913,2.913H55.348a2.913,2.913,0,0,0,2.913-2.913Z" transform="translate(1087.543 3218.196)" fill="#f9c924"/>
  </g>
</svg>
