<svg xmlns="http://www.w3.org/2000/svg" width="233.1" height="79.295" viewBox="0 0 233.1 79.295">
  <g id="Group_548" data-name="Group 548" transform="translate(-35.938 -304.131)">
    <path id="Path_1634" data-name="Path 1634" d="M120.545,391.776l7.385-21.328h-6.14l3.59-10.369h23.308l-3.59,10.369h-6.14l-7.385,21.328Z" transform="translate(-48.093 -31.803)" fill="#0078c6"/>
    <path id="Path_1635" data-name="Path 1635" d="M168.582,391.776l10.976-31.7h13.883q6.032,0,8.272,2.749t.441,7.923a13.42,13.42,0,0,1-3.53,5.565,9.314,9.314,0,0,1-5.215,2.557l3.725,12.9H184.769l-1.746-10.457L179.4,391.776Zm18.971-23.538-2.144,6.193h1.718a4.558,4.558,0,0,0,2.693-.791,4.444,4.444,0,0,0,1.634-2.261,2.538,2.538,0,0,0-.045-2.328,2.44,2.44,0,0,0-2.137-.813Z" transform="translate(-75.399 -31.803)" fill="#e50019"/>
    <path id="Path_1636" data-name="Path 1636" d="M240.3,391.776l10.976-31.7H262.49l-10.976,31.7Z" transform="translate(-116.166 -31.803)" fill="#e50019"/>
    <path id="Path_1637" data-name="Path 1637" d="M304.521,391.776l3.009-12.556c.249-.968.5-1.929.75-2.89s.51-1.929.785-2.889c-.436.909-.948,1.87-1.53,2.889s-1.242,2.1-1.98,3.259l-7.741,12.187h-6.562l.7-12.187q.077-1.74.27-3.259c.132-1.02.285-1.98.478-2.889q-.614,1.463-1.225,2.9c-.409.953-.82,1.914-1.242,2.882l-5.686,12.556h-10.82l16.214-31.7h11.385l-.533,7.841c-.02.244-.041.613-.066,1.1a47.847,47.847,0,0,1-1.129,8.159h.186c.635-1.338,1.382-2.772,2.243-4.286s1.893-3.215,3.106-5.107l4.959-7.708h11.357l-6.11,31.7Z" transform="translate(-135.168 -31.803)" fill="#e50019"/>
    <path id="Path_1638" data-name="Path 1638" d="M377.679,391.776l10.976-31.7h11.214l-10.976,31.7Z" transform="translate(-194.257 -31.803)" fill="#e50019"/>
    <path id="Path_1639" data-name="Path 1639" d="M148.938,304.131c37.983,0,71.689,6.633,92.194,16.766-19.353-7.472-47.969-12.214-79.807-12.214-58.05,0-105.4,15.765-105.4,35.1s47.346,35.1,105.4,35.1c31.84,0,60.456-4.744,79.809-12.216-20.5,10.134-54.212,16.769-92.2,16.769-62.239,0-113-17.81-113-39.648s50.761-39.648,113-39.648" transform="translate(0 0)" fill="#e50019" fill-rule="evenodd"/>
    <path id="Path_1640" data-name="Path 1640" d="M235.938,327.052c-33.707,0-63.619,4.978-81.815,12.583,17.174-5.608,42.569-9.167,70.823-9.167,51.515,0,93.531,11.832,93.531,26.339s-42.016,26.339-93.531,26.339c-28.256,0-53.65-3.56-70.825-9.169,18.2,7.606,48.109,12.585,81.817,12.585,55.232,0,100.279-13.367,100.279-29.756s-45.047-29.756-100.279-29.756" transform="translate(-67.179 -13.029)" fill="#0078c6" fill-rule="evenodd"/>
    <path id="Path_1641" data-name="Path 1641" d="M430.7,384.585c-.068-.65-.111-1.167-.116-1.567a7.14,7.14,0,0,1,.042-1.072,8.431,8.431,0,0,1-.641,1.005c-.264.369-.7.917-1.3,1.633l-5.975,7.191H410.1l16.746-16.887-4.49-14.81h12.595l.477,5.173c0,.059.01.155.024.281a14.649,14.649,0,0,1,.047,2.343c.231-.377.486-.761.774-1.16s.643-.887,1.079-1.463l4.117-5.173H454l-14.71,14.81,5.058,16.887H431.728Z" transform="translate(-212.683 -31.803)" fill="#e50019"/>
  </g>
</svg>
