<svg xmlns="http://www.w3.org/2000/svg" width="36.066" height="31.511" viewBox="0 0 36.066 31.511">
  <path id="youtube" d="M18.033,0A83.038,83.038,0,0,0,4.689,1.5l-.018.023A5.662,5.662,0,0,0,0,7.163V24.357a5.843,5.843,0,0,0,1.334,3.717A5.505,5.505,0,0,0,4.689,30h0a82.9,82.9,0,0,0,13.344,1.506A82.9,82.9,0,0,0,31.377,30h0a5.505,5.505,0,0,0,3.354-1.935,5.843,5.843,0,0,0,1.334-3.713V7.163a5.843,5.843,0,0,0-1.333-3.718,5.505,5.505,0,0,0-3.356-1.933h0A83.038,83.038,0,0,0,18.033,0ZM13.871,9.166l11.1,6.593-11.1,6.591Z" transform="translate(0)" fill="#f9c924"/>
</svg>
